<?xml version="1.0" encoding="UTF-8" standalone="no"?>
<!-- Created with Inkscape (http://www.inkscape.org/) -->

<svg
   xmlns:dc="http://purl.org/dc/elements/1.1/"
   xmlns:cc="http://creativecommons.org/ns#"
   xmlns:rdf="http://www.w3.org/1999/02/22-rdf-syntax-ns#"
   xmlns:svg="http://www.w3.org/2000/svg"
   xmlns="http://www.w3.org/2000/svg"
   xmlns:sodipodi="http://sodipodi.sourceforge.net/DTD/sodipodi-0.dtd"
   xmlns:inkscape="http://www.inkscape.org/namespaces/inkscape"
   width="64px"
   height="64px"
   id="svg3095"
   version="1.1"
   inkscape:version="0.48.1 r9760"
   sodipodi:docname="New document 8">
  <defs
     id="defs3097" />
  <sodipodi:namedview
     id="base"
     pagecolor="#ffffff"
     bordercolor="#666666"
     borderopacity="1.0"
     inkscape:pageopacity="0.0"
     inkscape:pageshadow="2"
     inkscape:zoom="5.5"
     inkscape:cx="32"
     inkscape:cy="32"
     inkscape:current-layer="layer1"
     showgrid="true"
     inkscape:document-units="px"
     inkscape:grid-bbox="true"
     inkscape:window-width="1280"
     inkscape:window-height="693"
     inkscape:window-x="0"
     inkscape:window-y="0"
     inkscape:window-maximized="0" />
  <metadata
     id="metadata3100">
    <rdf:RDF>
      <cc:Work
         rdf:about="">
        <dc:format>image/svg+xml</dc:format>
        <dc:type
           rdf:resource="http://purl.org/dc/dcmitype/StillImage" />
        <dc:title></dc:title>
      </cc:Work>
    </rdf:RDF>
  </metadata>
  <g
     id="layer1"
     inkscape:label="Layer 1"
     inkscape:groupmode="layer">
    <g
       id="g3168"
       transform="translate(-20.545454,-12.727273)">
      <path
         style="fill:#fcfcfb"
         d="m 20.727272,44.727273 0,-32 32,0 32,0 0,32 0,32 -32,0 -32,0 0,-32 z"
         id="path3184"
         inkscape:connector-curvature="0" />
      <path
         style="fill:#d0d2ec"
         d="M 48.752708,70.752709 C 46.569284,68.569285 46.360192,67.815408 44.677474,56.059496 43.690459,49.163951 43.055633,47.457985 40.601865,45.107125 30.710458,35.630556 38.820766,17.654723 52.945153,17.749235 c 4.708109,0.0315 11.120816,3.240583 13.692378,6.852009 4.495553,6.313421 3.952087,15.583917 -1.195469,20.392455 -2.37439,2.218012 -3.315839,4.169085 -3.898302,8.078896 -2.206644,14.812219 -3.331093,18.289949 -6.158942,19.048569 -3.488508,0.935853 -4.546003,0.717652 -6.63211,-1.368455 z"
         id="path3182"
         inkscape:connector-curvature="0" />
      <path
         style="fill:#9c9dda"
         d="m 49.688462,69.455241 c -1.132961,-1.216091 -1.96119,-3.509273 -1.96119,-5.430098 0,-1.828754 -0.426941,-4.106402 -0.948758,-5.061439 -0.521817,-0.955037 -1.214019,-3.804773 -1.538227,-6.332748 -0.423362,-3.301117 -1.528963,-5.622005 -3.923484,-8.236214 -3.962376,-4.325905 -4.991647,-8.460409 -3.492333,-14.028435 3.207743,-11.912646 18.64006,-15.396996 26.838368,-6.059639 5.613047,6.392908 5.485071,13.998848 -0.344107,20.45105 -2.870919,3.177765 -3.591459,4.784301 -3.591459,8.007619 0,2.217766 -0.621784,5.02897 -1.381742,6.247119 -0.759959,1.218149 -1.275397,3.339817 -1.145419,4.714817 0.536721,5.677824 -5.053532,9.43982 -8.511649,5.727968 z"
         id="path3180"
         inkscape:connector-curvature="0" />
      <path
         style="fill:#817dd4"
         d="m 50.342282,68.262456 c -0.888256,-1.355649 -1.61501,-3.605649 -1.61501,-5 0,-2.291047 0.385197,-2.535183 4,-2.535183 3.614803,0 4,0.244136 4,2.535183 0,2.59042 -2.611931,7.464817 -4,7.464817 -0.423489,0 -1.496735,-1.109168 -2.38499,-2.464817 z M 47.298701,58.155844 c -0.936068,-0.936067 -1.571429,-3.291512 -1.571429,-5.825686 0,-3.289932 -0.58822,-4.803784 -2.595014,-6.678571 -5.543745,-5.179077 -6.844393,-11.553165 -3.653432,-17.904381 2.460637,-4.897596 7.519956,-8.019933 12.9952,-8.019933 9.482384,0 15.253246,5.624032 15.253246,14.865153 0,4.45771 -0.458363,5.636438 -3.501741,9.005094 -2.609278,2.888159 -3.663937,5.118939 -4.138149,8.75288 -0.350025,2.68228 -1.079341,5.439373 -1.620704,6.126873 -1.418909,1.801935 -9.270595,1.575954 -11.167977,-0.321429 z"
         id="path3178"
         inkscape:connector-curvature="0" />
      <path
         style="fill:#7d83c8"
         d="m 50.342282,68.262456 c -0.888256,-1.355649 -1.61501,-3.605649 -1.61501,-5 0,-2.291047 0.385197,-2.535183 4,-2.535183 3.401889,0 4,0.315265 4,2.108408 0,1.689451 -0.448743,1.995781 -2.258308,1.541609 -2.688348,-0.674733 -5.27958,0.670645 -4.31079,2.23818 0.917742,1.484938 3.85055,1.411232 5.498915,-0.138197 0.7314,-0.6875 0.544645,-0.0125 -0.41501,1.5 -2.145321,3.381214 -2.844534,3.421911 -4.899797,0.285183 z M 47.270537,57.477273 c -0.216681,-0.6875 -0.678265,-3.37506 -1.025743,-5.972356 -0.446701,-3.338967 -1.350329,-5.28757 -3.084635,-6.651775 -6.006972,-4.725085 -6.57176,-13.620235 -1.249673,-19.681757 9.071782,-10.332189 25.816786,-4.112344 25.816786,9.589511 0,3.650751 -1.253588,6.269453 -5.14665,10.751173 -1.928343,2.219922 -2.85335,4.381642 -2.85335,6.668213 0,5.892343 -0.663786,6.546991 -6.638374,6.546991 -3.462735,0 -5.566868,-0.452046 -5.818361,-1.25 z"
         id="path3176"
         inkscape:connector-curvature="0" />
      <path
         style="fill:#5f5ed9"
         d="m 47.270537,57.477273 c -0.216681,-0.6875 -0.670013,-3.320032 -1.007405,-5.850072 -0.437483,-3.280605 -1.456191,-5.407479 -3.551535,-7.414945 -6.208691,-5.948304 -6.014214,-14.617521 0.455342,-20.297867 9.810236,-8.6135 24.560333,-2.099459 24.560333,10.846507 0,3.650751 -1.253588,6.269453 -5.14665,10.751173 -1.928343,2.219922 -2.85335,4.381642 -2.85335,6.668213 0,5.892343 -0.663786,6.546991 -6.638374,6.546991 -3.462735,0 -5.566868,-0.452046 -5.818361,-1.25 z"
         id="path3174"
         inkscape:connector-curvature="0" />
      <path
         style="fill:#2f2cd7"
         d="m 47.357558,55.477273 c -0.331637,-1.2375 -0.609121,-3.486204 -0.616631,-4.997119 -0.0086,-1.739756 -1.342481,-4.217971 -3.637415,-6.758189 -8.593482,-9.511957 -2.784121,-22.994692 9.907818,-22.994692 8.15966,0 13.705523,5.762208 13.712204,14.247119 0.0032,4.06061 -0.52417,5.33145 -3.646676,8.787692 -2.8933,3.202537 -3.749308,5.06978 -4.127229,9.00288 l -0.476816,4.962309 -5.256139,0 c -4.605485,0 -5.330781,-0.278526 -5.859116,-2.25 z"
         id="path3172"
         inkscape:connector-curvature="0" />
      <path
         style="fill:#0404f2"
         d="m 48.171802,51.977273 c -0.387948,-2.717862 -1.632006,-5.819546 -2.907912,-7.25 -6.051227,-6.784204 -6.979981,-11.120545 -3.577102,-16.701451 6.645755,-10.899404 24.040484,-6.448086 24.040484,6.15197 0,3.539787 -0.622106,5.188428 -2.964537,7.856309 -3.447519,3.926508 -5.035463,7.634504 -5.035463,11.758272 0,2.805731 -0.195354,2.9349 -4.438727,2.9349 l -4.438727,0 -0.678016,-4.75 z"
         id="path3170"
         inkscape:connector-curvature="0" />
    </g>
  </g>
</svg>
