<?xml version="1.0" encoding="UTF-8" standalone="no"?>
<!-- Created with Inkscape (http://www.inkscape.org/) -->

<svg
   xmlns:dc="http://purl.org/dc/elements/1.1/"
   xmlns:cc="http://creativecommons.org/ns#"
   xmlns:rdf="http://www.w3.org/1999/02/22-rdf-syntax-ns#"
   xmlns:svg="http://www.w3.org/2000/svg"
   xmlns="http://www.w3.org/2000/svg"
   xmlns:sodipodi="http://sodipodi.sourceforge.net/DTD/sodipodi-0.dtd"
   xmlns:inkscape="http://www.inkscape.org/namespaces/inkscape"
   width="64px"
   height="64px"
   id="svg3219"
   version="1.1"
   inkscape:version="0.48.1 r9760"
   sodipodi:docname="New document 14">
  <defs
     id="defs3221" />
  <sodipodi:namedview
     id="base"
     pagecolor="#ffffff"
     bordercolor="#666666"
     borderopacity="1.0"
     inkscape:pageopacity="0.0"
     inkscape:pageshadow="2"
     inkscape:zoom="5.5"
     inkscape:cx="32"
     inkscape:cy="32"
     inkscape:current-layer="layer1"
     showgrid="true"
     inkscape:document-units="px"
     inkscape:grid-bbox="true"
     inkscape:window-width="1280"
     inkscape:window-height="693"
     inkscape:window-x="0"
     inkscape:window-y="0"
     inkscape:window-maximized="0" />
  <metadata
     id="metadata3224">
    <rdf:RDF>
      <cc:Work
         rdf:about="">
        <dc:format>image/svg+xml</dc:format>
        <dc:type
           rdf:resource="http://purl.org/dc/dcmitype/StillImage" />
        <dc:title></dc:title>
      </cc:Work>
    </rdf:RDF>
  </metadata>
  <g
     id="layer1"
     inkscape:label="Layer 1"
     inkscape:groupmode="layer">
    <g
       id="g3292"
       transform="translate(-22.181818,-13.636364)">
      <path
         style="fill:#f7f8f7"
         d="m 22.363636,45.818182 0,-32 32,0 32,0 0,32 0,32 -32,0 -32,0 0,-32 z"
         id="path3308"
         inkscape:connector-curvature="0" />
      <path
         style="fill:#efd3ce"
         d="m 22.363636,74.247859 c 0,-3.18344 1.137789,-4.737076 10.5,-14.337611 5.775,-5.922008 10.5,-11.220618 10.5,-11.774689 0,-0.554071 -0.88306,-1.80656 -1.962355,-2.783309 -1.079295,-0.976748 -2.463746,-3.295137 -3.076558,-5.151975 -0.612812,-1.856838 -3.868571,-6.189925 -7.23502,-9.629081 -6.861189,-7.009374 -8.726067,-9.872857 -8.726067,-13.398704 0,-5.293922 6.109567,-4.202732 13.104898,2.340581 l 4.93212,4.613421 5.245844,-2.654155 c 6.609051,-3.343875 10.928192,-3.34994 17.601051,-0.02471 l 5.276601,2.629441 4.207595,-4.129441 c 2.314177,-2.271193 4.753061,-4.129442 5.419743,-4.129442 0.666681,0 1.212148,-0.478511 1.212148,-1.063358 0,-0.597299 1.424444,-0.926017 3.25,-0.75 2.967102,0.286082 3.277016,0.639779 3.560365,4.063358 0.179663,2.170786 -0.136179,3.75 -0.75,3.75 -0.583201,0 -1.060365,0.5755 -1.060365,1.278888 0,0.703389 -2.907231,4.160278 -6.460513,7.681976 -3.717511,3.684467 -6.725538,7.609735 -7.084717,9.245067 -0.343312,1.563088 -1.797337,4.236168 -3.231167,5.940178 l -2.606963,3.098201 4.918634,4.627845 c 2.70525,2.545315 7.539722,7.511338 10.743273,11.035607 4.841155,5.325821 5.773714,6.929883 5.523045,9.5 -0.258159,2.646914 -0.747717,3.135731 -3.399394,3.394245 -2.642009,0.257572 -4.444402,-0.886435 -12.25,-7.775259 -8.804934,-7.770788 -9.152198,-7.970042 -9.152198,-5.251371 0,6.269767 -4.145003,10.265539 -9.037964,8.712574 -2.256042,-0.71604 -4.962036,-5.823996 -4.962036,-9.366561 0,-2.335243 -0.667833,-1.907959 -7.273516,4.653638 -4.000434,3.973734 -7.825434,7.224972 -8.5,7.224972 -0.674566,0 -1.226484,0.45 -1.226484,1 0,0.55 -1.8,1 -4,1 -3.919769,0 -4,-0.07161 -4,-3.570323 z"
         id="path3306"
         inkscape:connector-curvature="0" />
      <path
         style="fill:#dfa39c"
         d="m 23.613636,77.155901 c -0.6875,-0.277412 -1.25,-1.613571 -1.25,-2.969241 0,-1.79319 3.102581,-5.640162 11.385742,-14.117484 L 45.135121,48.416549 42.362392,44.867365 c -1.525001,-1.952051 -3.161085,-4.761785 -3.635743,-6.243853 -0.474657,-1.482069 -4.350513,-6.262777 -8.613013,-10.623795 -8.199491,-8.389005 -9.536119,-11.571537 -5.5,-13.095593 2.960154,-1.117767 5.123531,0.049 11.405761,6.151411 l 5.15576,5.008189 3.766397,-2.872771 c 5.224099,-3.984614 13.242893,-4.080663 19.064133,-0.228348 l 3.995992,2.644422 5.749938,-5.394422 c 4.254137,-3.991107 6.512424,-5.394423 8.680978,-5.394423 2.70083,0 2.931041,0.283917 2.931041,3.614837 0,3.146734 -0.971213,4.61285 -7.5,11.321801 -4.125,4.23883 -7.5,8.446495 -7.5,9.350366 0,0.903872 -1.35,3.180969 -3,5.060215 -1.65,1.879246 -3,3.782759 -3,4.230029 0,0.447271 4.725,5.608115 10.5,11.468543 9.468757,9.608826 10.5,11.013748 10.5,14.304766 0,3.239398 -0.284795,3.649443 -2.534706,3.649443 -1.82258,0 -5.011957,-2.388076 -11.352108,-8.5 -4.849572,-4.675 -9.333954,-8.5 -9.965294,-8.5 -1.086923,0 -1.562322,1.703449 -1.382548,4.953937 0.114011,2.061422 -3.631499,7.046063 -5.294483,7.046063 -2.652024,0 -5.470861,-4.21912 -5.470861,-8.188561 0,-2.394025 -0.464855,-3.803392 -1.25,-3.789801 -0.6875,0.0119 -5.185561,3.836901 -9.995691,8.5 -8.44346,8.185369 -10.64671,9.372656 -14.504309,7.816081 z"
         id="path3304"
         inkscape:connector-curvature="0" />
      <path
         style="fill:#cf8678"
         d="m 23.563636,76.618182 c -0.66,-0.66 -1.2,-1.85658 -1.2,-2.659066 0,-0.802486 5.0625,-6.581317 11.25,-12.841847 6.1875,-6.260529 11.410722,-11.846116 11.607161,-12.412415 0.196438,-0.5663 -0.569585,-2.01611 -1.702273,-3.221801 -1.132688,-1.205691 -2.792735,-3.986024 -3.688994,-6.178518 -0.916514,-2.242045 -5.198587,-7.600871 -9.78603,-12.246788 -6.872566,-6.960166 -7.985025,-8.534259 -7.067305,-10 2.241535,-3.580079 5.576723,-2.633953 11.353281,3.2207 3.006212,3.046854 6.023728,5.539735 6.705591,5.539735 0.681863,0 2.897531,-1.125 4.923707,-2.5 5.80592,-3.940004 12.194236,-3.454262 20.098901,1.528241 2.046084,1.289697 2.597413,0.998201 8.175762,-4.322643 7.133545,-6.804248 11.130199,-7.749476 11.130199,-2.632344 0,2.478777 -1.547486,4.689119 -8,11.426746 -4.4,4.59442 -8,9.045798 -8,9.89195 0,0.846151 -1.35,3.076023 -3,4.955269 -1.65,1.879246 -3,3.815079 -3,4.30185 0,0.486772 4.965973,5.827365 11.035496,11.867985 9.68242,9.636314 11.000491,11.349776 10.75,13.974757 -0.532015,5.57517 -3.336386,4.415931 -13.285496,-5.491811 C 61.654974,58.651968 59.090913,57.689639 58.563625,63.826499 58.39862,65.746924 57.45506,68.385864 56.466826,69.69081 L 54.670037,72.063438 52.4447,69.69081 c -1.599072,-1.704912 -2.120949,-3.286266 -1.854412,-5.619103 0.284139,-2.4869 -0.06443,-3.38465 -1.489803,-3.837046 -1.389937,-0.441149 -4.237329,1.708575 -11.253906,8.496475 -9.164351,8.865674 -11.831509,10.33848 -14.282943,7.887046 z"
         id="path3302"
         inkscape:connector-curvature="0" />
      <path
         style="fill:#d26059"
         d="m 23.563636,76.618182 c -0.66,-0.66 -1.2,-1.679534 -1.2,-2.265632 0,-0.586097 5.4,-6.451563 12,-13.034368 6.6,-6.582805 12,-12.468526 12,-13.079381 0,-0.610854 -0.959642,-1.967888 -2.132539,-3.015631 -1.172896,-1.047744 -2.860396,-3.580425 -3.75,-5.628182 -0.889603,-2.047756 -5.423434,-7.586771 -10.07518,-12.308921 -7.018459,-7.124685 -8.277363,-8.8735 -7.397872,-10.276806 2.161917,-3.449531 4.856382,-2.489272 11.227272,4.001197 l 6.175634,6.291547 2.726343,-1.724182 c 8.763912,-5.542439 14.744517,-5.889999 20.876109,-1.213205 1.769234,1.34946 3.598401,2.453564 4.064815,2.453564 0.466414,0 3.533938,-2.715779 6.816721,-6.035064 6.416747,-6.488095 9.686115,-7.463657 10.306532,-3.075413 0.261619,1.850446 -1.349949,4.106451 -7.143461,10 -4.283199,4.357158 -8.312324,9.534132 -9.425319,12.110477 -1.069213,2.475 -2.692156,5.1176 -3.606539,5.872445 -0.914384,0.754844 -1.662516,2.13077 -1.662516,3.057612 0,0.926842 4.971455,6.584154 11.047678,12.571803 9.054362,8.922375 10.993969,11.346223 10.75,13.433837 -0.578942,4.953951 -3.503607,3.621884 -13.229837,-6.025661 l -9.331491,-9.255998 -8.285277,0.109139 -8.285277,0.109138 -9.101687,9.063843 C 27.901783,77.742772 25.87868,78.933226 23.563636,76.618182 z"
         id="path3300"
         inkscape:connector-curvature="0" />
      <path
         style="fill:#cd453b"
         d="M 23.630805,75.874379 C 22.539303,74.126607 23.62438,72.748538 34.390258,62.209667 47.25465,49.61653 48.164337,47.85848 43.892657,43.845446 42.533619,42.568696 40.937495,40.056993 40.345716,38.263885 39.704804,36.3219 35.793794,31.666627 30.673022,26.750481 23.7691,20.12244 22.273371,18.184271 23.077146,16.907728 c 2.063753,-3.277622 4.472639,-2.351184 11.171703,4.296547 l 6.632274,6.581452 4.491257,-2.979491 c 6.14587,-4.07716 12.038166,-4.097637 18.046021,-0.06271 5.152163,3.460233 5.517162,3.335236 12.825438,-4.392189 5.480522,-5.794843 8.372,-6.739976 8.920618,-2.915867 0.215391,1.501371 -1.740589,4.054349 -6.887581,8.98978 -4.58998,4.401315 -8.000132,8.700303 -9.434012,11.892932 -1.235086,2.75 -3.198175,5.857244 -4.362419,6.904988 -1.164245,1.047743 -2.116809,2.405083 -2.116809,3.016312 0,0.611228 5.190127,6.278984 11.533615,12.595012 9.315517,9.275193 11.479071,11.962833 11.25,13.975137 -0.54051,4.748174 -3.368512,3.347876 -12.682321,-6.279706 l -9.091495,-9.397779 -9.12683,0.13755 -9.12683,0.137549 -8.929537,9.205469 c -4.911246,5.063007 -9.473131,9.205468 -10.137523,9.205468 -0.664392,0 -1.754252,-0.874711 -2.42191,-1.943803 z"
         id="path3298"
         inkscape:connector-curvature="0" />
      <path
         style="fill:#cc2f28"
         d="m 23.978875,75.945519 c -1.622008,-1.792298 -1.1566,-2.400292 10.845012,-14.167583 6.896862,-6.762207 12.539749,-12.824764 12.539749,-13.47235 0,-0.647586 -0.952564,-2.034673 -2.116809,-3.082416 -1.164244,-1.047744 -3.121724,-4.154988 -4.349956,-6.904988 -1.509838,-3.380517 -4.893469,-7.533224 -10.446638,-12.821088 -6.709293,-6.388754 -7.99631,-8.082775 -7.027599,-9.25 2.018202,-2.431785 3.562566,-1.649906 10.016396,5.071088 6.439884,6.70647 8.690317,7.693025 11.052161,4.845096 1.708751,-2.060424 7.058094,-4.352315 10.090326,-4.323134 2.268387,0.02183 8.736094,2.812037 11.977829,5.167306 1.457687,1.059077 2.597831,0.365749 8.122577,-4.939384 3.534777,-3.394268 6.184208,-6.414056 5.887624,-6.71064 -0.296584,-0.296584 0.409198,-0.539244 1.568405,-0.539244 1.159208,0 2.428736,0.519529 2.821176,1.154509 0.484339,0.783678 0.262395,0.882621 -0.690984,0.308041 -1.197189,-0.72152 -1.20145,-0.596149 -0.02887,0.849343 1.225059,1.510181 0.458812,2.631957 -7,10.247928 -4.606602,4.703665 -8.703281,9.789228 -9.10373,11.30125 -0.400448,1.512022 -1.862948,3.815277 -3.25,5.118344 -4.268983,4.010502 -3.395379,5.769436 8.881375,17.881977 7.262164,7.165026 11.284618,11.865909 11.076511,12.944682 -0.179726,0.931659 -0.361205,2.031426 -0.403286,2.443926 -0.199263,1.95327 -2.665639,0.02025 -11.302559,-8.858378 l -9.346802,-9.608378 -8.806223,-0.141622 -8.806223,-0.141622 -9.459878,9.75 c -5.202933,5.3625 -9.816496,9.75 -10.252363,9.75 -0.435867,0 -1.555116,-0.842698 -2.487221,-1.872663 z"
         id="path3296"
         inkscape:connector-curvature="0" />
      <path
         style="fill:#d31807"
         d="m 25.245215,77.190627 c -0.06513,-0.479845 -0.06513,-1.209945 0,-1.622445 0.06513,-0.4125 -0.387829,-0.6375 -1.006579,-0.5 -0.61875,0.1375 -1.35,-0.36875 -1.625,-1.125 -0.290959,-0.800137 0.02615,-1.199615 0.758496,-0.955501 1.174009,0.391336 22.29944,-20.181465 24.186918,-23.554202 0.603369,-1.078159 -0.185236,-2.894728 -2.669538,-6.14934 -1.939232,-2.540533 -3.525876,-5.314665 -3.525876,-6.164739 0,-1.817181 -15.805726,-18.307718 -17.258837,-18.006606 -0.54514,0.112964 -1.174448,-0.288218 -1.398464,-0.891514 -0.232568,-0.626331 0.829918,-1.132078 2.476663,-1.178899 2.248763,-0.06394 4.176191,1.223857 8.750997,5.846902 3.226869,3.260894 6.473645,5.928899 7.215059,5.928899 0.741414,0 2.970472,-1.2375 4.953462,-2.75 5.092234,-3.884036 12.430006,-3.884036 17.52224,0 1.98299,1.5125 3.987048,2.75 4.453462,2.75 0.466414,0 3.519852,-2.7 6.785418,-6 3.265566,-3.3 6.51398,-6 7.218697,-6 3.171019,0 0.788504,4.288113 -5.649987,10.168997 -4.428545,4.045008 -7.631468,7.95586 -8.870412,10.831003 -1.066517,2.475 -2.897436,5.357244 -4.06871,6.404988 -3.77992,3.381264 -2.688914,5.499765 8.795693,17.079365 6.967637,7.025268 11.04291,11.921263 11.25,13.515647 0.220793,1.699875 -0.155356,2.5 -1.175281,2.5 -0.825,0 -1.413309,-0.485072 -1.307354,-1.077938 0.105955,-0.592865 -3.790325,-5.042455 -8.658401,-9.887976 l -8.851048,-8.810039 -8.841598,0.182429 -8.841599,0.182428 -8.698856,8.633792 c -4.784371,4.748585 -8.424725,9.116082 -8.089675,9.705548 0.33505,0.589466 0.240939,0.73816 -0.209134,0.330432 -0.450074,-0.407728 -1.422221,-0.240128 -2.160326,0.372445 -0.738105,0.612572 -1.395298,0.721168 -1.46043,0.241324 z"
         id="path3294"
         inkscape:connector-curvature="0" />
    </g>
  </g>
</svg>
