<?xml version="1.0" encoding="UTF-8" standalone="no"?>
<!-- Created with Inkscape (http://www.inkscape.org/) -->

<svg
   xmlns:dc="http://purl.org/dc/elements/1.1/"
   xmlns:cc="http://creativecommons.org/ns#"
   xmlns:rdf="http://www.w3.org/1999/02/22-rdf-syntax-ns#"
   xmlns:svg="http://www.w3.org/2000/svg"
   xmlns="http://www.w3.org/2000/svg"
   xmlns:sodipodi="http://sodipodi.sourceforge.net/DTD/sodipodi-0.dtd"
   xmlns:inkscape="http://www.inkscape.org/namespaces/inkscape"
   width="64px"
   height="64px"
   id="svg3329"
   version="1.1"
   inkscape:version="0.48.1 r9760"
   sodipodi:docname="New document 20">
  <defs
     id="defs3331" />
  <sodipodi:namedview
     id="base"
     pagecolor="#ffffff"
     bordercolor="#666666"
     borderopacity="1.0"
     inkscape:pageopacity="0.0"
     inkscape:pageshadow="2"
     inkscape:zoom="5.5"
     inkscape:cx="32"
     inkscape:cy="32"
     inkscape:current-layer="layer1"
     showgrid="true"
     inkscape:document-units="px"
     inkscape:grid-bbox="true"
     inkscape:window-width="1280"
     inkscape:window-height="693"
     inkscape:window-x="0"
     inkscape:window-y="0"
     inkscape:window-maximized="0" />
  <metadata
     id="metadata3334">
    <rdf:RDF>
      <cc:Work
         rdf:about="">
        <dc:format>image/svg+xml</dc:format>
        <dc:type
           rdf:resource="http://purl.org/dc/dcmitype/StillImage" />
        <dc:title></dc:title>
      </cc:Work>
    </rdf:RDF>
  </metadata>
  <g
     id="layer1"
     inkscape:label="Layer 1"
     inkscape:groupmode="layer">
    <g
       id="g3402"
       transform="translate(-18.181818,-12.545455)">
      <path
         style="fill:#f9fafa"
         d="m 18.363636,44.727273 0,-32 32,0 32,0 0,32 0,32 -32,0 -32,0 0,-32 z"
         id="path3418"
         inkscape:connector-curvature="0" />
      <path
         style="fill:#d1d1d1"
         d="m 18.367374,74.977273 c 0.0049,-2.279823 3.606205,-8.163091 5.423845,-8.860584 2.282613,-0.875921 5.572417,1.468718 5.572417,3.971454 0,3.250446 -3.98858,6.63913 -7.814451,6.63913 -2.368614,0 -3.18459,-0.448788 -3.181811,-1.75 z m 28.490225,-6.5 c -0.406615,-1.2375 -0.911098,-3.579499 -1.121074,-5.204442 -0.618567,-4.786924 -1.922955,-5.14779 -5.920468,-1.637927 -3.342258,2.934542 -3.831746,3.084661 -5.801335,1.779185 -3.300107,-2.187366 -3.15997,-4.566566 0.490833,-8.33324 2.362037,-2.437003 4.059797,-3.350504 5.843687,-3.144267 2.149763,0.248536 2.473704,-0.07028 2.233808,-2.198469 -0.154322,-1.369038 -1.841822,-4.088011 -3.75,-6.042162 -3.104127,-3.178916 -3.46872,-4.127646 -3.462825,-9.010841 0.01014,-8.395248 4.803218,-14.074113 13.055613,-15.468346 3.912203,-0.660963 9.887547,1.25007 13.155262,4.207311 1.418459,1.283688 2.285293,1.395157 4.170332,0.536275 1.83931,-0.838045 2.860221,-0.747661 4.495938,0.39804 2.890299,2.024445 2.655332,4.478242 -0.74034,7.731503 -1.571134,1.505241 -3.36109,4.420619 -3.977681,6.478617 -0.616592,2.057998 -2.481119,5.044819 -4.143394,6.63738 -2.372386,2.27289 -3.029939,3.769271 -3.057754,6.958474 -0.01949,2.2346 -0.678544,5.187909 -1.464565,6.562909 -0.786021,1.375 -1.445075,3.422786 -1.464565,4.550635 -0.01949,1.12785 -0.597935,3.261839 -1.285435,4.742198 -1.632067,3.514248 -6.157855,3.799395 -7.256037,0.457167 z M 76.113636,20.647174 c -2.575261,-1.499952 -2.194091,-5.344271 0.682539,-6.883797 4.840052,-2.590317 7.557684,1.616623 3.84522,5.952465 -1.959988,2.2891 -2.134857,2.325069 -4.527759,0.931332 z"
         id="path3416"
         inkscape:connector-curvature="0" />
      <path
         style="fill:#bcbdbb"
         d="m 19.365593,75.229631 c -1.019611,-1.228557 -0.762959,-2.126919 1.428447,-5 1.469258,-1.926297 3.061673,-3.502358 3.5387,-3.502358 4.746083,0 5.436717,4.862779 1.126525,7.931906 -3.458996,2.463022 -4.446274,2.555445 -6.093672,0.570452 z M 34.113636,62.647174 c -2.488401,-1.44936 -2.169214,-3.872899 0.937091,-7.115182 3.008873,-3.140586 5.442327,-3.558633 7.348083,-1.262337 1.944741,2.343269 3.201988,0.238723 2.402685,-4.02193 -0.416318,-2.219164 -1.854704,-4.767438 -3.53717,-6.266522 -8.201952,-7.307973 -4.264954,-20.78176 6.671885,-22.833523 3.806507,-0.714105 11.36376,1.593028 13.449244,4.105883 1.016634,1.224968 1.58932,1.209039 4.150605,-0.115453 2.3154,-1.19734 3.286487,-1.274865 4.399412,-0.35122 2.29795,1.90713 1.670041,4.313614 -2.071835,7.940383 -1.925,1.865783 -3.5,3.936482 -3.5,4.601553 0,0.665071 -1.57802,3.097986 -3.50671,5.406479 -3.512598,4.204305 -4.207693,5.897009 -4.719084,11.491968 -0.271655,2.97209 -0.331247,3.000392 -6.405496,3.042179 -5.444699,0.03746 -6.540415,0.401395 -9.784796,3.25 -2.009429,1.764302 -3.750348,3.194137 -3.86871,3.177412 -0.118362,-0.01672 -1.002704,-0.489085 -1.965204,-1.04969 z m 42.4625,-43.107401 c -1.847979,-1.847979 -1.452662,-4.181423 0.964083,-5.690705 1.902709,-1.188262 2.342779,-1.132011 3.497414,0.447047 1.095221,1.497804 1.093143,2.149263 -0.01217,3.813946 -1.698828,2.55858 -2.926098,2.952941 -4.449327,1.429712 z"
         id="path3414"
         inkscape:connector-curvature="0" />
      <path
         style="fill:#b8c1ba"
         d="m 19.365593,75.229631 c -1.019611,-1.228557 -0.762959,-2.126919 1.428447,-5 1.469258,-1.926297 3.061673,-3.502358 3.5387,-3.502358 4.746083,0 5.436717,4.862779 1.126525,7.931906 -3.458996,2.463022 -4.446274,2.555445 -6.093672,0.570452 z M 34.113636,62.647174 c -2.488401,-1.44936 -2.169214,-3.872899 0.937091,-7.115182 3.130871,-3.267925 5.337935,-3.539534 7.685255,-0.945775 1.59673,1.764366 1.477277,2.044188 -2.347894,5.5 -2.216617,2.002581 -4.141417,3.627372 -4.277333,3.610647 -0.135915,-0.01672 -1.034619,-0.489085 -1.997119,-1.04969 z M 46.34358,54.203107 c -1.932375,-2.328369 -0.553559,-2.767153 1.514508,-0.481965 0.998538,1.103372 1.350879,2.006131 0.78298,2.006131 -0.567898,0 -1.601768,-0.685875 -2.297488,-1.524166 z m 6.228318,-1.156413 c -0.953612,-0.379391 -1.004093,-0.860504 -0.192849,-1.837993 0.867191,-1.044901 0.658211,-1.20884 -0.991144,-0.777524 -2.703447,0.706968 -6.024269,-2.273393 -6.024269,-5.40664 0,-4.644786 8.337757,-9.921693 11.512986,-7.286487 1.923279,1.59618 1.915489,6.388731 -0.01299,7.989223 -1.61112,1.337111 -2.104716,3.491769 -0.5847,2.552347 0.531578,-0.328533 0.613529,0.56268 0.19548,2.125823 -0.754901,2.822681 -1.75135,3.497084 -3.902518,2.641251 z M 42.363636,41.427273 c 0,-2.544704 1.696723,-4.7 3.7,-4.7 1.841223,0 1.554674,2.114961 -0.643562,4.75 -2.374847,2.846745 -3.056438,2.835595 -3.056438,-0.05 z m 15.345077,-4.243128 c -0.325685,-0.848721 -0.322437,-1.812846 0.0072,-2.142501 0.864661,-0.86466 3.730905,1.741992 3.077678,2.798936 -0.853491,1.380977 -2.431958,1.045095 -3.084896,-0.656435 z M 50.00201,35.227273 c 0.316582,-0.825 0.977459,-1.5 1.468615,-1.5 0.491156,0 0.893011,0.675 0.893011,1.5 0,0.825 -0.660877,1.5 -1.468615,1.5 -0.894593,0 -1.243635,-0.586289 -0.893011,-1.5 z m 9.774005,-1.993089 c -0.34415,-1.371199 -0.976735,-2.276154 -1.405746,-2.011011 -0.42901,0.265144 -1.311114,-0.157851 -1.960229,-0.939987 -0.921868,-1.110783 -0.812048,-1.983952 0.501703,-3.988989 0.925052,-1.411808 2.053601,-2.566924 2.507886,-2.566924 1.356324,0 2.055572,1.813015 0.960319,2.489919 -0.558972,0.345463 -0.980786,1.389057 -0.937365,2.319098 0.05058,1.08343 0.263371,1.232265 0.592246,0.414247 0.282314,-0.702205 2.306079,-2.191345 4.497257,-3.309201 3.125175,-1.594345 4.290873,-1.777748 5.407755,-0.850819 2.262787,1.877947 1.676617,4.299378 -1.873812,7.740589 -4.047347,3.922843 -7.410321,4.208057 -8.290014,0.703078 z M 38.550874,30.425467 c 0.275271,-1.934695 0.838334,-2.164238 4.697256,-1.914922 2.971739,0.191997 4.965286,-0.242337 6.186987,-1.347961 0.991371,-0.897179 2.310163,-1.317476 2.930648,-0.933995 1.834732,1.133927 -1.859083,4.412488 -4.862825,4.316153 -1.451617,-0.04656 -4.130047,0.402155 -5.952066,0.997136 -3.107764,1.014841 -3.293408,0.945756 -3,-1.116411 z M 76.576136,19.539773 c -1.847979,-1.847979 -1.452662,-4.181423 0.964083,-5.690705 1.902709,-1.188262 2.342779,-1.132011 3.497414,0.447047 1.095221,1.497804 1.093143,2.149263 -0.01217,3.813946 -1.698828,2.55858 -2.926098,2.952941 -4.449327,1.429712 z"
         id="path3412"
         inkscape:connector-curvature="0" />
      <path
         style="fill:#ccaea9"
         d="m 19.365593,75.229631 c -1.019611,-1.228557 -0.762959,-2.126919 1.428447,-5 1.469258,-1.926297 3.061673,-3.502358 3.5387,-3.502358 4.746083,0 5.436717,4.862779 1.126525,7.931906 -3.458996,2.463022 -4.446274,2.555445 -6.093672,0.570452 z M 34.113636,62.647174 c -2.488401,-1.44936 -2.169214,-3.872899 0.937091,-7.115182 3.130871,-3.267925 5.337935,-3.539534 7.685255,-0.945775 1.59673,1.764366 1.477277,2.044188 -2.347894,5.5 -2.216617,2.002581 -4.141417,3.627372 -4.277333,3.610647 -0.135915,-0.01672 -1.034619,-0.489085 -1.997119,-1.04969 z M 47.018624,48.898532 c -2.409401,-2.662357 -2.030602,-5.918649 1.017075,-8.743141 7.763765,-7.195215 14.523686,-0.467598 7.384308,7.349021 -3.322337,3.637493 -5.973088,4.077357 -8.401383,1.39412 z M 59.863636,33.727273 c -1.057319,-3.331317 0.437003,-5.927214 4.648915,-8.075971 3.140914,-1.602375 4.31026,-1.787837 5.42729,-0.860785 2.262787,1.877947 1.676617,4.299378 -1.873812,7.740589 -3.771364,3.65535 -7.260389,4.16416 -8.202393,1.196167 z m 16.7125,-14.1875 c -1.847979,-1.847979 -1.452662,-4.181423 0.964083,-5.690705 1.902709,-1.188262 2.342779,-1.132011 3.497414,0.447047 1.095221,1.497804 1.093143,2.149263 -0.01217,3.813946 -1.698828,2.55858 -2.926098,2.952941 -4.449327,1.429712 z"
         id="path3410"
         inkscape:connector-curvature="0" />
      <path
         style="fill:#ce847a"
         d="m 19.333629,75.191117 c -1.066672,-1.285261 -0.811123,-2.020231 1.564647,-4.5 3.161624,-3.300025 5.922322,-3.821361 6.889468,-1.301021 0.408598,1.064791 -0.339509,2.683212 -2.080103,4.5 -3.078785,3.213559 -4.539331,3.511676 -6.374012,1.301021 z M 34.030303,62.060606 c -1.33541,-1.335409 -0.613172,-4.034961 1.647784,-6.159019 5.013491,-4.70993 8.878346,-1.072539 4.128355,3.885384 -2.783066,2.904894 -4.477793,3.571982 -5.776139,2.273635 z M 47.563636,47.527273 c -1.933873,-1.933873 -1.421488,-3.398347 2.346515,-6.706697 2.901004,-2.547115 3.902075,-2.923592 5.5,-2.068409 2.691923,1.440673 2.445171,3.852458 -0.733606,7.170387 -2.881921,3.008077 -5.189048,3.52858 -7.112909,1.604719 z m 14,-14 c -1.966043,-1.966043 -1.396319,-3.548478 2.289795,-6.360014 6.022729,-4.593759 9.210696,-0.401403 3.705486,4.872923 -3.112401,2.981869 -4.224623,3.257749 -5.995281,1.487091 z M 76.639627,18.603264 c -1.647995,-1.647995 0.222614,-4.875991 2.825615,-4.875991 1.624642,0 1.9679,0.548761 1.714816,2.741449 -0.341783,2.961171 -2.635488,4.039485 -4.540431,2.134542 z"
         id="path3408"
         inkscape:connector-curvature="0" />
      <path
         style="fill:#c7635e"
         d="m 19.508448,75.401761 c -0.842557,-1.015219 -0.306214,-2.094956 2.291149,-4.612419 3.226085,-3.126845 5.564039,-3.416836 5.564039,-0.690143 0,1.222696 -5.041815,6.628074 -6.182274,6.628074 -0.31506,0 -1.067872,-0.596481 -1.672914,-1.325512 z M 33.813414,60.646013 c -0.671678,-1.086798 4.190872,-6.91874 5.768698,-6.91874 2.027911,0 1.870755,3.276115 -0.266276,5.550881 -2.465002,2.623875 -4.425026,3.111121 -5.502422,1.367859 z M 48.523717,47.487354 c -1.798187,-1.798187 -1.406591,-3.149727 1.803763,-6.225441 2.479769,-2.37577 3.214739,-2.631319 4.5,-1.564647 2.12108,1.76034 1.924521,3.331756 -0.713844,5.706927 -3.335836,3.003064 -4.3078,3.36528 -5.589919,2.083161 z M 61.908231,31.98289 c -0.465351,-1.212685 0.187852,-2.430395 2.143011,-3.995033 5.197736,-4.159547 8.228736,-1.870251 3.734542,2.820676 -3.194894,3.334751 -4.916531,3.67874 -5.877553,1.174357 z M 76.870783,17.738837 c -0.848634,-1.373119 1.246072,-4.011564 3.184849,-4.011564 2.033335,0 1.255524,4.394324 -0.848759,4.795153 -0.91122,0.173571 -1.962461,-0.179044 -2.33609,-0.783589 z"
         id="path3406"
         inkscape:connector-curvature="0" />
      <path
         style="fill:#b12b27"
         d="m 20.185786,75.351693 c -1.513465,-1.117963 -1.347244,-1.503188 1.696571,-3.931906 1.855932,-1.480882 3.623464,-2.692514 3.92785,-2.692514 1.237844,0 0.347862,2.661882 -1.732534,5.181906 -1.865105,2.259237 -2.478466,2.486577 -3.891887,1.442514 z m 14.17785,-15.450106 c 0,-0.97137 4.316774,-5.174314 5.314451,-5.174314 1.36222,0 0.644747,2.72695 -1.143192,4.345012 -1.943439,1.758788 -4.171259,2.201709 -4.171259,0.829302 z m 14,-14.601734 c 0,-1.751153 4.897516,-5.753953 6.117537,-4.999938 1.433107,0.885709 1.014254,2.998113 -0.946278,4.77237 -2.245366,2.032029 -5.171259,2.160787 -5.171259,0.227568 z M 62.900479,31.786886 c -0.699327,-1.131535 3.300257,-5.059613 5.151718,-5.059613 1.956187,0 1.592446,1.387379 -1.003012,3.825686 -2.562847,2.40767 -3.289687,2.62385 -4.148706,1.233927 z m 14.47847,-14.809613 c 0.03455,-1.692313 1.835933,-3.459969 2.872884,-2.819098 1.85024,1.143511 1.246615,3.569098 -0.888197,3.569098 -1.1,0 -1.993109,-0.3375 -1.984687,-0.75 z"
         id="path3404"
         inkscape:connector-curvature="0" />
    </g>
  </g>
</svg>
