<?xml version="1.0" encoding="UTF-8" standalone="no"?>
<!-- Created with Inkscape (http://www.inkscape.org/) -->

<svg
   xmlns:dc="http://purl.org/dc/elements/1.1/"
   xmlns:cc="http://creativecommons.org/ns#"
   xmlns:rdf="http://www.w3.org/1999/02/22-rdf-syntax-ns#"
   xmlns:svg="http://www.w3.org/2000/svg"
   xmlns="http://www.w3.org/2000/svg"
   xmlns:sodipodi="http://sodipodi.sourceforge.net/DTD/sodipodi-0.dtd"
   xmlns:inkscape="http://www.inkscape.org/namespaces/inkscape"
   width="64px"
   height="64px"
   id="svg2985"
   version="1.1"
   inkscape:version="0.48.1 r9760"
   sodipodi:docname="New document 2">
  <defs
     id="defs2987" />
  <sodipodi:namedview
     id="base"
     pagecolor="#ffffff"
     bordercolor="#666666"
     borderopacity="1.0"
     inkscape:pageopacity="0.0"
     inkscape:pageshadow="2"
     inkscape:zoom="5.5"
     inkscape:cx="32"
     inkscape:cy="32"
     inkscape:current-layer="layer1"
     showgrid="true"
     inkscape:document-units="px"
     inkscape:grid-bbox="true"
     inkscape:window-width="1280"
     inkscape:window-height="693"
     inkscape:window-x="0"
     inkscape:window-y="0"
     inkscape:window-maximized="0" />
  <metadata
     id="metadata2990">
    <rdf:RDF>
      <cc:Work
         rdf:about="">
        <dc:format>image/svg+xml</dc:format>
        <dc:type
           rdf:resource="http://purl.org/dc/dcmitype/StillImage" />
        <dc:title></dc:title>
      </cc:Work>
    </rdf:RDF>
  </metadata>
  <g
     id="layer1"
     inkscape:label="Layer 1"
     inkscape:groupmode="layer">
    <g
       id="g3058"
       transform="translate(-24.90909,-13.272727)">
      <path
         style="fill:#f4f7ee"
         d="m 25.272728,45.454545 0,-32 32,0 32,0 0,32 0,32 -32,0 -32,0 0,-32 z"
         id="path3074"
         inkscape:connector-curvature="0" />
      <path
         style="fill:#cddfb0"
         d="M 44.13028,75.822681 C 39.248385,74.325623 30.745967,66.938749 28.661293,62.383276 25.313211,55.066975 23.923571,39.92073 26.212325,35.690976 c 0.516778,-0.955037 1.186726,-2.919643 1.488773,-4.365791 0.718289,-3.439042 8.469932,-12.011566 12.726808,-14.074548 8.514467,-4.126312 20.08128,-4.845081 29.974744,-1.862651 7.702428,2.321932 15.541546,10.898682 17.66838,19.33091 1.668266,6.614147 1.500669,16.89941 -0.380836,23.371559 -2.149714,7.394756 -9.802452,15.303494 -17.105363,17.677574 -6.335665,2.05964 -19.825427,2.087508 -26.454551,0.05465 z m 7.411506,-9.618136 c -0.297345,-2.3375 -0.929525,-5.007916 -1.404843,-5.934259 -0.475318,-0.926342 -0.864215,-3.318425 -0.864215,-5.315741 0,-4.151454 -1.035542,-6.444633 -4.453861,-9.862952 C 41.149961,41.422687 39.97606,35.75816 41.698539,30.034798 l 1.421323,-4.722698 -2.173567,1.423685 c -5.728913,3.752435 -9.197966,12.856002 -8.378046,21.985852 0.79843,8.890547 5.549055,15.321488 15.204479,20.582366 3.651999,1.989837 4.344056,1.420728 3.769058,-3.099458 z m 20.230942,0.328438 c 2.2,-1.552764 5.342687,-4.708993 6.983749,-7.013842 2.537988,-3.564569 3.040319,-5.310871 3.362402,-11.689036 0.460408,-9.117398 -1.333814,-14.52989 -6.54365,-19.739725 -4.089945,-4.089946 -4.823386,-4.136065 -3.330479,-0.209424 1.716303,4.514219 1.231719,11.507862 -1.053581,15.205555 -1.144858,1.852419 -2.422626,3.368034 -2.839485,3.368034 -1.310633,0 -3.078956,4.946548 -3.078956,8.612794 0,1.935279 -0.388305,4.276605 -0.862899,5.202947 -0.474595,0.926343 -1.163262,3.648973 -1.530372,6.05029 l -0.667472,4.366031 2.780371,-0.665209 c 1.529205,-0.365864 4.580372,-1.935651 6.780372,-3.488415 z"
         id="path3072"
         inkscape:connector-curvature="0" />
      <path
         style="fill:#b3c997"
         d="M 45.651524,75.619167 C 29.770704,70.130142 21.925703,52.545415 27.236778,34.342144 29.579632,26.312207 38.565036,17.53127 46.676847,15.344443 c 6.446975,-1.738011 21.295681,-0.675592 26.208446,1.875204 5.605619,2.910538 13.104156,11.469163 14.459948,16.504191 0.604677,2.245597 0.948229,8.653503 0.763449,14.239792 -0.306373,9.262333 -0.602967,10.588357 -3.367571,15.055834 -3.707632,5.991368 -10.909617,11.603363 -16.971476,13.224663 -6.423234,1.717953 -16.133411,1.443586 -22.118119,-0.62496 z m 8.175055,-5.251754 c 0.369536,-0.597923 0.171094,-1.587923 -0.440983,-2.2 -0.612078,-0.612078 -1.112868,-2.378974 -1.112868,-3.926437 0,-1.547463 -0.426941,-3.594963 -0.948758,-4.55 -0.521817,-0.955037 -1.22389,-3.870595 -1.560161,-6.479019 -0.451534,-3.502497 -1.49038,-5.674574 -3.972952,-8.306867 -4.915818,-5.212285 -5.573771,-14.063795 -1.417638,-19.071629 1.821112,-2.194306 0.255078,-2.841914 -2.502698,-1.034949 -5.584973,3.659414 -10.597793,13.279856 -10.597793,20.338939 0,10.016869 5.622869,19.455303 14.10988,23.684559 5.792494,2.886522 7.429903,3.186198 8.443971,1.545403 z m 14.446149,-0.993781 c 9.684207,-4.383694 14.989013,-12.8607 14.968269,-23.919087 -0.01771,-9.443267 -3.75477,-16.537878 -11.323507,-21.497105 -3.673961,-2.407272 -4.152593,-1.477924 -1.528975,2.968776 3.009011,5.099894 3.063486,11.530005 0.128811,15.204415 -4.785402,5.991641 -5.564167,7.594331 -6.026085,12.40161 -0.262339,2.730206 -0.868824,5.206184 -1.347746,5.502174 -0.478922,0.29599 -0.870767,1.996606 -0.870767,3.779147 0,1.782541 -0.50079,3.741773 -1.112868,4.353851 -1.26147,1.26147 -0.374492,3.298296 1.421885,3.26517 0.655041,-0.01208 3.215983,-0.938607 5.690983,-2.058951 z"
         id="path3070"
         inkscape:connector-curvature="0" />
      <path
         style="fill:#a4bb85"
         d="M 45.279172,75.241698 C 37.111958,72.106811 29.94435,64.368827 27.311298,55.843997 24.933341,48.145066 24.8056,44.796642 26.628823,37.954545 c 1.929184,-7.239743 3.902195,-10.561596 9.141458,-15.390979 7.360152,-6.784351 12.07624,-8.414148 22.901567,-7.914376 13.384847,0.617937 21.842366,5.628735 27.012614,16.00407 2.20387,4.422592 2.588266,6.521345 2.588266,14.13161 0,12.565477 -1.255569,16.003025 -8.519651,23.325458 -4.784704,4.823138 -7.268898,6.50091 -11.475041,7.75 -7.382364,2.192327 -16.300536,1.952443 -22.998864,-0.61863 z m 9.704851,-5.477183 c 0.362078,-0.94356 0.12737,-1.863748 -0.531385,-2.083333 -0.64895,-0.216317 -1.17991,-1.875704 -1.17991,-3.687526 0,-1.811822 -0.675,-3.854422 -1.5,-4.539111 -0.915033,-0.75941 -1.5,-2.950915 -1.5,-5.619564 0,-3.650592 -0.620688,-5.061702 -3.75,-8.525476 -3.470152,-3.841043 -3.75,-4.606176 -3.75,-10.252881 0,-4.726787 0.507107,-6.813014 2.25,-9.256449 1.2375,-1.734904 2.25,-3.43396 2.25,-3.775681 0,-1.211929 -5.835959,2.419856 -9.044765,5.628662 -9.978252,9.978252 -9.224018,28.212129 1.558586,37.67938 6.503838,5.710446 13.881289,7.861902 15.197474,4.431979 z M 69.197019,69.493169 C 80.246436,63.856177 85.8126,52.189044 83.277761,39.978789 81.494223,31.387533 72.713466,21.454545 66.902339,21.454545 l -2.074623,0 2.092143,1.465394 c 4.548764,3.186079 6.827579,12.856908 4.206219,17.850347 -0.630658,1.201343 -2.430658,3.662417 -4,5.469055 -2.195519,2.527497 -2.85335,4.286005 -2.85335,7.627556 0,2.640279 -0.588041,4.830789 -1.5,5.587648 -0.825,0.684689 -1.5,2.727289 -1.5,4.539111 0,1.811822 -0.53096,3.471209 -1.17991,3.687526 -0.658755,0.219585 -0.893463,1.139773 -0.531385,2.083333 0.869256,2.265244 4.885135,2.152153 9.635586,-0.271346 z"
         id="path3068"
         inkscape:connector-curvature="0" />
      <path
         style="fill:#91ae67"
         d="M 46.663224,75.648672 C 36.22713,71.346432 29.423681,63.580148 26.585064,52.729018 c -1.80756,-6.909723 -1.216661,-12.619414 2.042798,-19.73901 3.333821,-7.282026 7.841045,-11.97769 14.867062,-15.488632 5.092245,-2.544625 7.277777,-3.046831 13.259388,-3.046831 9.398072,0 15.359026,2.152087 21.665055,7.82175 7.482071,6.727025 9.836904,12.40412 9.82163,23.67825 -0.01495,11.035178 -1.79349,15.511547 -8.92157,22.454513 -8.624737,8.400757 -22.420625,11.459193 -32.656203,7.239614 z m 13.028644,-4.412923 c 6.949307,3.166316 20.626626,-7.085841 23.564828,-17.663573 3.078723,-11.083618 -1.242383,-23.524254 -10.343159,-29.778364 -2.672555,-1.836597 -6.037585,-3.339267 -7.477844,-3.339267 -2.595655,0 -2.586559,0.02645 1.035664,3.012197 6.86665,5.660073 7.490085,14.269316 1.512443,20.885852 -2.63111,2.912324 -3.532202,4.94386 -4.020105,9.06344 -0.345873,2.920355 -0.889741,5.570618 -1.208596,5.889473 -0.626895,0.626895 -10.573075,0.391668 -11.23034,-0.265598 -0.219611,-0.219611 -0.742385,-2.927552 -1.16172,-6.017646 C 49.76501,48.615365 48.924475,46.742859 46.464901,44.33817 41.063702,39.057498 41.200925,29.688982 46.75591,24.470345 50.335534,21.107462 49.872275,20.177259 45.522728,21.994173 36.773074,25.64912 30.85355,35.111255 30.84589,45.454545 c -0.006,8.084828 2.605983,14.235143 8.456973,19.913335 4.909838,4.764836 12.118772,7.41804 15.719865,5.7856 1.559441,-0.706922 2.99247,-0.681673 4.66914,0.08227 z m -4.41914,-4.781204 c -1.124804,-0.726904 -0.624543,-0.969374 2,-0.969374 2.624543,0 3.124804,0.24247 2,0.969374 -0.825,0.533156 -1.725,0.969374 -2,0.969374 -0.275,0 -1.175,-0.436218 -2,-0.969374 z"
         id="path3066"
         inkscape:connector-curvature="0" />
      <path
         style="fill:#76994b"
         d="M 48.278116,75.847663 C 34.621308,70.8839 26.039203,59.146511 26.055374,45.454545 c 0.01414,-11.970457 7.349987,-22.874579 18.945397,-28.160737 15.14374,-6.903784 32.115661,-0.990664 40.087951,13.966885 2.853779,5.354238 3.184006,6.847308 3.184006,14.396 0,9.761611 -1.768348,14.421482 -8.065015,21.252558 -8.251074,8.95136 -21.607115,12.690266 -31.929597,8.938412 z M 67.893045,70.96872 C 82.062734,65.048246 88.482475,48.868776 82.297008,34.66687 78.571225,26.11243 68.572326,18.69443 62.040081,19.638628 c -2.001636,0.289325 -1.788028,0.601769 1.822718,2.66608 5.278791,3.017956 7.409929,6.720629 7.409929,12.87413 0,4.202078 -0.524719,5.528726 -3.61442,9.138346 -2.776595,3.243828 -3.761747,5.429706 -4.25,9.429999 l -0.63558,5.207362 -5.5,0 -5.5,0 -0.641885,-5.259129 c -0.503775,-4.127561 -1.418216,-6.118434 -4.25,-9.252881 -3.181409,-3.521439 -3.607336,-4.614291 -3.601526,-9.240871 0.0079,-6.271696 2.208282,-10.116004 7.689394,-13.434063 3.542571,-2.14454 3.628507,-2.303161 1.250361,-2.307933 -3.865795,-0.0078 -12.691691,4.794453 -15.444303,8.403313 -1.343119,1.760921 -3.410515,5.391083 -4.594213,8.067028 -2.685502,6.071025 -2.298988,15.88707 0.86992,22.09275 2.387835,4.676102 8.987806,10.98812 13.577593,12.985211 4.248173,1.848448 16.802537,1.825276 21.264976,-0.03925 z"
         id="path3064"
         inkscape:connector-curvature="0" />
      <path
         style="fill:#5a8620"
         d="m 51.022728,76.795815 c -1.5125,-0.260763 -2.75,-0.803825 -2.75,-1.206804 0,-0.402979 -1.679207,-1.339898 -3.731571,-2.082043 C 39.471786,71.67386 30.65979,62.478481 29.153024,57.449347 28.494745,55.252206 27.577382,53.454545 27.11444,53.454545 c -0.462941,0 -0.841712,-3.375 -0.841712,-7.5 0,-4.125 0.378771,-7.5 0.841712,-7.5 0.462942,0 1.368164,-1.757139 2.011605,-3.904754 1.590848,-5.309777 9.155289,-13.467261 14.918755,-16.088368 2.60036,-1.182591 5.509322,-2.567926 6.464359,-3.078522 0.955037,-0.510596 4.181701,-0.928356 7.170363,-0.928356 7.196127,0 18.185756,5.427708 22.995405,11.357285 5.803695,7.155087 7.597801,12.073905 7.597801,20.830544 0,4.296694 -0.401216,7.812171 -0.891592,7.812171 -0.490376,0 -1.179991,1.149072 -1.532478,2.553493 -1.48428,5.913844 -10.458202,15.093061 -16.57593,16.955136 -1.375,0.418513 -2.774394,1.187232 -3.109765,1.708264 -0.692651,1.076102 -10.986245,1.840548 -15.140235,1.124377 z m 16.415723,-4.882071 c 5.803464,-1.977438 12.439894,-8.49486 15.600453,-15.320695 2.121956,-4.582772 2.414805,-6.398321 2.016262,-12.5 C 84.762622,39.614217 83.817487,35.46422 82.518443,32.954545 74.007714,16.512324 50.95379,12.84015 37.940111,25.853828 23.955553,39.838387 27.921537,62.746555 45.772728,71.096299 c 5.980032,2.79711 14.871199,3.132573 21.665723,0.817445 z M 51.745073,53.204545 c -0.537416,-3.944244 -1.549304,-6.176412 -4.068458,-8.974789 -4.108961,-4.564398 -5.010148,-7.808325 -3.536052,-12.728421 1.462026,-4.879806 5.417633,-8.777298 10.220826,-10.070664 8.69367,-2.340962 18.138842,6.667185 16.446916,15.685923 -0.356724,1.901504 -2.170983,5.142388 -4.031686,7.201965 -2.553752,2.826697 -3.552057,5.018366 -4.072325,8.940335 l -0.689227,5.195651 -4.777332,0 -4.777331,0 -0.715331,-5.25 z"
         id="path3062"
         inkscape:connector-curvature="0" />
      <path
         style="fill:#4e7c0e"
         d="m 53.271869,76.298165 c 4.72e-4,-0.36101 -1.011641,-0.434474 -2.249141,-0.163254 -1.678635,0.367903 -1.895716,0.242877 -0.854853,-0.492342 1.144132,-0.808164 1.07028,-1.048672 -0.410471,-1.336747 -0.993091,-0.193202 2.237132,-0.352174 7.178274,-0.35327 7.431259,-0.0016 8.756264,0.225636 7.66678,1.31512 -1.332632,1.332632 -11.332175,2.242069 -11.330589,1.030493 z m 24.500859,-9.84362 c 0.995486,-1.1 2.034975,-2 2.309975,-2 0.275,0 -0.314489,0.9 -1.309975,2 -0.995486,1.1 -2.034975,2 -2.309975,2 -0.275,0 0.314489,-0.9 1.309975,-2 z m -42.5,-0.5 c -0.694433,-0.83674 -0.802716,-1.5 -0.244889,-1.5 0.55,0 1.5602,0.675 2.244889,1.5 0.694433,0.83674 0.802716,1.5 0.244889,1.5 -0.55,0 -1.5602,-0.675 -2.244889,-1.5 z m -4.541119,-6.566531 c -0.362533,-0.586592 -0.444683,-1.281 -0.182555,-1.543128 0.262128,-0.262129 0.743066,0.21781 1.068751,1.066531 0.676184,1.762107 0.09985,2.072058 -0.886196,0.476597 z m 52.626717,0.06653 c -0.03024,-0.825 0.381246,-2.175 0.914402,-3 1.181322,-1.827966 1.181322,-0.249085 0,2.5 -0.566682,1.31874 -0.878155,1.489055 -0.914402,0.5 z M 52.879717,55.872758 c -0.333844,-0.869984 -0.606989,-2.692331 -0.606989,-4.04966 0,-2.881771 -2.622572,-8.368553 -4,-8.368553 -1.406013,0 -4,-5.512223 -4,-8.5 0,-3.109807 2.056271,-7.335962 4.759829,-9.782648 6.778389,-6.134358 17.86635,-2.533051 20.326111,6.601806 1.34689,5.001968 0.728689,7.372703 -2.975928,11.412357 -3.099244,3.379531 -3.531608,4.375112 -4.568006,10.518485 -0.602938,3.573982 -0.813236,3.75 -4.48033,3.75 -2.586107,0 -4.046719,-0.51864 -4.454687,-1.581787 z M 28.430623,51.454545 c 0,-1.375 0.226973,-1.9375 0.504386,-1.25 0.277412,0.6875 0.277412,1.8125 0,2.5 -0.277413,0.6875 -0.504386,0.125 -0.504386,-1.25 z m -1.978496,-6 c 0.02039,-6.163425 0.06924,-6.296352 0.943423,-2.567114 0.569663,2.430168 0.561447,4.913757 -0.0215,6.5 -0.755446,2.055616 -0.939139,1.271988 -0.921919,-3.932886 z m 60.899548,3.416667 c 0.04798,-1.164943 0.284941,-1.4019 0.604167,-0.604167 0.288871,0.721875 0.253344,1.584375 -0.07895,1.916667 -0.332292,0.332291 -0.568641,-0.258334 -0.52522,-1.3125 z m 0.116002,-8.916667 c 0.02038,-1.65 0.244498,-2.203936 0.498042,-1.230968 0.253543,0.972967 0.236869,2.322967 -0.03705,3 -0.273927,0.677032 -0.481372,-0.119032 -0.460992,-1.769032 z m -2.116002,-2.083333 c 0.04798,-1.164943 0.284941,-1.4019 0.604167,-0.604167 0.288871,0.721875 0.253344,1.584375 -0.07895,1.916667 -0.332292,0.332291 -0.568641,-0.258334 -0.52522,-1.3125 z m -1.934683,-5.166667 c -1.091201,-2.550044 -1.066517,-2.608858 0.339485,-0.80887 0.833938,1.067621 1.516251,2.305121 1.516251,2.75 0,1.519907 -0.678332,0.81036 -1.855736,-1.94113 z m -52.144264,-1.25 c 0.588702,-1.1 1.295367,-2 1.570368,-2 0.275,0 0.01833,0.9 -0.570368,2 -0.588702,1.1 -1.295368,2 -1.570368,2 -0.275,0 -0.01833,-0.9 0.570368,-2 z m 5,-6.5 c 1.291745,-1.375 2.573628,-2.5 2.848628,-2.5 0.275,0 -0.556883,1.125 -1.848628,2.5 -1.291745,1.375 -2.573628,2.5 -2.848628,2.5 -0.275,0 0.556883,-1.125 1.848628,-2.5 z m 40.412896,-0.596248 c -2.261523,-2.498956 -6.216295,-4.644161 -11.829006,-6.416462 -2.811098,-0.887649 -3.379255,-1.320366 -1.822992,-1.388421 4.065394,-0.177779 17.71726,7.756306 16.110558,9.363008 -0.302711,0.302712 -1.409063,-0.398445 -2.45856,-1.558125 z M 52.085228,14.771431 c 0.721875,-0.288871 1.584375,-0.253344 1.916667,0.07895 0.332291,0.332292 -0.258334,0.56864 -1.3125,0.525219 -1.164943,-0.04798 -1.4019,-0.28494 -0.604167,-0.604166 z"
         id="path3060"
         inkscape:connector-curvature="0" />
    </g>
  </g>
</svg>
