<?xml version="1.0" encoding="UTF-8" standalone="no"?>
<!-- Created with Inkscape (http://www.inkscape.org/) -->

<svg
   xmlns:dc="http://purl.org/dc/elements/1.1/"
   xmlns:cc="http://creativecommons.org/ns#"
   xmlns:rdf="http://www.w3.org/1999/02/22-rdf-syntax-ns#"
   xmlns:svg="http://www.w3.org/2000/svg"
   xmlns="http://www.w3.org/2000/svg"
   xmlns:sodipodi="http://sodipodi.sourceforge.net/DTD/sodipodi-0.dtd"
   xmlns:inkscape="http://www.inkscape.org/namespaces/inkscape"
   width="64px"
   height="64px"
   id="svg3050"
   version="1.1"
   inkscape:version="0.48.1 r9760"
   sodipodi:docname="drawing.svg">
  <defs
     id="defs3052" />
  <sodipodi:namedview
     id="base"
     pagecolor="#ffffff"
     bordercolor="#666666"
     borderopacity="1.0"
     inkscape:pageopacity="0.0"
     inkscape:pageshadow="2"
     inkscape:zoom="5.5"
     inkscape:cx="32"
     inkscape:cy="32"
     inkscape:current-layer="layer1"
     showgrid="true"
     inkscape:document-units="px"
     inkscape:grid-bbox="true"
     inkscape:window-width="1280"
     inkscape:window-height="693"
     inkscape:window-x="0"
     inkscape:window-y="0"
     inkscape:window-maximized="0" />
  <metadata
     id="metadata3055">
    <rdf:RDF>
      <cc:Work
         rdf:about="">
        <dc:format>image/svg+xml</dc:format>
        <dc:type
           rdf:resource="http://purl.org/dc/dcmitype/StillImage" />
        <dc:title></dc:title>
      </cc:Work>
    </rdf:RDF>
  </metadata>
  <g
     id="layer1"
     inkscape:label="Layer 1"
     inkscape:groupmode="layer">
    <g
       id="g3123"
       transform="translate(-19.090909,-13.090909)">
      <path
         style="fill:#f6f8f0"
         d="m 19.454546,45.272727 0,-32 32,0 32,0 0,32 0,32 -32,0 -32,0 0,-32 z"
         id="path3139"
         inkscape:connector-curvature="0" />
      <path
         style="fill:#cee1b0"
         d="m 40.954546,76.272727 c -0.339919,-0.55 -1.648959,-1 -2.908978,-1 -2.865875,0 -9.606345,-4.808408 -12.564944,-8.963376 -5.780151,-8.117474 -7.510008,-20.241852 -4.523788,-31.706726 4.269721,-16.392566 21.839056,-24.8621089 41.143692,-19.83389 14.618465,3.807626 21.319595,13.546394 21.343194,31.018109 0.02004,14.83715 -6.312875,25.218047 -17.987664,29.485331 -5.959222,2.178171 -23.335165,2.887741 -24.501512,1.000552 z m 15.869714,-20.25 c 0.331637,-1.2375 0.609121,-3.444924 0.616631,-4.905386 0.008,-1.546334 1.450308,-4.374949 3.45341,-6.772506 4.160156,-4.979382 4.946277,-7.200843 4.115435,-11.62961 -1.341114,-7.148754 -8.943413,-12.387342 -15.808652,-10.893419 -6.740319,1.46674 -10.729818,6.491381 -10.739949,13.526607 -0.0053,3.664 0.517204,5.05872 2.62229,7 3.134496,2.890587 5.371121,7.773295 5.371121,11.725529 0,3.775337 0.559722,4.198785 5.550035,4.198785 3.52755,0 4.315249,-0.367726 4.819679,-2.25 z"
         id="path3137"
         inkscape:connector-curvature="0" />
      <path
         style="fill:#b2c993"
         d="M 39.022174,75.210322 C 32.755048,72.83169 25.248764,65.494338 22.300135,58.864617 19.668234,52.947031 19.170008,41.472738 21.245011,34.564777 24.152486,24.885402 34.462214,15.915449 44.057809,14.716558 c 8.431011,-1.053385 18.313687,-0.04123 23.009302,2.356543 5.329948,2.721692 13.056954,11.349184 14.357119,16.030264 0.560539,2.018149 1.021672,7.968507 1.024739,13.223018 0.0048,8.279614 -0.339585,10.246305 -2.582689,14.747629 -5.15937,10.353507 -15.712341,16.27492 -28.699247,16.103531 -4.410041,-0.0582 -9.128983,-0.822572 -12.144859,-1.967221 z M 58.086718,53.038941 c 0.766298,-3.880854 2.12379,-6.863178 4.200676,-9.228619 4.223685,-4.810512 4.926378,-9.337794 2.293517,-14.776561 -3.589964,-7.415875 -11.08152,-10.201502 -18.550355,-6.897682 -5.65021,2.499357 -8.56716,6.975697 -8.572272,13.154979 -0.0031,3.80081 0.631471,5.287021 3.996262,9.358884 3.271526,3.958998 4,5.609903 4,9.065002 0,2.323447 0.320215,4.544664 0.711588,4.936038 0.391374,0.391373 2.978874,0.578873 5.75,0.416667 l 5.038412,-0.294922 1.132172,-5.733786 z"
         id="path3135"
         inkscape:connector-curvature="0" />
      <path
         style="fill:#a2b988"
         d="M 39.489058,75.07035 C 31.176448,71.879194 24.186192,64.381343 21.541829,55.819892 19.115007,47.962756 18.980427,44.641059 20.810641,37.772727 c 1.915032,-7.186633 3.89882,-10.558484 8.952768,-15.217051 7.559712,-6.968299 9.830147,-7.782949 21.691137,-7.782949 8.983071,0 11.109978,0.325943 14.722196,2.256139 6.445063,3.443933 10.881233,7.807042 13.710555,13.484752 2.220835,4.456636 2.565931,6.440928 2.55748,14.705453 -0.0121,11.83387 -2.266204,17.419183 -9.742904,24.141379 -8.737395,7.85567 -21.781706,10.098229 -33.212815,5.7099 z M 58.468035,53.674113 c 0.390338,-3.875806 1.28624,-5.978729 3.735551,-8.768339 3.762735,-4.285519 4.722357,-7.340745 3.899099,-12.413884 C 64.478759,22.484807 53.470898,17.32541 44.50063,22.366983 c -4.906577,2.75765 -7.430699,7.191102 -7.430699,13.051525 0,3.980385 0.545062,5.289413 3.619358,8.692291 2.661992,2.946508 3.804613,5.283227 4.319722,8.834062 0.3852,2.655326 0.907732,5.186638 1.161182,5.625137 0.253449,0.438499 3.008613,0.663499 6.122585,0.5 l 5.661768,-0.297271 0.513489,-5.098614 z"
         id="path3133"
         inkscape:connector-curvature="0" />
      <path
         style="fill:#94b06b"
         d="M 40.454546,75.44909 C 37.756972,74.444176 33.48468,71.369493 29.788191,67.772727 24.360218,62.491188 23.358285,60.896734 21.42087,54.457145 18.024782,43.169212 20.397827,32.749126 28.270489,24.380338 34.771062,17.470107 41.92615,14.295067 51.026407,14.282496 c 9.300653,-0.01285 15.279575,2.152052 21.574778,7.811981 7.478617,6.72392 9.831361,12.396146 9.843592,23.731906 0.0084,7.743024 -0.364283,9.80428 -2.574129,14.238863 C 72.993381,73.866122 55.027769,80.877982 40.454546,75.44909 z m 13.454993,-7.926363 c 0.453657,-1.501552 0.261144,-2.25 -0.578735,-2.25 -0.692184,0 -0.385716,-0.638208 0.68104,-1.418239 1.066757,-0.780031 1.605628,-1.752169 1.197491,-2.160305 -0.408136,-0.408137 0.09002,-1.324879 1.107005,-2.037206 1.207029,-0.845436 2.060148,-3.077358 2.456971,-6.427907 0.476077,-4.019732 1.398913,-6.008325 4.255656,-9.170398 3.481619,-3.853737 3.628449,-4.304543 3.223848,-9.898091 -0.322215,-4.454571 -1.008573,-6.486276 -2.861088,-8.469172 -7.711451,-8.254184 -20.003979,-6.996922 -25.08557,2.565716 -3.312599,6.233714 -2.381065,11.266028 3.295039,17.800398 1.978876,2.278096 2.85335,4.366935 2.85335,6.815742 0,4.680325 1.569456,7.395999 4.285184,7.414775 1.409875,0.0097 1.777109,0.293521 1.010454,0.780811 -1.388903,0.882794 -1.386635,5.115795 0.0037,6.953876 0.520039,0.6875 0.552925,1.256891 0.07308,1.265313 -0.479845,0.0084 -0.201207,0.439683 0.619196,0.958359 1.709588,1.080837 2.502249,0.457467 3.463352,-2.723672 z"
         id="path3131"
         inkscape:connector-curvature="0" />
      <path
         style="fill:#76994a"
         d="M 38.780975,73.831594 C 30.57841,69.691485 26.248179,65.25916 22.655898,57.326335 15.852305,42.301975 23.212471,24.392506 39.182589,17.11199 c 15.138326,-6.901316 32.120508,-0.981569 40.092666,13.975732 2.826401,5.30287 3.179291,6.872018 3.179291,14.136908 0,9.99381 -2.783822,16.750576 -9.422523,22.869916 -6.52385,6.013475 -11.947329,8.424653 -20.077477,8.926071 -6.484552,0.399928 -7.528229,0.165103 -14.173571,-3.189023 z m 16.513056,-5.10592 c 0.638283,-1.400879 1.174827,-3.763379 1.192318,-5.25 0.01749,-1.486621 0.692492,-3.576455 1.5,-4.644077 0.807509,-1.067621 1.468197,-3.80168 1.468197,-6.075686 0,-3.161082 0.610992,-4.705356 2.595014,-6.55887 8.390772,-7.838827 6.400896,-20.29714 -3.996083,-25.01888 -5.298508,-2.406292 -8.002651,-2.372501 -13.245498,0.165518 -5.641967,2.731229 -8.353433,7.208731 -8.353433,13.794201 0,4.482104 0.453026,5.630531 3.591459,9.104402 2.588249,2.864882 3.727962,5.170177 4.080134,8.25288 0.268771,2.352661 0.923279,5.433152 1.454463,6.845536 0.531183,1.412384 1.114367,3.662384 1.295966,5 0.73113,5.385362 1.742773,6.932029 4.534094,6.932029 1.947371,0 3.053375,-0.725414 3.883369,-2.547053 z"
         id="path3129"
         inkscape:connector-curvature="0" />
      <path
         style="fill:#528413"
         d="m 45.204546,76.613771 c -1.5125,-0.260639 -2.75,-0.8591 -2.75,-1.329914 0,-0.470814 -1.583824,-1.378735 -3.519609,-2.017602 -5.331939,-1.759698 -12.953875,-9.742661 -15.11698,-15.833022 -1.008067,-2.838278 -2.177226,-5.160506 -2.59813,-5.160506 -1.089371,0 -0.950985,-11.67979 0.163075,-13.763569 0.510596,-0.955037 1.898285,-3.868862 3.083754,-6.475167 2.673975,-5.878852 9.751692,-12.239958 16.145593,-14.510871 2.663263,-0.945907 4.842297,-2.064208 4.842297,-2.485112 0,-0.420905 2.7,-0.765281 6,-0.765281 3.3,0 6,0.356668 6,0.792595 0,0.435928 1.926042,1.307733 4.280093,1.937346 7.449217,1.992361 16.555333,10.781845 18.27699,17.641474 0.362853,1.445722 1.060949,2.628585 1.551325,2.628585 0.490376,0 0.891592,3.851558 0.891592,8.559017 0,5.451367 -0.363085,8.334618 -1,7.940983 -0.55,-0.339919 -1,0.220422 -1,1.245202 0,4.824961 -8.80739,14.820785 -15.971458,18.126583 -1.940698,0.895518 -3.778723,1.963488 -4.0845,2.373266 -0.703639,0.94296 -11.544295,1.72493 -15.194042,1.095993 z m 11.586318,-8.841044 c 0.459975,-2.2 1.472475,-6.189176 2.25,-8.864835 0.777525,-2.675659 1.413682,-6.078968 1.413682,-7.562908 0,-1.696914 1.121476,-3.772517 3.022319,-5.59364 6.311287,-6.046597 6.385972,-14.86537 0.181076,-21.381606 -10.665995,-11.201177 -28.203395,-4.423461 -28.203395,10.899826 0,3.94772 2.530631,10.003163 4.180424,10.003163 1.976633,0 3.623361,5.535409 5.497251,18.478787 0.915309,6.322245 2.960468,8.679409 7.221077,8.32271 3.319204,-0.277884 3.666747,-0.61477 4.437566,-4.301497 z"
         id="path3127"
         inkscape:connector-curvature="0" />
      <path
         style="fill:#4c7d09"
         d="m 45.174619,75.502215 c 0.786708,-0.522633 -0.456478,-1.301234 -3.5,-2.192031 C 35.300313,71.444511 26.642371,62.659489 24.204546,55.583685 20.132397,43.764248 23.081233,32.39005 32.386698,24.023637 c 5.113931,-4.597864 13.221208,-7.831907 19.15574,-7.641344 3.311721,0.106342 3.286179,0.13438 -0.868146,0.953019 -10.509381,2.070945 -16.219746,8.458617 -16.219746,18.143571 0,4.754302 0.433393,5.940169 3.465539,9.482549 3.398437,3.97031 4.505055,7.485399 6.230301,19.790082 0.870006,6.205 2.867249,8.521213 7.347741,8.521213 3.382733,0 6.811231,-1.862796 7.033385,-3.821429 0.04233,-0.373214 0.207733,-2.028571 0.367561,-3.678571 0.405266,-4.183807 2.64569,-14.765929 3.416392,-16.13653 0.351494,-0.625091 1.94446,-2.781561 3.539924,-4.792156 7.271771,-9.163846 2.71777,-22.163465 -9.400843,-26.835172 -0.875612,-0.337547 -0.338706,-0.61111 1.289838,-0.657195 6.110284,-0.17291 15.248912,6.44507 19.759575,14.309421 2.512276,4.380157 2.933162,6.16828 2.941203,12.495612 0.01393,10.956777 -1.430782,14.635533 -8.575918,21.837453 -4.642722,4.67962 -7.302899,6.523801 -10.734184,7.44153 -2.508992,0.671053 -4.380448,1.513538 -4.158789,1.872188 0.221658,0.35865 -2.617552,0.731466 -6.309355,0.828479 -3.703256,0.09732 -6.165419,-0.186968 -5.492297,-0.634142 z M 20.612441,47.272727 c 0,-1.375 0.226973,-1.9375 0.504386,-1.25 0.277412,0.6875 0.277412,1.8125 0,2.5 -0.277413,0.6875 -0.504386,0.125 -0.504386,-1.25 z M 47.267046,14.589613 c 0.721875,-0.288871 1.584375,-0.253344 1.916667,0.07895 0.332291,0.332292 -0.258334,0.56864 -1.3125,0.525219 -1.164943,-0.04798 -1.4019,-0.28494 -0.604167,-0.604166 z"
         id="path3125"
         inkscape:connector-curvature="0" />
    </g>
  </g>
</svg>
