<?xml version="1.0" encoding="UTF-8" standalone="no"?>
<!-- Created with Inkscape (http://www.inkscape.org/) -->

<svg
   xmlns:dc="http://purl.org/dc/elements/1.1/"
   xmlns:cc="http://creativecommons.org/ns#"
   xmlns:rdf="http://www.w3.org/1999/02/22-rdf-syntax-ns#"
   xmlns:svg="http://www.w3.org/2000/svg"
   xmlns="http://www.w3.org/2000/svg"
   xmlns:sodipodi="http://sodipodi.sourceforge.net/DTD/sodipodi-0.dtd"
   xmlns:inkscape="http://www.inkscape.org/namespaces/inkscape"
   width="64px"
   height="64px"
   id="svg3659"
   version="1.1"
   inkscape:version="0.48.1 r9760"
   sodipodi:docname="New document 38">
  <defs
     id="defs3661" />
  <sodipodi:namedview
     id="base"
     pagecolor="#ffffff"
     bordercolor="#666666"
     borderopacity="1.0"
     inkscape:pageopacity="0.0"
     inkscape:pageshadow="2"
     inkscape:zoom="5.5"
     inkscape:cx="32"
     inkscape:cy="32"
     inkscape:current-layer="layer1"
     showgrid="true"
     inkscape:document-units="px"
     inkscape:grid-bbox="true"
     inkscape:window-width="1280"
     inkscape:window-height="693"
     inkscape:window-x="0"
     inkscape:window-y="0"
     inkscape:window-maximized="0" />
  <metadata
     id="metadata3664">
    <rdf:RDF>
      <cc:Work
         rdf:about="">
        <dc:format>image/svg+xml</dc:format>
        <dc:type
           rdf:resource="http://purl.org/dc/dcmitype/StillImage" />
        <dc:title></dc:title>
      </cc:Work>
    </rdf:RDF>
  </metadata>
  <g
     id="layer1"
     inkscape:label="Layer 1"
     inkscape:groupmode="layer">
    <g
       id="g3732"
       transform="translate(-19.818181,-12.909091)">
      <path
         style="fill:#f8f8f8"
         d="m 20,45.090909 0,-32 32,0 32,0 0,32 0,32 -32,0 -32,0 0,-32 z"
         id="path3748"
         inkscape:connector-curvature="0" />
      <path
         style="fill:#9e9d9c"
         d="M 21.029252,75.626156 C 19.44911,73.722201 21.370356,71.040904 31.426347,61.115937 35.591856,57.004702 39,53.292202 39,52.865937 39,52.439671 36.782143,52.090909 34.071429,52.090909 28.221938,52.090909 26,50.334513 26,45.71061 26,39.3871 27.253524,38.803031 41.557171,38.461865 L 54.405286,38.155416 65.952643,26.731766 C 80.429716,12.409786 83,10.926255 83,16.892277 c 0,1.762281 -2.585822,5.10484 -9.042667,11.688989 l -9.042666,9.220955 5.148542,0.609768 c 2.831699,0.335373 5.775899,1.130428 6.542667,1.766789 1.713311,1.421922 1.85163,9.054625 0.194124,10.712131 -0.805061,0.805061 -5.305204,1.2 -13.673418,1.2 l -12.473419,0 -12.730796,12.5 c -7.001938,6.875 -13.3938,12.5 -14.204137,12.5 -0.810337,0 -2.020377,-0.659139 -2.688978,-1.464753 z"
         id="path3746"
         inkscape:connector-curvature="0" />
      <path
         style="fill:#d08378"
         d="m 21.029252,75.626156 c -1.617856,-1.949398 0.38699,-4.645041 11.47042,-15.422705 4.743976,-4.613102 8.259768,-8.749824 7.81287,-9.192716 C 39.865644,50.567842 37.025,50.067198 34,49.898193 c -5.424673,-0.303076 -5.504358,-0.35269 -5.81823,-3.622608 -0.537905,-5.603884 0.72011,-6.184676 13.396206,-6.184676 l 11.333087,0 12.353814,-12.362781 c 12.163056,-12.171885 15.857245,-15.181764 17.10364,-13.935369 2.021261,2.021262 -0.128916,5.628125 -8.829855,14.811843 -5.203736,5.492469 -9.478736,10.30135 -9.5,10.686403 -0.02126,0.385053 2.548838,0.835053 5.711338,1 l 5.75,0.299904 0.304791,4.75 0.304791,4.75 -10.086909,0 c -6.185738,0 -11.331445,0.52002 -13.304792,1.344568 -1.769834,0.739513 -8.645444,6.814513 -15.279132,13.5 -6.633688,6.685488 -12.766088,12.155432 -13.627555,12.155432 -0.861468,0 -2.113341,-0.659139 -2.781942,-1.464753 z"
         id="path3744"
         inkscape:connector-curvature="0" />
      <path
         style="fill:#977a83"
         d="M 21.617171,75.800245 C 20.136944,74.717877 21.240296,73.304096 31.022768,63.74838 43.548279,51.513206 43.802163,50.394034 34.166914,49.888334 28.550807,49.593576 28.497147,49.561185 28.18177,46.275585 27.636593,40.595937 28.814254,40.090909 42.603643,40.090909 l 12.358754,0 13.020215,-13.058143 C 79.359526,15.622711 83,12.946024 83,15.991113 c 0,0.430193 -4.711037,5.667598 -10.468972,11.638678 -5.757934,5.971079 -10.220932,11.105045 -9.917773,11.408813 0.303159,0.303768 3.326696,0.777305 6.718971,1.052305 l 6.167774,0.5 0.304791,4.75 0.304791,4.75 -10.804791,0.17105 C 59.362156,50.356037 53.825,50.533202 53,50.65566 52.175,50.778118 50.953453,50.926145 50.285451,50.98461 49.617449,51.04307 43.271126,56.926407 36.18251,64.058683 25.017553,75.292407 23.069876,76.862489 21.617171,75.800245 z"
         id="path3742"
         inkscape:connector-curvature="0" />
      <path
         style="fill:#78817a"
         d="M 21.651248,75.825162 C 20.125186,74.709279 21.132549,73.409346 30.970113,63.799815 37.501504,57.419819 42,52.236024 42,51.089638 c 0,-1.247793 -0.497243,-1.74515 -1.398849,-1.399171 -0.769368,0.295234 -1.696677,0.05489 -2.060689,-0.534089 -0.438451,-0.709428 -1.265243,-0.747946 -2.449564,-0.114116 -2.936744,1.571697 -7.550262,-0.201678 -7.849948,-3.017416 -0.461402,-4.335161 0.636918,-4.757148 13.507094,-5.189586 14.1322,-0.474841 11.565803,0.955782 27.945102,-15.577828 C 79.460271,15.398289 83,12.933374 83,15.991113 c 0,0.430193 -4.629576,5.583121 -10.287947,11.450952 -5.65837,5.86783 -10.352009,11.519236 -10.430308,12.558678 -0.127481,1.692357 0.555894,1.874232 6.537947,1.740031 L 75.5,41.590909 l 0,4 0,4 -12.649803,0.5 C 48.242511,50.668297 50.895477,49.196918 34.465366,65.833601 24.756913,75.664115 23.147351,76.91914 21.651248,75.825162 z"
         id="path3740"
         inkscape:connector-curvature="0" />
      <path
         style="fill:#7c7c7a"
         d="M 21.651248,75.825162 C 20.125186,74.709279 21.132549,73.409346 30.970113,63.799815 37.501504,57.419819 42,52.236024 42,51.089638 c 0,-1.247793 -0.497243,-1.74515 -1.398849,-1.399171 -0.769368,0.295234 -1.696677,0.05489 -2.060689,-0.534089 -0.438451,-0.709428 -1.265243,-0.747946 -2.449564,-0.114116 -0.983249,0.526219 -3.070939,0.613577 -4.639311,0.194129 C 28.661334,48.490163 28.34786,47.612308 28.9,42.090909 c 0.126632,-1.266322 13.777324,-1.331117 14.557295,-0.0691 0.316431,0.511996 0.117988,1.213553 -0.440983,1.559017 -1.351224,0.835104 -1.299637,2.510083 0.07731,2.510083 0.60149,0 1.325077,-0.885096 1.60797,-1.966881 0.524106,-2.004184 1.26175,-2.37218 7.125776,-3.55491 2.512511,-0.506754 6.492401,-3.845358 16.251414,-13.6328 C 79.371281,15.610921 83,12.949137 83,15.991113 c 0,0.430193 -4.629576,5.583121 -10.287947,11.450952 -5.65837,5.86783 -10.352009,11.519236 -10.430308,12.558678 -0.127481,1.692357 0.555894,1.874232 6.537947,1.740031 L 75.5,41.590909 l 0,4 0,4 -7.25,0.29381 c -5.996093,0.242994 -7.25,0.0268 -7.25,-1.25 0,-1.970867 -2.37906,-1.996923 -4,-0.04381 -0.684689,0.825 -2.254103,1.5 -3.487586,1.5 -3.038299,0 -6.12332,2.542349 -19.081279,15.724775 -9.68029,9.84798 -11.28351,11.103656 -12.779887,10.009478 z M 38,44.974278 c 0,-1.035853 -0.5625,-1.876478 -1.25,-1.868056 -2.250601,0.02757 -4.053373,1.751726 -3.456889,3.306139 C 34.113349,48.549868 38,47.362389 38,44.974278 z m 31.583333,1.116631 c 0.779167,0 1.416667,-0.675 1.416667,-1.5 0,-1.808192 -1.166794,-1.933206 -2.8,-0.3 -0.933333,0.933333 -1.466667,0.933333 -2.4,0 -1.668539,-1.668539 -3.8,-1.500266 -3.8,0.3 0,0.825 0.873442,1.5 1.940983,1.5 1.067541,0 2.274929,0.540336 2.683085,1.200746 0.577446,0.934328 0.830907,0.934328 1.14235,0 0.220137,-0.66041 1.037749,-1.200746 1.816915,-1.200746 z"
         id="path3738"
         inkscape:connector-curvature="0" />
      <path
         style="fill:#926e6a"
         d="m 21.617171,75.800245 c -1.480302,-1.082424 -0.38355,-2.489628 9.352942,-12.00043 7.423603,-7.251527 11.035536,-11.499191 11.047164,-12.991562 0.0095,-1.219539 1.134502,-3.277076 2.5,-4.572304 C 45.882774,44.940721 47,43.496285 47,43.026091 47,42.555896 48.889213,41.60517 51.198252,40.913365 54.4934,39.926115 58.150645,36.893374 68.199665,26.815081 79.386068,15.596091 83,12.953105 83,15.991113 c 0,0.430193 -4.629576,5.583121 -10.287947,11.450952 -5.878559,6.09617 -10.357239,11.58867 -10.44962,12.815057 -0.221907,2.945888 -6.838626,9.499026 -10.287695,10.188839 -1.889819,0.377964 -7.101564,4.868531 -15.752422,13.572671 C 25.022558,75.287371 23.069917,76.862519 21.617171,75.800245 z"
         id="path3736"
         inkscape:connector-curvature="0" />
      <path
         style="fill:#cb271e"
         d="m 21.777232,75.745635 c -1.509481,-0.9727 -0.333331,-2.521521 9.5,-12.510139 C 37.449754,56.965498 45.801359,48.630466 49.836353,44.713204 53.871348,40.795942 62.523332,32.270352 69.062986,25.76745 79.418094,15.470534 83,12.954919 83,15.979318 c 0,0.93232 -19.04082,21.22777 -27.769194,29.598952 -3.448057,3.306951 -11.998057,11.697234 -19,18.645073 C 25.398139,74.972305 23.243138,76.690257 21.777232,75.745635 z"
         id="path3734"
         inkscape:connector-curvature="0" />
    </g>
  </g>
</svg>
