<?xml version="1.0" encoding="UTF-8" standalone="no"?>
<!-- Created with Inkscape (http://www.inkscape.org/) -->

<svg
   xmlns:dc="http://purl.org/dc/elements/1.1/"
   xmlns:cc="http://creativecommons.org/ns#"
   xmlns:rdf="http://www.w3.org/1999/02/22-rdf-syntax-ns#"
   xmlns:svg="http://www.w3.org/2000/svg"
   xmlns="http://www.w3.org/2000/svg"
   xmlns:sodipodi="http://sodipodi.sourceforge.net/DTD/sodipodi-0.dtd"
   xmlns:inkscape="http://www.inkscape.org/namespaces/inkscape"
   width="64px"
   height="64px"
   id="svg3549"
   version="1.1"
   inkscape:version="0.48.1 r9760"
   sodipodi:docname="New document 32">
  <defs
     id="defs3551" />
  <sodipodi:namedview
     id="base"
     pagecolor="#ffffff"
     bordercolor="#666666"
     borderopacity="1.0"
     inkscape:pageopacity="0.0"
     inkscape:pageshadow="2"
     inkscape:zoom="5.5"
     inkscape:cx="32"
     inkscape:cy="32"
     inkscape:current-layer="layer1"
     showgrid="true"
     inkscape:document-units="px"
     inkscape:grid-bbox="true"
     inkscape:window-width="1280"
     inkscape:window-height="693"
     inkscape:window-x="0"
     inkscape:window-y="0"
     inkscape:window-maximized="0" />
  <metadata
     id="metadata3554">
    <rdf:RDF>
      <cc:Work
         rdf:about="">
        <dc:format>image/svg+xml</dc:format>
        <dc:type
           rdf:resource="http://purl.org/dc/dcmitype/StillImage" />
        <dc:title></dc:title>
      </cc:Work>
    </rdf:RDF>
  </metadata>
  <g
     id="layer1"
     inkscape:label="Layer 1"
     inkscape:groupmode="layer">
    <g
       id="g3622"
       transform="translate(-20,-12.727273)">
      <path
         style="fill:#f5f3f1"
         d="m 20.181818,44.909091 0,-32 32,0 32,0 0,32 0,32 -32,0 -32,0 0,-32 z"
         id="path3638"
         inkscape:connector-curvature="0" />
      <path
         style="fill:#f5c6b6"
         d="M 38.881111,75.232529 C 31.890041,73.094261 23.881758,64.828622 21.772949,57.574576 19.737043,50.571303 19.736894,39.247392 21.772616,32.244752 c 1.231441,-4.236007 2.824885,-6.68668 7.053833,-10.848599 6.468903,-6.36637 12.325508,-8.487062 23.438278,-8.487062 11.30869,0 17.031814,2.227286 24.082585,9.372292 5.320348,5.391457 6.708702,8.867931 7.542146,18.885728 1.443007,17.3446 -6.301588,30.51232 -20.32366,34.55523 -5.511558,1.589118 -18.746231,1.326506 -24.684687,-0.489812 z M 76.181818,45.51608 c 0,-3.083361 -0.471565,-4.573968 -1.581787,-5 -3.153121,-1.209966 -43.950267,-0.674935 -45.218213,0.593011 -1.275733,1.275733 -1.652053,7.014614 -0.533333,8.133333 0.366666,0.366667 11.166666,0.666667 24,0.666667 l 23.333333,0 0,-4.393011 z"
         id="path3636"
         inkscape:connector-curvature="0" />
      <path
         style="fill:#e3a09a"
         d="M 40.637698,75.046887 C 24.598353,69.571416 16.540299,52.243291 21.730675,34.389024 24.219327,25.828362 32.50839,17.023852 40.051896,14.928517 c 4.795439,-1.332014 19.618757,-1.289029 24.51733,0.0711 5.455894,1.514869 16.063181,12.057801 17.515748,17.409479 1.365325,5.030257 1.411832,19.825844 0.07742,24.629922 -2.068013,7.445135 -10.928714,15.736859 -19.641546,18.380291 -6.355203,1.928138 -15.60525,1.770717 -21.88315,-0.372417 z M 76.740848,48.52992 c 0.328423,-1.308544 0.449497,-3.671044 0.269052,-5.25 L 76.681818,40.409091 52.480446,40.141423 28.279073,39.873755 27.638909,43.286126 c -0.360063,1.919298 -0.147172,4.333537 0.486556,5.517668 1.096321,2.048495 1.759294,2.105297 24.572485,2.105297 l 23.445764,0 0.597134,-2.379171 z"
         id="path3634"
         inkscape:connector-curvature="0" />
      <path
         style="fill:#e1877a"
         d="M 41.514273,75.058025 C 16.626246,66.457348 12.654344,32.70728 34.803617,18.036211 c 5.315644,-3.520936 10.463842,-4.506689 20.60703,-3.945739 8.900492,0.492225 13.719513,2.667849 19.911524,8.989375 5.889353,6.012538 7.873366,11.66253 7.815754,22.257383 -0.05047,9.281429 -1.4049,13.825494 -5.759836,19.324049 C 68.948437,75.304582 54.417457,79.517042 41.514273,75.058025 z M 72.647664,51.105819 c 3.280764,-0.595252 4.113684,-1.235816 4.821667,-3.70814 0.52399,-1.829808 0.449896,-4.054859 -0.191095,-5.738588 l -1.046916,-2.75 -23.324751,0 c -16.80814,0 -23.660014,0.335263 -24.524751,1.2 -0.66,0.66 -1.2,3.149501 -1.2,5.532224 0,3.569911 0.395918,4.484316 2.25,5.196559 2.743181,1.05379 37.690392,1.270468 43.215846,0.267945 z"
         id="path3632"
         inkscape:connector-curvature="0" />
      <path
         style="fill:#d46059"
         d="M 42.212329,74.933983 C 28.369851,69.795237 19.08037,55.870038 20.475739,42.350211 21.613641,31.325 29.752614,20.165245 39.795025,15.860565 c 5.790225,-2.48198 17.088366,-2.611934 23.958654,-0.275578 6.702232,2.279205 15.473038,11.050011 17.752243,17.752243 2.606269,7.663993 2.239828,18.503658 -0.84604,25.026646 -6.73749,14.241885 -24.313886,21.816951 -38.447553,16.570107 z M 76.981818,50.709091 c 1.554321,-1.554321 1.554321,-9.045679 0,-10.6 -0.866176,-0.866176 -7.827722,-1.2 -25.024751,-1.2 l -23.824751,0 -1.041592,2.739594 c -1.21133,3.186041 -0.39619,8.891668 1.372753,9.608678 0.670088,0.271608 11.590841,0.52936 24.268341,0.572781 16.686415,0.05715 23.381293,-0.252346 24.25,-1.121053 z"
         id="path3630"
         inkscape:connector-curvature="0" />
      <path
         style="fill:#cc3029"
         d="M 47.681818,76.273991 C 42.823779,75.065283 34.367075,70.446807 30.844178,67.078418 24.876247,61.372231 20.807753,52.647931 20.738893,45.409091 20.632326,34.206267 28.135295,22.721961 39.291238,17.012226 54.176964,9.3935478 71.821486,15.88522 80.078683,32.018511 87.870179,47.241896 80.87662,65.262602 64.021594,73.393735 58.84192,75.892492 51.41224,77.202141 47.681818,76.273991 z m 28.831704,-24.61818 c 2.566066,-1.876354 3.279125,-8.165531 1.272943,-11.227353 l -1.650753,-2.519367 -23.776947,0 c -17.159848,0 -24.110906,0.333959 -24.976947,1.2 -0.66,0.66 -1.2,3.327857 -1.2,5.928571 0,7.920503 -0.16135,7.871429 25.880299,7.871429 16.643307,0 23.196822,-0.335907 24.451405,-1.25328 z"
         id="path3628"
         inkscape:connector-curvature="0" />
      <path
         style="fill:#a42e23"
         d="m 45.599497,75.187474 c 1.356429,-0.346319 0.332081,-1.037457 -3.5,-2.361484 -6.912548,-2.388363 -16.197684,-11.714421 -18.06366,-18.143273 -0.682232,-2.350494 -1.830315,-5.209938 -2.551296,-6.354319 -0.883742,-1.402725 -1.099082,-3.625888 -0.66088,-6.822916 0.357496,-2.608223 0.946521,-4.262431 1.308944,-3.676019 0.362423,0.586413 1.438518,-1.101697 2.391321,-3.751355 2.09334,-5.821381 9.295973,-13.225119 15.657892,-16.095076 6.758442,-3.048834 18.487383,-2.874134 24.890842,0.370744 5.908689,2.99416 13.692808,11.433622 15.20688,16.487146 0.616513,2.057736 0.959235,7.570856 0.761605,12.251377 -0.33079,7.834185 -0.638521,8.908766 -3.874814,13.530645 -4.659458,6.654358 -8.824393,10.026641 -15.122819,12.244709 -3.725145,1.311856 -4.653927,1.968874 -3.279373,2.319821 1.054724,0.269288 -1.907321,0.489614 -6.582321,0.489614 -4.675,0 -7.637045,-0.220326 -6.582321,-0.489614 z M 77.247559,52.873907 c 1.596354,-0.854342 1.934259,-2.129615 1.934259,-7.3 0,-3.539301 -0.522061,-6.786877 -1.2,-7.464816 -1.555057,-1.555057 -47.986935,-1.705507 -50.865742,-0.164816 -1.577275,0.844132 -1.934258,2.125574 -1.934258,6.943296 0,9.066343 -0.135582,9.02152 27.288248,9.02152 13.834075,0 23.606089,-0.408267 24.777493,-1.035184 z M 21.260765,51.325758 c 0.04798,-1.164943 0.284941,-1.4019 0.604167,-0.604167 0.288871,0.721875 0.253344,1.584375 -0.07895,1.916667 -0.332292,0.332291 -0.56864,-0.258334 -0.525219,-1.3125 z m 61.270467,-6.416667 c 0,-4.675 0.172256,-6.5875 0.382791,-4.25 0.210535,2.3375 0.210535,6.1625 0,8.5 -0.210535,2.3375 -0.382791,0.425 -0.382791,-4.25 z M 47.931818,14.176886 c 2.3375,-0.210535 6.1625,-0.210535 8.5,0 2.3375,0.210535 0.425,0.382791 -4.25,0.382791 -4.675,0 -6.5875,-0.172256 -4.25,-0.382791 z"
         id="path3626"
         inkscape:connector-curvature="0" />
      <path
         style="fill:#d51704"
         d="m 47.181818,75.127406 c 0,-0.429926 -2.1375,-1.390967 -4.75,-2.135645 C 36.039253,71.169596 25.909574,61.129756 24.068316,54.791124 23.368221,52.381006 22.179984,49.433803 21.42779,48.241785 c -1.355584,-2.148224 -0.84152,-9.332694 0.667774,-9.332694 0.380141,0 1.471818,-2.170922 2.425949,-4.824271 2.095832,-5.828314 9.294772,-13.230201 15.660305,-16.101788 6.758442,-3.048834 18.487383,-2.874134 24.890842,0.370744 5.908689,2.99416 13.692808,11.433622 15.20688,16.487146 0.616513,2.057736 0.959235,7.570856 0.761605,12.251377 -0.332632,7.877815 -0.627024,8.892349 -3.962662,13.656135 -4.561321,6.514243 -9.654711,10.573199 -15.394459,12.267945 -2.476213,0.731138 -4.502206,1.681101 -4.502206,2.111027 0,0.429927 -2.25,0.781685 -5,0.781685 -2.75,0 -5,-0.351758 -5,-0.781685 z M 77.247559,52.873907 c 1.596354,-0.854342 1.934259,-2.129615 1.934259,-7.3 0,-3.539301 -0.522061,-6.786877 -1.2,-7.464816 -1.555057,-1.555057 -47.986935,-1.705507 -50.865742,-0.164816 -1.577275,0.844132 -1.934258,2.125574 -1.934258,6.943296 0,9.066343 -0.135582,9.02152 27.288248,9.02152 13.834075,0 23.606089,-0.408267 24.777493,-1.035184 z"
         id="path3624"
         inkscape:connector-curvature="0" />
    </g>
  </g>
</svg>
