<?xml version="1.0" encoding="UTF-8" standalone="no"?>
<!-- Created with Inkscape (http://www.inkscape.org/) -->

<svg
   xmlns:dc="http://purl.org/dc/elements/1.1/"
   xmlns:cc="http://creativecommons.org/ns#"
   xmlns:rdf="http://www.w3.org/1999/02/22-rdf-syntax-ns#"
   xmlns:svg="http://www.w3.org/2000/svg"
   xmlns="http://www.w3.org/2000/svg"
   xmlns:sodipodi="http://sodipodi.sourceforge.net/DTD/sodipodi-0.dtd"
   xmlns:inkscape="http://www.inkscape.org/namespaces/inkscape"
   width="16px"
   height="16px"
   id="svg4948"
   version="1.1"
   inkscape:version="0.48.1 r9760"
   sodipodi:docname="New document 110">
  <defs
     id="defs4950" />
  <sodipodi:namedview
     id="base"
     pagecolor="#ffffff"
     bordercolor="#666666"
     borderopacity="1.0"
     inkscape:pageopacity="0.0"
     inkscape:pageshadow="2"
     inkscape:zoom="22.197802"
     inkscape:cx="8"
     inkscape:cy="8"
     inkscape:current-layer="layer1"
     showgrid="true"
     inkscape:grid-bbox="true"
     inkscape:document-units="px"
     inkscape:window-width="1280"
     inkscape:window-height="694"
     inkscape:window-x="0"
     inkscape:window-y="0"
     inkscape:window-maximized="0" />
  <metadata
     id="metadata4953">
    <rdf:RDF>
      <cc:Work
         rdf:about="">
        <dc:format>image/svg+xml</dc:format>
        <dc:type
           rdf:resource="http://purl.org/dc/dcmitype/StillImage" />
        <dc:title></dc:title>
      </cc:Work>
    </rdf:RDF>
  </metadata>
  <g
     id="layer1"
     inkscape:label="Layer 1"
     inkscape:groupmode="layer">
    <g
       id="g5021"
       transform="translate(-5.1806934,-2.5678218)">
      <path
         style="fill:#fafaf9"
         d="m 3.5193071,11.314851 0,-9.4999996 9.4999999,0 9.5,0 0,9.4999996 0,9.5 -9.5,0 -9.4999999,0 0,-9.5 z"
         id="path5037"
         inkscape:connector-curvature="0" />
      <path
         style="fill:#efd2d0"
         d="M 4.7693071,13.31902 C 3.1763972,11.509785 3.1990739,10.992228 4.9478785,9.2434228 5.9140219,8.2772794 8.6436554,7.8148514 13.380491,7.8148514 c 5.948869,0 7.092935,0.2800803 7.594103,1.8591226 1.311264,4.131426 -0.237689,5.143175 -7.812276,5.10284 C 8.2856764,14.750845 5.622701,14.288309 4.7693071,13.31902 z"
         id="path5035"
         inkscape:connector-curvature="0" />
      <path
         style="fill:#e59594"
         d="M 5.8727927,12.293636 C 4.8335587,9.5854363 6.9298408,8.69792 13.620877,9.0132813 c 5.63124,0.265411 6.39843,0.5413758 6.39843,2.3015697 0,1.773695 -0.765334,2.033494 -6.763732,2.296003 -5.4823962,0.239927 -6.8810058,-0.0096 -7.3827823,-1.317218 z"
         id="path5033"
         inkscape:connector-curvature="0" />
      <path
         style="fill:#d39691"
         d="M 6.2438784,13.206089 C 5.8453642,12.807575 5.5193071,11.881518 5.5193071,11.148185 c 0,-0.992593 1.9166667,-1.3333336 7.4999999,-1.3333336 6,0 7.5,0.2999996 7.5,1.4999996 0,1.120891 -1.200513,1.503451 -4.75,1.513655 -2.6125,0.0075 -5.661443,0.258567 -6.7754286,0.557904 -1.1139858,0.299338 -2.3514858,0.218193 -2.75,-0.180321 z"
         id="path5031"
         inkscape:connector-curvature="0" />
      <path
         style="fill:#d1867e"
         d="m 6.0419678,11.851517 c -0.3571837,-0.577935 -0.00802,-1.296923 0.7759288,-1.597751 2.3002232,-0.8826782 12.7024014,-0.0312 12.9629114,1.061085 0.326708,1.36985 -12.9044816,1.886686 -13.7388402,0.536666 z"
         id="path5029"
         inkscape:connector-curvature="0" />
      <path
         style="fill:#d15958"
         d="m 6.7653428,11.564851 c 0.2555383,-0.773978 2.7625831,-1.363375 6.5833332,-1.547717 5.031132,-0.2427394 6.170631,-0.01191 6.170631,1.25 0,1.240225 -1.307939,1.547717 -6.583333,1.547717 -4.8201081,0 -6.4727988,-0.33479 -6.1706312,-1.25 z"
         id="path5027"
         inkscape:connector-curvature="0" />
      <path
         style="fill:#bf5c5b"
         d="m 6.8045092,11.457129 c 0.4093553,-1.225044 12.7167318,-1.362784 12.7127768,-0.142278 -0.0018,0.56374 -2.838091,1 -6.501314,1 -3.5739417,0 -6.3690998,-0.385975 -6.2114628,-0.857722 z"
         id="path5025"
         inkscape:connector-curvature="0" />
      <path
         style="fill:#d1393a"
         d="m 10.287216,11.09012 c 1.79735,-0.222561 4.49735,-0.217969 6,0.0102 1.50265,0.228174 0.03209,0.41027 -3.267909,0.404657 -3.2999999,-0.0056 -4.5294408,-0.1923 -2.732091,-0.414862 z"
         id="path5023"
         inkscape:connector-curvature="0" />
    </g>
  </g>
</svg>
