<?xml version="1.0" encoding="UTF-8" standalone="no" ?>
<!-- Created with Inkscape (http://www.inkscape.org/) -->

<svg
   xmlns:dc="http://purl.org/dc/elements/1.1/"
   xmlns:cc="http://creativecommons.org/ns#"
   xmlns:rdf="http://www.w3.org/1999/02/22-rdf-syntax-ns#"
   xmlns:svg="http://www.w3.org/2000/svg"
   xmlns="http://www.w3.org/2000/svg"
   xmlns:sodipodi="http://sodipodi.sourceforge.net/DTD/sodipodi-0.dtd"
   xmlns:inkscape="http://www.inkscape.org/namespaces/inkscape"
   width="64px"
   height="64px"
   id="svg4291"
   version="1.1"
   inkscape:version="0.48.1 r9760"
   sodipodi:docname="New document 73">
  <defs
     id="defs4293" />
  <sodipodi:namedview
     id="base"
     pagecolor="#ffffff"
     bordercolor="#666666"
     borderopacity="1.0"
     inkscape:pageopacity="0.0"
     inkscape:pageshadow="2"
     inkscape:zoom="5.5"
     inkscape:cx="32"
     inkscape:cy="32"
     inkscape:current-layer="layer1"
     showgrid="true"
     inkscape:document-units="px"
     inkscape:grid-bbox="true"
     inkscape:window-width="1280"
     inkscape:window-height="693"
     inkscape:window-x="0"
     inkscape:window-y="0"
     inkscape:window-maximized="0" />
  <metadata
     id="metadata4296">
    <rdf:RDF>
      <cc:Work
         rdf:about="">
        <dc:format>image/svg+xml</dc:format>
        <dc:type
           rdf:resource="http://purl.org/dc/dcmitype/StillImage" />
        <dc:title></dc:title>
      </cc:Work>
    </rdf:RDF>
  </metadata>
  <g
     id="layer1"
     inkscape:label="Layer 1"
     inkscape:groupmode="layer">
    <g
       id="g4364"
       transform="translate(-20,-12)">
      <path
         style="fill:#cce0af"
         d="M 40.631625,74.66236 C 34.118536,73.063373 27.38187,67.386137 23.881396,60.546327 21.092245,55.096419 20.869093,53.886506 20.935665,44.574862 c 0.08517,-11.913332 0.729428,-14.684709 4.716302,-20.287986 5.74986,-8.081035 14.862351,-12.265227 26.711669,-12.265227 19.863538,0 31.9642,11.912849 31.974622,31.478351 0.01122,21.061553 -11.881372,32.813091 -32.738973,32.350667 -3.704607,-0.08213 -8.640054,-0.616871 -10.96766,-1.188307 z M 55.863636,66 c 0,-0.961362 -1.167048,-1.612524 -3.25,-1.813358 -3.133573,-0.302133 -4.417152,1.312873 -2.537424,3.192601 1.265686,1.265686 5.787424,0.188078 5.787424,-1.379243 z m 0.314706,-15.492758 c 0.361509,-5.735289 1.583735,-7.398678 8.871686,-12.073929 2.852516,-1.829901 5.667086,-4.225275 6.2546,-5.323055 3.036383,-5.673534 -7.477938,-12.646939 -18.940992,-12.562218 -9.370225,0.06925 -20.207531,5.862802 -18.634557,9.961906 1.154936,3.009716 3.602267,2.751951 7.525711,-0.792645 4.527547,-4.090367 9.964363,-5.371839 15.951221,-3.759745 4.057879,1.092673 7.157625,3.322808 7.157625,5.149606 0,1.352574 -3.636526,4.500249 -9.49731,8.220605 -4.261938,2.705428 -5.129837,3.801705 -5.897915,7.449886 -1.242474,5.901444 0.397725,9.470339 4.153679,9.037954 2.530331,-0.291292 2.765792,-0.70026 3.056252,-5.308365 z"
         id="path4378"
         inkscape:connector-curvature="0" />
      <path
         style="fill:#b2c893"
         d="M 42.191358,74.593262 C 36.46301,72.942551 32.718789,70.346435 27.475587,64.389843 22.248287,58.451316 19.949923,50.876425 20.68209,42 c 0.874348,-10.600158 2.278999,-13.782638 9.088953,-20.592593 7.316483,-7.316482 10.292579,-8.398023 23.092593,-8.392061 7.390672,0.0034 9.894071,0.428106 14,2.374891 C 72.944323,18.273332 78.558668,23.96025 81.28696,30 c 2.384533,5.278755 2.857069,19.605535 0.870215,26.38398 -1.618402,5.521418 -11.921716,15.970505 -17.350696,17.596177 -6.090407,1.823732 -17.354269,2.1291 -22.615121,0.613105 z m 14.116081,-7.488257 c 0.746724,-1.395266 0.640094,-2.20545 -0.404345,-3.072257 -2.131628,-1.769095 -6.954838,-0.8884 -7.3793,1.347425 -0.691294,3.641331 5.968184,5.117052 7.783645,1.724832 z M 56.163636,55.8 c 0.66,-0.66 1.2,-3.325774 1.2,-5.923942 0,-5.094835 -0.297631,-4.731775 10,-12.198302 C 74.94397,32.181467 74.040746,26.94614 64.725916,22.388818 60.433531,20.28875 57.610192,19.625 52.969686,19.625 c -10.301419,0 -21.921596,6.783166 -20.036354,11.696028 1.245987,3.246991 4.337635,2.995417 8.410755,-0.684402 5.817286,-5.255568 14.777811,-6.082211 20.009381,-1.845943 2.914748,2.36022 1.843289,4.542656 -3.830819,7.802929 -8.323613,4.782644 -9.159013,5.968144 -9.159013,12.997369 0,4.058209 0.437364,6.418832 1.25,6.746738 2.293425,0.925417 5.3367,0.675581 6.55,-0.537719 z"
         id="path4376"
         inkscape:connector-curvature="0" />
      <path
         style="fill:#90ad66"
         d="M 43.649675,74.609697 C 32.913273,71.100301 26.286342,64.727123 22.269144,54.047851 16.706634,39.26054 24.383575,21.883416 39.511582,15.018761 c 6.565191,-2.979095 19.647544,-2.792898 26.454226,0.376514 6.496522,3.02499 11.977563,8.506031 15.002553,15.002553 3.388273,7.27671 3.388273,19.927634 0,27.204344 -6.323371,13.58018 -23.64849,21.475886 -37.318686,17.007525 z m 11.779702,-5.644881 c 4.343754,-2.324706 0.524409,-7.831718 -4.548581,-6.558479 -3.081623,0.773438 -3.960311,3.446505 -1.886283,5.738281 1.901001,2.100582 3.630533,2.321031 6.434864,0.820198 z m 0,-12 c 1.455152,-0.778773 1.934259,-2.107695 1.934259,-5.365141 0,-5.220416 2.20658,-8.358617 8.449883,-12.017437 7.919695,-4.64125 9.553977,-9.333222 4.800117,-13.780985 -9.104058,-8.517855 -24.393601,-9.005717 -35,-1.116787 C 30.474801,28.506679 31.336101,34 37.074223,34 c 0.850856,0 3.290348,-1.575 5.421093,-3.5 3.429096,-3.097983 4.500088,-3.5 9.324148,-3.5 11.66266,0 13.700674,4.227405 4.607318,9.55685 -7.492055,4.390951 -9.063146,6.596857 -9.063146,12.725193 0,7.303759 3.156321,10.310215 8.065741,7.682773 z"
         id="path4374"
         inkscape:connector-curvature="0" />
      <path
         style="fill:#77994a"
         d="M 46.863636,75.396226 C 42.069246,74.225676 32.1849,68.560461 29.397004,65.385223 c -5.80183,-6.60792 -8.446818,-13.139546 -8.492256,-20.971076 -0.03528,-6.080822 0.4309,-8.026074 3.28675,-13.714772 C 30.03787,19.053723 39.719957,13 52.499182,13 c 17.551253,0 30.864454,13.371668 30.864454,31 0,12.404328 -6.035671,22.229198 -17.150766,27.918025 -6.006414,3.07415 -14.644354,4.626898 -19.349234,3.478201 z m 9.97852,-7.017604 c 2.224859,-2.224858 1.536286,-4.604933 -1.794026,-6.20111 -2.399705,-1.150148 -3.134114,-1.11293 -5.237771,0.26544 C 45.53445,65.244634 47.222037,70 52.492207,70 c 1.500715,0 3.458192,-0.72962 4.349949,-1.621378 z M 57.163636,56.8 c 0.66,-0.66 1.2,-3.313384 1.2,-5.896408 0,-5.06141 1.385027,-6.73631 10.789833,-13.048046 7.150155,-4.798599 6.253094,-10.661424 -2.38385,-15.579871 -9.586543,-5.459212 -20.411573,-5.194715 -29.74896,0.72688 -5.378626,3.411024 -6.857463,7.013492 -4.120557,10.03774 2.604895,2.878376 5.64275,2.401754 9.40007,-1.474817 3.897791,-4.021499 8.886957,-5.228639 14.908619,-3.607173 7.132157,1.92049 6.580407,3.91751 -2.497902,9.040991 -3.891883,2.196443 -5.906019,4.093771 -6.918699,6.517456 C 44.596296,51.165602 46.921807,58 52.72034,58 c 1.783813,0 3.783296,-0.54 4.443296,-1.2 z"
         id="path4372"
         inkscape:connector-curvature="0" />
      <path
         style="fill:#678d31"
         d="M 47.863636,75.342843 C 42.889229,74.141723 33.08467,68.43362 29.854349,64.858041 24.454211,58.880733 20.863636,50.550765 20.863636,44 c 0,-4.237199 0.770493,-7.045031 3.355804,-12.229225 8.299568,-16.642707 25.738809,-23.3936718 40.685218,-15.749796 7.622994,3.898544 11.677341,7.901216 15.430002,15.233338 7.677801,15.001241 0.642454,33.138426 -15.961288,41.148335 -5.04907,2.435752 -12.847294,3.824524 -16.509736,2.940191 z m 8.334586,-5.939536 c 5.555694,-3.891359 -0.625654,-10.714814 -6.645584,-7.335915 -3.425329,1.922588 -3.852395,4.269215 -1.250486,6.871124 2.474503,2.474503 4.828939,2.613093 7.89607,0.464791 z m 0.772972,-12.919956 c 1.77094,-1.77094 2.323337,-3.125721 1.864251,-4.572172 -1.316636,-4.148354 0.425626,-6.801104 7.548975,-11.493988 7.222655,-4.758307 8.760709,-7.167339 7.579858,-11.872223 C 72.671913,23.395773 61.883728,18 52.880912,18 43.439661,18 33.136428,23.263925 31.085667,29.135198 30.117329,31.907522 33.10676,35 36.755042,35 c 2.376158,0 4.007991,-0.819292 5.931367,-2.977954 3.140628,-3.524819 6.177984,-4.451137 12.323704,-3.758426 8.371962,0.943642 8.106518,3.56892 -0.853963,8.445825 -5.982754,3.256222 -7.792514,6.434286 -7.792514,13.684191 0,4.542647 0.384505,5.762274 2.222506,7.04966 3.148588,2.205357 5.487518,1.937589 8.385052,-0.959945 z"
         id="path4370"
         inkscape:connector-curvature="0" />
      <path
         style="fill:#4b8107"
         d="m 48.863636,74.891905 c -2.2,-0.334452 -3.55,-0.682633 -3,-0.773735 0.55,-0.0911 -1.659585,-1.259022 -4.910188,-2.595377 C 33.534421,68.472758 28.039187,63.16854 25.198927,56.315903 23.987102,53.392156 22.679509,51 22.293166,51 c -1.228642,0 -1.9707,-8.382198 -1.018071,-11.5 0.504149,-1.65 0.965995,-2.55 1.026324,-2 0.06033,0.55 1.201242,-1.65509 2.535364,-4.900199 2.978954,-7.245988 7.454976,-12.100352 14.026853,-15.212492 7.3807,-3.495162 20.051993,-3.411517 27.259109,0.17994 10.442114,5.203525 15.18548,13.458687 15.218929,26.486407 0.01831,7.13256 -0.390716,9.381792 -2.461972,13.538261 -3.314213,6.650759 -8.021444,11.02389 -14.856149,13.801722 -3.102265,1.260855 -5.396781,2.536164 -5.098925,2.83402 0.883193,0.883192 -5.743077,1.320672 -10.060992,0.664246 z m 9.015593,-5.909135 c 2.183088,-2.412286 1.53432,-6.24151 -1.265593,-7.469898 -2.884071,-1.265311 -2.834519,-1.925517 0.25,-3.330918 2.186942,-0.996438 2.5,-1.772352 2.5,-6.196249 0,-5.656119 0.838294,-6.750318 9.5,-12.400059 6.26828,-4.088589 8.080563,-8.991689 4.898724,-13.253416 -3.192344,-4.275798 -11.622819,-8.451529 -18.282086,-9.05537 -14.734663,-1.336092 -30.007313,9.661524 -23.46165,16.894399 2.643723,2.921282 6.839145,2.280556 11.268271,-1.720894 3.741584,-3.380296 4.230706,-3.53534 10.252881,-3.25 8.064076,0.382089 8.272763,2.015223 0.82386,6.447326 -6.964936,4.144142 -8.987953,7.326134 -8.994735,14.147764 -0.0044,4.376429 0.446947,5.747666 2.600397,7.901116 2.264441,2.264441 2.397,2.722435 1.012263,3.497373 -2.270389,1.270574 -3.720746,4.374534 -2.964678,6.344815 0.79397,2.069053 5.98567,4.368427 8.423784,3.730846 0.986392,-0.257947 2.533744,-1.287023 3.438562,-2.286835 z M 82.615819,45.5 c 0.0111,-2.2 0.215885,-2.982253 0.455078,-1.738341 0.239193,1.243913 0.230112,3.043913 -0.02018,4 C 82.800424,48.717747 82.60472,47.7 82.615819,45.5 z M 52.113636,13.294267 c 1.2375,-0.238353 3.2625,-0.238353 4.5,0 1.2375,0.238353 0.225,0.433369 -2.25,0.433369 -2.475,0 -3.4875,-0.195016 -2.25,-0.433369 z"
         id="path4368"
         inkscape:connector-curvature="0" />
      <path
         style="fill:#4b7d08"
         d="m 47.863636,74 c 1.65,-0.419854 2.4375,-0.816612 1.75,-0.881685 -0.6875,-0.06507 -1.25,-0.519093 -1.25,-1.008934 0,-0.48984 2.8125,-0.937811 6.25,-0.99549 4.403464,-0.07389 7.579506,-0.786927 10.75,-2.413436 C 70.685444,65.97029 75.855726,61.301101 76.658791,58.5 c 0.315367,-1.1 1.229762,-3.78147 2.03199,-5.958822 1.603581,-4.352332 1.225905,-17.489226 -0.603863,-21.004458 -0.864762,-1.661326 -1.268122,-0.969222 -2.62261,4.5 -0.880369,3.554804 -1.263172,6.61328 -0.850672,6.796613 1.166872,0.51861 0.856651,6.208416 -0.605043,11.097191 l -1.324682,4.430524 -0.649132,-3.930524 c -0.357022,-2.161788 -0.654084,-6.005622 -0.660137,-8.541852 -0.01069,-4.477111 -0.09105,-4.597495 -2.761006,-4.136062 -2.549329,0.440586 -2.448366,0.247972 1.383608,-2.639586 6.449287,-4.859818 7.341634,-11.256902 2.116392,-15.17206 -8.571125,-6.422153 -18.734115,-8.390259 -28.105198,-5.442692 -6.29278,1.979322 -13.644802,7.679796 -13.644802,10.579651 0,2.09204 -1.937486,2.712441 -2.098869,0.672077 -0.05438,-0.6875 -0.693684,0.637891 -1.420681,2.945314 C 25.272284,37.684072 25.90202,41 28.42125,41 c 2.160758,0 3.824951,2.205812 2.098397,2.78133 -1.700538,0.566846 -4.156011,5.660909 -4.156011,8.621957 0,6.387663 5.514977,12.889442 14.564508,17.170556 7.022173,3.32202 5.761703,4.482462 -1.483415,1.365696 C 29.05118,66.468355 23.230434,56.76631 23.258576,43.960386 23.28631,31.339712 28.31193,22.696267 38.604527,17.567249 42.936001,15.408784 45.126871,15 52.363636,15 c 7.260491,0 9.422083,0.406018 13.814381,2.594792 5.595515,2.788363 11.211868,8.830446 13.664404,14.700192 2.210202,5.289758 2.000849,19.052308 -0.369196,24.270392 C 75.33095,65.685343 65.442579,72.968343 57.172653,72.990231 55.142612,72.995604 53.203555,73.45 52.863636,74 c -0.339919,0.55 -2.278976,0.946758 -4.309017,0.881685 l -3.690983,-0.118315 3,-0.76337 z m 7.769032,0.307009 c 0.972967,-0.253543 2.322967,-0.236869 3,0.03705 0.677032,0.273927 -0.119032,0.481372 -1.769032,0.460992 -1.65,-0.02038 -2.203936,-0.244498 -1.230968,-0.498042 z M 43.20253,66.25 c -1.286392,-1.5125 -3.576394,-3.302853 -5.088894,-3.978561 -2.787457,-1.245295 -3.743808,-4.539198 -1.686987,-5.810383 1.284225,-0.793695 4.936987,2.309298 4.936987,4.193932 0,1.562955 4.573597,1.843964 5.504218,0.338188 0.342238,-0.553754 -0.350018,-2.372251 -1.538347,-4.041105 -1.921134,-2.697984 -2.08277,-3.809255 -1.458387,-10.026595 0.715749,-7.127115 1.948307,-9.400026 5.897694,-10.875695 6.021741,-2.249994 6.841956,-2.009915 2.567709,0.751575 -5.363456,3.465202 -6.972887,6.532969 -6.972887,13.291152 0,3.998295 0.500213,5.498614 2.5,7.498401 C 50.716507,60.44378 50.905854,61 49.024151,61 47.325079,61 45.230618,65.489785 45.997463,67.488151 46.87796,69.78269 45.801541,69.305838 43.20253,66.25 z m 16.161106,-0.203315 c 0,-1.932286 -0.814283,-3.56753 -2.355305,-4.729925 l -2.355304,-1.776609 2.105304,-1.044872 c 1.66034,-0.824034 2.212789,-2.246159 2.613856,-6.728626 0.488229,-5.456628 2.185645,-8.90579 3.658116,-7.43332 0.385,0.385 0.1675,1.2325 -0.483334,1.883334 -0.650833,0.650833 -1.183333,3.1954 -1.183333,5.654592 0,2.767491 -0.634245,5.172092 -1.66447,6.310479 -1.561025,1.724912 -1.524625,1.988077 0.585678,4.234391 1.860751,1.98068 2.056178,2.757608 1.129286,4.489522 -1.526317,2.85195 -2.050494,2.632369 -2.050494,-0.858966 z m 7.417642,-3.719292 c 0.332745,-2.308554 4.582358,-3.140367 4.582358,-0.896944 0,0.863253 -0.413196,1.569551 -0.918213,1.569551 -0.505016,0 -1.59531,0.259827 -2.422875,0.577393 -1.044143,0.400676 -1.424048,0.0181 -1.24127,-1.25 z M 29.854794,58.985694 C 29.297638,58.084196 31.940558,52 32.889316,52 c 0.260876,0 0.47432,1.526855 0.47432,3.393011 0,3.296203 -2.261191,5.611423 -3.508842,3.592683 z m 35.446931,-7.648533 c -1.083999,-2.851132 0.0481,-5.081765 1.974779,-3.891012 C 68.65607,48.298768 68.710336,54 67.338885,54 66.775272,54 65.85855,52.801722 65.301725,51.337161 z M 35.403837,50.548439 c -0.941973,-1.135007 -0.921531,-2.279916 0.09374,-5.25 1.628826,-4.765004 1.527242,-4.625876 2.802236,-3.837886 0.720295,0.445166 0.748865,1.259442 0.08754,2.49513 -0.714403,1.334874 -0.579003,2.168509 0.497295,3.061757 1.931488,1.602992 1.884263,3.613063 -0.1028,4.375571 -2.086151,0.800531 -1.993465,0.823705 -3.378012,-0.844572 z M 21.442583,49.416667 c 0.04798,-1.164943 0.284941,-1.4019 0.604167,-0.604167 0.288871,0.721875 0.253344,1.584375 -0.07895,1.916667 -0.332292,0.332291 -0.56864,-0.258334 -0.525219,-1.3125 z M 82.615819,45.5 c 0.0111,-2.2 0.215885,-2.982253 0.455078,-1.738341 0.239193,1.243913 0.230112,3.043913 -0.02018,4 C 82.800424,48.717747 82.60472,47.7 82.615819,45.5 z M 21.521531,39 c 0,-1.375 0.226973,-1.9375 0.504386,-1.25 0.277412,0.6875 0.277412,1.8125 0,2.5 -0.277413,0.6875 -0.504386,0.125 -0.504386,-1.25 z M 31.955593,36.5 C 31.054658,35.125 30.751346,34 31.281566,34 c 0.53022,0 1.242151,0.45 1.58207,1 1.37384,2.22292 6.511912,0.984033 10.36832,-2.5 3.329455,-3.007962 4.559954,-3.495725 8.752881,-3.469591 3.924361,0.02446 4.522276,0.23774 3.056362,1.090227 -1.00234,0.582901 -2.875856,0.795428 -4.16337,0.472282 -1.764895,-0.44296 -2.923915,0.105297 -4.710083,2.228037 C 43.604598,35.867083 38.107082,39 35.325008,39 c -0.952244,0 -2.46848,-1.125 -3.369415,-2.5 z m 25.423356,-3.035714 c 0.02734,-1.721538 1.855462,-3.926844 2.62079,-3.161516 0.409667,0.409667 -0.01586,1.505563 -0.945627,2.435325 -0.929762,0.929762 -1.683585,1.256548 -1.675163,0.726191 z M 52.113636,13.294267 c 1.2375,-0.238353 3.2625,-0.238353 4.5,0 1.2375,0.238353 0.225,0.433369 -2.25,0.433369 -2.475,0 -3.4875,-0.195016 -2.25,-0.433369 z"
         id="path4366"
         inkscape:connector-curvature="0" />
    </g>
  </g>
</svg>
