<?xml version="1.0" encoding="UTF-8" standalone="no"?>
<!-- Created with Inkscape (http://www.inkscape.org/) -->

<svg
   xmlns:dc="http://purl.org/dc/elements/1.1/"
   xmlns:cc="http://creativecommons.org/ns#"
   xmlns:rdf="http://www.w3.org/1999/02/22-rdf-syntax-ns#"
   xmlns:svg="http://www.w3.org/2000/svg"
   xmlns="http://www.w3.org/2000/svg"
   xmlns:sodipodi="http://sodipodi.sourceforge.net/DTD/sodipodi-0.dtd"
   xmlns:inkscape="http://www.inkscape.org/namespaces/inkscape"
   width="64px"
   height="64px"
   id="svg3861"
   version="1.1"
   inkscape:version="0.48.1 r9760"
   sodipodi:docname="issue.svg">
  <defs
     id="defs3863" />
  <sodipodi:namedview
     id="base"
     pagecolor="#ffffff"
     bordercolor="#666666"
     borderopacity="1.0"
     inkscape:pageopacity="0.0"
     inkscape:pageshadow="2"
     inkscape:zoom="5.5"
     inkscape:cx="32"
     inkscape:cy="32"
     inkscape:current-layer="layer1"
     showgrid="true"
     inkscape:document-units="px"
     inkscape:grid-bbox="true"
     inkscape:window-width="1280"
     inkscape:window-height="693"
     inkscape:window-x="0"
     inkscape:window-y="0"
     inkscape:window-maximized="0" />
  <metadata
     id="metadata3866">
    <rdf:RDF>
      <cc:Work
         rdf:about="">
        <dc:format>image/svg+xml</dc:format>
        <dc:type
           rdf:resource="http://purl.org/dc/dcmitype/StillImage" />
        <dc:title></dc:title>
      </cc:Work>
    </rdf:RDF>
  </metadata>
  <g
     id="layer1"
     inkscape:label="Layer 1"
     inkscape:groupmode="layer">
    <g
       id="g4036"
       transform="translate(-21.636364,-13.454545)">
      <path
         style="fill:#f9fbeb"
         d="m 41.818182,76.454545 c 0,-0.55 0.675,-1 1.5,-1 0.825,0 1.5,0.45 1.5,1 0,0.55 -0.675,1 -1.5,1 -0.825,0 -1.5,-0.45 -1.5,-1 z m 10.595766,-0.180124 c -0.415864,-0.924068 -2.120298,-2.155681 -3.787633,-2.736916 -2.628502,-0.916301 -2.943892,-1.405916 -2.372397,-3.682933 0.362515,-1.444377 0.145885,-5.098373 -0.4814,-8.119992 -0.825101,-3.974486 -0.838217,-5.796154 -0.04743,-6.586943 1.373029,-1.373029 1.435449,-7.36347 0.08542,-8.197833 -0.63445,-0.392112 -0.496625,-1.13382 0.37212,-2.002565 0.76676,-0.76676 1.16831,-2.486077 0.903797,-3.869786 -0.406427,-2.126085 -0.170289,-2.410052 1.615729,-1.942998 2.218824,0.580235 2.556442,0.05712 3.504491,-5.42991 0.478669,-2.7704 0.266432,-3.25 -1.438217,-3.25 -1.164555,0 -2.363707,0.957278 -2.87119,2.292059 -0.479291,1.260632 -2.730193,3.580176 -5.002003,5.154541 -4.019939,2.78582 -4.171703,2.811475 -5.666631,0.957941 -1.094494,-1.357046 -1.685695,-1.545206 -2.056577,-0.654541 -0.752178,1.806342 -4.306568,1.536776 -5.04305,-0.382466 -0.34454,-0.897856 -0.05198,-2.552318 0.650136,-3.676582 1.078733,-1.727327 1.012087,-2.237514 -0.430045,-3.292026 -2.468904,-1.805307 -1.540253,-4.890038 1.486993,-4.939395 1.730936,-0.02822 2.398428,-0.53505 2.205575,-1.674702 -0.401867,-2.374822 3.625821,-4.935862 5.871984,-3.733752 1.331008,0.712334 2.119866,0.497864 3.095394,-0.841554 1.094702,-1.503047 2.725099,-1.783915 9.952472,-1.714512 5.838178,0.05606 9.191421,0.537896 10.332192,1.484652 0.954532,0.792191 3.392415,1.301138 5.606696,1.170485 2.606803,-0.153813 3.956407,0.200672 4.033158,1.059342 0.06344,0.709781 0.175942,1.944021 0.25,2.742757 0.07406,0.798735 1.25965,1.722645 2.63465,2.053133 3.280529,0.78849 3.341465,4.763099 0.173157,11.294333 -1.712366,3.529917 -2.824906,4.720422 -4.205303,4.5 -2.162561,-0.345318 -2.36113,0.01185 -1.399621,2.517504 1.086605,2.831648 -1.134687,4.385112 -3.373345,2.359154 -1.796118,-1.625465 -4.194888,-2.260558 -4.194888,-1.11063 0,0.311158 0.462474,1.429882 1.02772,2.486054 0.808424,1.510554 0.595043,2.29078 -1,3.656499 -1.115246,0.954903 -2.02772,2.735663 -2.02772,3.957243 0,1.22158 -0.941244,2.880328 -2.091653,3.686106 l -2.091653,1.465051 2.091653,2.091653 c 3.409424,3.409424 2.20534,8.344335 -2.312635,9.478275 -1.503502,0.377355 -2.609713,1.489229 -2.850436,2.865028 -0.333714,1.907265 -0.5081,1.993467 -1.14951,0.568226 z m 7.050141,-41.755987 c 2.400532,-1.888259 2.412235,-1.962405 0.473471,-3 -3.182819,-1.703393 -4.119378,-1.263209 -4.119378,1.936111 0,3.527613 0.374765,3.636971 3.645907,1.063889 z m 0.02076,41.269444 c -1.016508,-1.016507 -0.795083,-2.333333 0.39235,-2.333333 0.582459,0 0.804656,0.411565 0.493769,0.91459 -0.310886,0.503024 5.7e-5,1.142498 0.690983,1.421052 0.694688,0.280071 0.771974,0.541753 0.172898,0.585411 -0.595834,0.04342 -1.383334,-0.221053 -1.75,-0.58772 z M 37.818182,71.513562 c 0,-0.517541 0.45,-1.219098 1,-1.559017 0.55,-0.339919 1,0.08352 1,0.940983 0,0.857459 -0.45,1.559017 -1,1.559017 -0.55,0 -1,-0.423442 -1,-0.940983 z m 24.380002,-2.51113 c -0.306475,-0.798662 -0.265794,-1.923662 0.0904,-2.5 1.164716,-1.884547 2.529598,-1.101037 2.529598,1.452113 0,2.710883 -1.718148,3.398069 -2.619998,1.047887 z M 38.818182,60.395528 c 0,-0.582459 0.45,-0.780902 1,-0.440983 0.55,0.339919 1,0.816476 1,1.059017 0,0.242541 -0.45,0.440983 -1,0.440983 -0.55,0 -1,-0.476558 -1,-1.059017 z m 26.979785,-0.978756 c -1.138385,-2.12709 -0.479114,-5.962227 1.024923,-5.962227 0.478463,0 0.845091,1.8 0.814728,4 -0.06284,4.553159 -0.311232,4.818104 -1.839651,1.962227 z M 39.328263,51.470857 c -0.345463,-0.558972 -0.287447,-1.567525 0.128926,-2.241229 0.416372,-0.673705 0.780429,-2.35294 0.809017,-3.731633 0.03242,-1.563512 0.71045,-2.635285 1.801976,-2.848407 2.091378,-0.408346 2.229333,1.588338 0.28688,4.152156 -0.769732,1.01596 -1.174742,2.432942 -0.900023,3.14885 0.612996,1.59744 -1.254187,2.932141 -2.126776,1.520263 z M 77.14108,44.85362 c -0.70746,-1.84361 1.710961,-3.765216 3.051525,-2.424652 1.091495,1.091495 0.08973,4.025577 -1.374423,4.025577 -0.584523,0 -1.339219,-0.720416 -1.677102,-1.600925 z M 21.818182,41.454545 c 0,-1.288889 0.50641,-1.997863 1.25,-1.75 0.6875,0.229167 1.25,1.016667 1.25,1.75 0,0.733333 -0.5625,1.520833 -1.25,1.75 -0.74359,0.247863 -1.25,-0.461111 -1.25,-1.75 z M 83.93358,40.67248 c -1.505585,-3.568844 -1.283104,-4.557651 0.743638,-3.305055 0.729775,0.451025 1.156174,2.073834 0.97104,3.695627 L 85.318182,43.954545 83.93358,40.67248 z M 21.818182,33.3321 c 0,-1.766259 0.24988,-1.915063 1.488989,-0.886693 1.504995,1.249034 1.184455,3.009138 -0.548006,3.009138 -0.517541,0 -0.940983,-0.9551 -0.940983,-2.122445 z m 0.06339,-6.827555 c -0.04351,-2.368039 0.259786,-3.126828 0.967098,-2.419516 0.682356,0.682356 0.70377,1.847867 0.06339,3.45 -0.90871,2.273441 -0.970924,2.211227 -1.030484,-1.030484 z m 62.558551,1.124639 c -0.442502,-1.278948 -0.538462,-2.591448 -0.213243,-2.916666 1.036609,-1.03661 1.765247,0.491911 1.385352,2.906163 l -0.36756,2.335864 -0.804549,-2.325361 z M 25.988852,19.806842 c 0.193763,-1.006132 1.175495,-1.987864 2.181627,-2.181627 1.321084,-0.254417 1.73145,0.155949 1.477033,1.477033 -0.193764,1.006132 -1.175495,1.987863 -2.181627,2.181627 -1.321084,0.254417 -1.73145,-0.155949 -1.477033,-1.477033 z m 52.174407,0.104575 c -0.325685,-0.84872 -0.330969,-1.804313 -0.01174,-2.123539 1.009048,-1.009047 3.666667,0.538616 3.666667,2.135282 0,1.996049 -2.888022,1.98677 -3.654923,-0.01174 z M 38.160005,15.902938 c -0.433453,-1.129561 -1.376937,-1.379954 -3.468615,-0.920545 -1.646687,0.361673 -2.873208,0.210601 -2.873208,-0.353896 0,-0.572207 3.114429,-0.919794 7.432048,-0.829455 4.087626,0.08553 6.608673,0.461468 5.602327,0.835426 -1.006346,0.373957 -2.127325,1.161457 -2.491065,1.749999 -0.980885,1.587106 -3.519317,1.296178 -4.201487,-0.481529 z m 28.658177,0.168238 c 0,-1.449067 2.932218,-2.579807 6.75,-2.602976 1.2375,-0.0075 2.25,0.436345 2.25,0.986345 0,0.55 -1.098442,1 -2.440983,1 -1.342541,0 -2.719098,0.45 -3.059017,1 -0.921227,1.490577 -3.5,1.208114 -3.5,-0.383369 z m 17,-1.116631 c -1.019571,-1.228508 -0.951235,-1.5 0.377555,-1.5 0.892345,0 1.622445,0.675 1.622445,1.5 0,0.825 -0.1699,1.5 -0.377555,1.5 -0.207656,0 -0.937756,-0.675 -1.622445,-1.5 z m -62,-0.5 c 0,-0.55 0.701558,-1 1.559017,-1 0.857459,0 1.280902,0.45 0.940983,1 -0.339919,0.55 -1.041476,1 -1.559017,1 -0.517541,0 -0.940983,-0.45 -0.940983,-1 z m 35,0 c 0,-0.55 1.2375,-0.968372 2.75,-0.929715 2.436844,0.06228 2.52225,0.168153 0.75,0.929715 -2.73138,1.173714 -3.5,1.173714 -3.5,0 z m -5.1875,-0.683114 c 0.721875,-0.288871 1.584375,-0.253344 1.916667,0.07895 0.332291,0.332292 -0.258334,0.568641 -1.3125,0.52522 -1.164943,-0.04798 -1.4019,-0.284941 -0.604167,-0.604167 z"
         id="path4050"
         inkscape:connector-curvature="0" />
      <path
         style="fill:#ced2ec"
         d="m 49.018182,71.254545 c -1.921742,-1.921742 -1.432313,-6.523874 0.864922,-8.13292 2.059068,-1.442227 2.057279,-1.45397 -0.631121,-4.14237 -2.490327,-2.490326 -2.654474,-3.154469 -2.151258,-8.704024 0.629105,-6.937881 2.506247,-9.49237 9.954175,-13.546041 2.619805,-1.425876 4.763282,-3.17864 4.763282,-3.89503 0,-1.757005 -7.445778,-3.660253 -11.142782,-2.848255 -1.636483,0.359432 -4.508828,2.186917 -6.382988,4.061076 -3.722697,3.722698 -6.788948,4.276283 -10.251724,1.85086 -3.124859,-2.188737 -2.894518,-6.425576 0.527494,-9.70259 7.621849,-7.298896 21.690485,-9.416556 32.02308,-4.820227 5.974768,2.657804 10.22692,7.081902 10.22692,10.64047 0,3.027187 -4.035542,7.529826 -10.5,11.715331 -4.486034,2.904546 -5.027399,3.647794 -5.266543,7.23052 -0.428539,6.420143 -1.112014,8.31988 -3.235781,8.993938 -2.557888,0.811842 -2.557888,2.186682 0,2.998524 2.850451,0.904698 3.667545,5.108196 1.465858,7.541033 -2.014815,2.226346 -8.329483,2.693756 -10.263534,0.759705 z"
         id="path4048"
         inkscape:connector-curvature="0" />
      <path
         style="fill:#a1a4e3"
         d="m 50.068182,70.792264 c -0.6875,-0.277412 -1.25,-1.826533 -1.25,-3.442491 0,-2.191689 0.658769,-3.238261 2.5931,-4.119601 4.79433,-2.184443 10.470207,3.033314 7.367031,6.772412 -1.15703,1.394136 -6.101243,1.84239 -8.710131,0.78968 z m 0.978264,-11.567913 c -2.756221,-1.328323 -3.640835,-4.41713 -2.969872,-10.369898 0.60306,-5.350329 2.276171,-7.381949 9.381818,-11.392129 6.925691,-3.908617 7.172876,-6.313809 0.813451,-7.91513 -5.885456,-1.481975 -11.089023,-0.126462 -14.938381,3.891402 -6.053405,6.318394 -13.87841,1.262502 -8.945668,-5.779974 0.863287,-1.232515 3.900787,-3.458805 6.75,-4.947311 9.88718,-5.165332 25.294929,-3.091798 32.172992,4.329755 4.709613,5.081756 2.873357,8.71432 -8.492604,16.800444 -4.231197,3.010214 -4.518013,3.511183 -4.801545,8.386642 -0.23119,3.975402 -0.808066,5.539973 -2.472506,6.705793 -2.50545,1.754885 -3.378028,1.793883 -6.497685,0.290406 z"
         id="path4046"
         inkscape:connector-curvature="0" />
      <path
         style="fill:#7e81db"
         d="m 50.339662,69.833167 c -2.255056,-2.255055 -1.51598,-4.656552 1.791004,-5.819557 4.917331,-1.729332 9.05594,3.235933 5.105127,6.124838 -2.419758,1.76937 -4.932726,1.658125 -6.896131,-0.305281 z m 0.04995,-11.950051 c -1.038602,-1.0386 -1.57143,-3.393199 -1.57143,-6.944236 0,-6.437603 2.012293,-9.253568 9.5,-13.294124 8.718251,-4.704587 5.453742,-9.612718 -5.923345,-8.905644 -5.266522,0.327309 -6.228709,0.733908 -8.67718,3.666782 -3.141717,3.763269 -7.419296,4.42582 -9.571489,1.482521 -1.740126,-2.379764 -1.698984,-2.692505 0.76654,-5.826911 7.217655,-9.175761 27.824604,-10.089761 36.87487,-1.635548 5.53602,5.171418 3.612344,10.074606 -6.270462,15.982551 -4.950894,2.959646 -7.107798,6.280859 -6.263542,9.644642 1.398076,5.570377 -4.948989,9.744941 -8.863963,5.829967 z"
         id="path4044"
         inkscape:connector-curvature="0" />
      <path
         style="fill:#5f5fda"
         d="m 50.484849,69.787878 c -1.303061,-1.303061 -0.638751,-4.277906 1.17166,-5.246808 3.880226,-2.076634 8.607132,1.466877 6.056481,4.540223 -1.173804,1.414347 -6.044268,1.890458 -7.228141,0.706585 z M 49.853366,56.520286 c -1.349221,-2.521041 -1.315673,-6.962683 0.08289,-10.974606 0.799416,-2.293207 2.611995,-4.050428 6.359789,-6.165552 7.02356,-3.963851 9.207171,-6.39524 7.54366,-8.399648 -1.807291,-2.177653 -8.631341,-3.767652 -13.001444,-3.029328 -2.417565,0.408446 -4.940145,1.857445 -7.083544,4.068871 -3.419955,3.528499 -6.623257,4.3478 -8.736535,2.234522 -2.058533,-2.058533 -1.331872,-4.47703 2.304455,-7.669768 7.305003,-6.413878 19.900257,-7.608267 29.417284,-2.789598 10.191198,5.160015 10.185732,10.638326 -0.0171,17.138264 -6.846632,4.361798 -7.904639,5.868286 -7.904639,11.255361 0,2.126157 -0.54,4.405741 -1.2,5.065741 -1.901469,1.901469 -6.591576,1.457962 -7.764816,-0.734259 z"
         id="path4042"
         inkscape:connector-curvature="0" />
      <path
         style="fill:#2f2fd7"
         d="m 51.259312,69.015663 c -1.812073,-1.343217 -1.830407,-1.551294 -0.275766,-3.12965 1.142485,-1.159913 2.476871,-1.487093 4.25,-1.042066 2.770248,0.695288 3.326875,2.468359 1.384636,4.410598 -1.577606,1.577606 -2.993476,1.514491 -5.35887,-0.238882 z m -0.24113,-11.761118 c -0.66,-0.66 -1.2,-3.60108 -1.2,-6.535733 0,-6.019315 0.954105,-7.290211 9.5,-12.654277 8.76165,-5.499491 6.013951,-10.56508 -5.747119,-10.595248 -5.19641,-0.01333 -6.126353,0.327873 -9.704749,3.560739 -4.46791,4.036488 -8.340125,4.382914 -8.852292,0.791966 -0.382376,-2.680945 5.356646,-7.617186 10.726444,-9.226016 8.769088,-2.627283 19.951683,-0.421328 25.827716,5.094951 4.454537,4.181813 2.560741,8.12968 -6.605288,13.769594 -5.373638,3.306433 -7.144712,6.264726 -7.144712,11.934088 0,2.58452 -0.518811,4.045045 -1.581787,4.452947 -2.373956,0.910972 -3.88607,0.739132 -5.218213,-0.593011 z"
         id="path4040"
         inkscape:connector-curvature="0" />
      <path
         style="fill:#0c0bec"
         d="m 52.318182,68.454545 c -0.825579,-1.335816 0.283877,-3 2,-3 2.0399,0 2.969432,2.088567 1.378115,3.096491 -1.806845,1.144436 -2.625634,1.121049 -3.378115,-0.09649 z m -0.3,-12.2 c -0.66,-0.66 -1.2,-3.319998 -1.2,-5.911106 0,-5.189902 1.882801,-7.446929 10.033685,-12.027982 8.0661,-4.533402 5.680874,-10.805399 -4.428076,-11.643712 -7.220572,-0.598786 -9.835325,0.146302 -13.264846,3.779887 -3.225492,3.417416 -7.340763,4.066541 -7.340763,1.157901 0,-2.282866 2.197577,-4.26678 7.908699,-7.139762 6.563056,-3.301548 16.94282,-2.629387 23.688688,1.534006 7.789924,4.80776 6.859548,9.062748 -3.281041,15.005529 -4.707801,2.758955 -7.792577,7.516126 -6.953772,10.723722 1.086905,4.156331 -2.439362,7.244729 -5.162574,4.521517 z"
         id="path4038"
         inkscape:connector-curvature="0" />
    </g>
  </g>
</svg>
