<?xml version="1.0" encoding="UTF-8" standalone="no"?>
<!-- Created with Inkscape (http://www.inkscape.org/) -->

<svg
   xmlns:dc="http://purl.org/dc/elements/1.1/"
   xmlns:cc="http://creativecommons.org/ns#"
   xmlns:rdf="http://www.w3.org/1999/02/22-rdf-syntax-ns#"
   xmlns:svg="http://www.w3.org/2000/svg"
   xmlns="http://www.w3.org/2000/svg"
   xmlns:sodipodi="http://sodipodi.sourceforge.net/DTD/sodipodi-0.dtd"
   xmlns:inkscape="http://www.inkscape.org/namespaces/inkscape"
   width="64px"
   height="64px"
   id="svg4071"
   version="1.1"
   inkscape:version="0.48.1 r9760"
   sodipodi:docname="New document 61">
  <defs
     id="defs4073" />
  <sodipodi:namedview
     id="base"
     pagecolor="#ffffff"
     bordercolor="#666666"
     borderopacity="1.0"
     inkscape:pageopacity="0.0"
     inkscape:pageshadow="2"
     inkscape:zoom="5.5"
     inkscape:cx="32"
     inkscape:cy="32"
     inkscape:current-layer="layer1"
     showgrid="true"
     inkscape:document-units="px"
     inkscape:grid-bbox="true"
     inkscape:window-width="1280"
     inkscape:window-height="693"
     inkscape:window-x="0"
     inkscape:window-y="0"
     inkscape:window-maximized="0" />
  <metadata
     id="metadata4076">
    <rdf:RDF>
      <cc:Work
         rdf:about="">
        <dc:format>image/svg+xml</dc:format>
        <dc:type
           rdf:resource="http://purl.org/dc/dcmitype/StillImage" />
        <dc:title></dc:title>
      </cc:Work>
    </rdf:RDF>
  </metadata>
  <g
     id="layer1"
     inkscape:label="Layer 1"
     inkscape:groupmode="layer">
    <g
       id="g4144"
       transform="translate(-21.272727,-12.181818)">
      <path
         style="fill:#f8f8f8"
         d="m 21.454546,44.181818 0,-32 32,0 32,0 0,32 0,32 -32,0 -32,0 0,-32 z"
         id="path4160"
         inkscape:connector-curvature="0" />
      <path
         style="fill:#edd4cf"
         d="m 21.454546,74.60785 c 0,-0.865683 6.075,-7.791138 13.5,-15.3899 7.425,-7.598762 13.5,-14.164838 13.5,-14.591279 0,-0.426442 -5.446608,-6.262447 -12.103574,-12.968899 C 25.050569,20.273362 20.298505,14.004526 21.817523,12.485508 c 1.10016,-1.10016 5.929608,1.889395 11.227228,6.949949 l 5.090204,4.86242 5.321505,-3.30803 c 7.447663,-4.629721 13.933719,-4.64813 20.445747,-0.05803 2.535946,1.7875 4.990343,3.25 5.454215,3.25 0.463872,0 2.698071,-2.012076 4.964886,-4.47128 3.99891,-4.338305 9.804651,-8.190641 10.817475,-7.177817 0.274106,0.274107 0.141908,1.544788 -0.293774,2.823736 -0.435682,1.278949 -0.823293,2.550361 -0.861356,2.825361 -0.03806,0.275 -2.859712,3.143625 -6.270328,6.374721 -3.410616,3.231097 -7.136744,7.807464 -8.280285,10.169704 -1.143541,2.362241 -3.631514,5.479017 -5.52883,6.92617 -1.897315,1.447153 -3.449664,3.178127 -3.449664,3.846608 0,0.668482 5.156199,6.356992 11.458219,12.641135 10.599392,10.569322 14.753431,16.163345 13.174876,17.7419 -1.33066,1.33066 -6.47246,-2.411072 -15.997091,-11.641219 -5.9662,-5.781735 -10.051809,-9.05802 -10.339286,-8.291162 -0.261409,0.697322 -1.131519,1.924087 -1.933578,2.726145 -1.277717,1.277718 -1.186259,1.826227 0.738617,4.429762 2.091668,2.829132 2.116794,3.093739 0.524521,5.523855 -1.818023,2.774654 -6.286788,3.491871 -8.426278,1.352381 -1.921742,-1.921742 -1.432313,-6.523874 0.864922,-8.13292 2.057912,-1.441417 2.05565,-1.455599 -0.666231,-4.17748 l -2.731152,-2.731152 -9.264704,9.370776 c -5.095587,5.153927 -10.189677,9.933276 -11.3202,10.620776 -2.816531,1.712804 -5.082635,1.568362 -5.082635,-0.323968 z M 56.066241,34.839401 c 3.958826,-3.405239 2.718047,-5.870616 -2.750701,-5.465528 -5.278593,0.391002 -7.107436,2.77316 -4.413968,5.749409 2.39868,2.650512 3.818642,2.59425 7.164669,-0.283881 z"
         id="path4158"
         inkscape:connector-curvature="0" />
      <path
         style="fill:#eac5b7"
         d="m 21.937076,75.15355 c -0.349528,-0.565547 5.473914,-7.235456 12.940983,-14.82202 8.537113,-8.673734 13.576487,-14.55491 13.576487,-15.844373 0,-1.128941 -1.910218,-3.818195 -4.25,-5.983259 -9.067096,-8.390031 -21.75,-22.233296 -21.75,-23.739911 0,-3.057718 3.234794,-1.522935 9.529135,4.521202 l 6.356027,6.103371 4.520883,-3.246653 c 5.933323,-4.26099 12.557497,-5.03966 18.234514,-2.143462 2.19628,1.120458 4.580732,2.745087 5.298783,3.610285 0.718051,0.865198 1.774728,1.573088 2.348172,1.573088 0.573443,0 3.854394,-2.7 7.291001,-6 3.436608,-3.3 6.737327,-6 7.334931,-6 2.652638,0 0.576735,3.746796 -5.738037,10.35658 -3.753525,3.928881 -7.848638,8.94342 -9.100251,11.14342 -1.251613,2.2 -3.805548,5.270262 -5.675409,6.822804 -1.869862,1.552542 -3.399749,3.359882 -3.399749,4.016312 0,0.656429 5.206418,6.361168 11.569818,12.677196 12.966131,12.869606 16.621106,17.983688 12.852732,17.983688 -0.867597,0 -6.712237,-5.017502 -12.988087,-11.150003 L 59.478372,53.881811 57.393879,56.531815 c -2.629758,3.343195 -4.393322,3.342203 -7.494679,-0.0042 L 47.439351,53.873377 36.024399,65.027598 c -6.278224,6.134821 -11.873248,11.15422 -12.433386,11.15422 -0.560138,0 -1.30441,-0.46272 -1.653937,-1.028268 z M 56.377821,35.592924 c 5.210521,-4.384364 3.788447,-7.411106 -3.482009,-7.411106 -2.531291,0 -3.818151,0.645566 -5.05759,2.537189 -1.588022,2.423627 -1.558872,2.647421 0.651261,5 2.917486,3.105521 4.069681,3.087105 7.888338,-0.126083 z m -5.923275,33.588894 c -2.40751,-2.40751 -2.446628,-2.917337 -0.443296,-5.777494 1.890372,-2.698884 4.561959,-2.853854 6.788308,-0.393765 2.268202,2.506334 2.074496,4.764016 -0.567518,6.614555 -2.860157,2.003332 -3.369984,1.964214 -5.777494,-0.443296 z"
         id="path4156"
         inkscape:connector-curvature="0" />
      <path
         style="fill:#dea39d"
         d="m 22.997329,75.251043 c -1.071811,-1.734227 0.86428,-4.111154 13.891269,-17.054219 6.911271,-6.866747 12.565948,-13.057696 12.565948,-13.757664 0,-0.699969 -6.072364,-7.456721 -13.494142,-15.015006 -7.421778,-7.558285 -13.496778,-14.304836 -13.5,-14.992336 -0.01172,-2.500488 2.324725,-1.118586 8.992649,5.318752 l 6.804046,6.568753 4.621572,-3.527726 c 7.774823,-5.934656 14.950891,-5.731454 22.194448,0.628473 l 3.447033,3.026535 6.869966,-6.632394 c 3.778482,-3.647816 7.36372,-6.632393 7.967197,-6.632393 2.732434,0 0.5198,3.827184 -6.281358,10.864837 -4.058224,4.19934 -8.107751,9.074401 -8.998948,10.83347 -0.891198,1.759068 -3.156742,4.370162 -5.034542,5.80243 -1.8778,1.432268 -3.684803,3.309351 -4.015562,4.171296 -0.416973,1.086611 3.389409,5.628953 12.41313,14.813198 11.348314,11.550189 15.0303,16.514769 12.248199,16.514769 -0.421472,0 -5.926631,-5.175 -12.233688,-11.5 -6.307057,-6.325 -11.823354,-11.5 -12.258439,-11.5 -0.435084,0 -1.218787,1.125 -1.741561,2.5 -1.299922,3.419055 -5.376728,3.380867 -7.638841,-0.07155 L 48.130758,53.03871 37.542652,63.424172 c -12.492503,12.25341 -13.6833,13.221653 -14.545323,11.826871 z m 33.7618,-39.454095 c 3.962539,-3.629545 4.410988,-4.797752 2.445417,-6.370296 -4.133471,-3.306962 -11.297154,-1.897296 -12.385023,2.437118 -0.435581,1.735494 0.04597,3.126582 1.687034,4.873411 2.999176,3.192476 3.846042,3.095991 8.252572,-0.940233 z m -6.104583,33.18487 c -2.859931,-2.859931 -0.228177,-7.225437 3.994958,-6.626764 1.701629,0.241224 2.391449,1.083698 2.635118,3.218257 0.466848,4.089634 -3.770525,6.268058 -6.630076,3.408507 z"
         id="path4154"
         inkscape:connector-curvature="0" />
      <path
         style="fill:#d0837a"
         d="M 71.195119,64.337324 58.603636,51.99283 57.003411,55.087324 c -0.880124,1.701972 -2.193925,3.094494 -2.919558,3.094494 -1.579832,0 -4.629307,-3.180849 -4.629307,-4.828741 0,-0.644192 -0.34484,-1.171259 -0.766312,-1.171259 -0.421472,0 -5.926631,5.175 -12.233688,11.5 -10.223037,10.252121 -14,13.148541 -14,10.736106 0,-0.420141 6.075,-6.826389 13.5,-14.236106 8.204091,-8.187204 13.5,-14.244889 13.5,-15.44187 0,-1.19019 -5.382426,-7.401661 -13.601009,-15.695948 -8.387966,-8.46523 -13.323862,-14.174727 -12.877921,-14.896274 0.472447,-0.764435 3.0292,1.118459 7.376105,5.432055 3.65916,3.63112 7.230611,6.602037 7.93656,6.602037 0.705948,0 3.04407,-1.414799 5.195828,-3.143999 5.640801,-4.533072 12.258837,-5.049109 18.423221,-1.43654 2.500969,1.465666 4.547216,3.095877 4.547216,3.622693 0,2.629116 4.218585,0.291111 10,-5.542154 3.543223,-3.575 6.792723,-6.5 7.221112,-6.5 2.216136,0 0.05954,3.262499 -6.297478,9.52682 -3.892001,3.835249 -7.90387,8.54818 -8.915265,10.47318 -1.011395,1.925 -3.677031,5.278826 -5.923635,7.452948 -2.246604,2.174121 -4.084734,4.611806 -4.084734,5.417077 0,0.805271 5.900982,7.423498 13.113294,14.70717 7.344726,7.417396 12.916541,13.832457 12.666028,14.582923 C 83.957674,76.169331 78.970533,71.96022 71.195119,64.337324 z M 56.91975,36.078226 c 5.621062,-4.935358 4.024866,-8.896408 -3.585011,-8.896408 -3.406403,0 -7.880193,3.247261 -7.880193,5.719769 0,1.845303 4.533452,6.280231 6.419749,6.280231 0.830862,0 3.101317,-1.396616 5.045455,-3.103592 z m -5.833061,31.98879 c -1.760165,-2.512987 -1.187644,-4.574113 1.508226,-5.429749 4.143674,-1.315152 6.742101,4.466716 2.925372,6.509367 -2.593569,1.388036 -2.728138,1.355268 -4.433598,-1.079618 z"
         id="path4152"
         inkscape:connector-curvature="0" />
      <path
         style="fill:#cd645e"
         d="m 35.535029,61.6788 c 7.380734,-7.42666 13.841513,-14.619914 14.357287,-15.985009 0.862453,-2.282652 -0.101322,-3.527314 -12,-15.497349 -7.115774,-7.158447 -13.08777,-13.465193 -13.271103,-14.014991 -0.786291,-2.358006 1.790312,-0.601102 7.333333,5.000367 3.265566,3.3 6.40148,5.9875 6.968697,5.972222 0.567216,-0.01528 2.350095,-1.37157 3.961952,-3.013982 6.112865,-6.228745 14.854155,-6.159122 22.069207,0.175777 1.906682,1.67409 3.89692,2.891291 4.42275,2.704891 0.52583,-0.186399 4.133356,-3.425316 8.016724,-7.197593 3.883369,-3.772276 7.06067,-6.402017 7.06067,-5.843868 0,0.558149 -3.175491,4.080494 -7.056646,7.827434 -3.881155,3.746939 -8.223533,8.956573 -9.649729,11.576964 -1.426195,2.620391 -3.644437,5.453221 -4.929426,6.295178 -1.284989,0.841958 -3.091051,2.68266 -4.01347,4.09045 l -1.677126,2.559617 13.864867,13.891454 c 7.625676,7.640299 13.533724,14.222596 13.128994,14.627326 -0.404731,0.40473 -6.301784,-4.816674 -13.104563,-11.60312 l -12.36869,-12.338993 -1.622786,3.138121 c -2.003236,3.873833 -5.222361,4.186428 -6.571425,0.638122 -0.522774,-1.375 -1.531477,-2.5 -2.241561,-2.5 -0.710085,0 -6.451382,5.175 -12.758439,11.5 -6.307057,6.325 -11.888499,11.5 -12.403205,11.5 -0.514706,0 5.102954,-6.076358 12.483688,-13.503018 z M 57.288156,36.335428 c 4.759847,-4.394266 4.957838,-5.127384 2.086516,-7.725895 -4.389587,-3.972522 -13.920126,-1.28691 -13.920126,3.922554 0,2.201762 4.643899,7.649731 6.520701,7.649731 0.630586,0 3.021395,-1.730875 5.312909,-3.84639 z m -6.44507,31.416527 c -0.995668,-2.594671 0.399883,-4.739185 2.856989,-4.390274 3.2046,0.455056 3.2046,5.185218 0,5.640274 -1.352279,0.192025 -2.495586,-0.308199 -2.856989,-1.25 z"
         id="path4150"
         inkscape:connector-curvature="0" />
      <path
         style="fill:#b76560"
         d="m 24.16094,73.211757 c 0.92775,-1.083533 1.887471,-1.769408 2.132713,-1.524166 0.596066,0.596067 -1.852168,3.494227 -2.951764,3.494227 -0.477273,0 -0.1087,-0.886527 0.819051,-1.970061 z m 57.752487,0.90353 c -0.362533,-0.586592 -0.41903,-1.306653 -0.125548,-1.600136 0.716313,-0.716312 2.666667,0.545824 2.666667,1.725684 0,1.277972 -1.726411,1.192676 -2.541119,-0.125548 z m -30.458881,-7.82648 c 0,-2.234796 2.311961,-3.395028 3.8,-1.906989 1.488039,1.488039 0.327807,3.8 -1.906989,3.8 -1.190681,0 -1.893011,-0.70233 -1.893011,-1.893011 z m 21.458881,-1.17352 c -1.07627,-1.741443 0.149522,-2.110241 1.521063,-0.457635 0.788749,0.950384 0.864611,1.524166 0.201518,1.524166 -0.584886,0 -1.360047,-0.479939 -1.722581,-1.066531 z m -4.800965,-5.382541 c -0.371656,-0.968522 -0.07551,-1.264668 0.893012,-0.893012 1.581731,0.606968 1.993685,2.342084 0.556061,2.342084 -0.491156,0 -1.143239,-0.652083 -1.449073,-1.449072 z M 50.439602,52.86999 c -1.245543,-2.66934 -1.292622,-3.686066 -0.264742,-5.717435 0.687611,-1.358905 1.266444,-3.145737 1.286296,-3.970737 0.01985,-0.825 1.843022,-2.778572 4.051491,-4.341271 7.284216,-5.154265 8.383672,-9.013972 3.33703,-11.714853 -4.108769,-2.198947 -9.500259,-1.522976 -12.117029,1.5192 -1.252956,1.456648 -2.278102,3.298358 -2.278102,4.092688 0,2.41181 -2.193303,1.612938 -4.835499,-1.761247 -1.168365,-1.492047 -0.873218,-2.11778 2.358413,-5 4.419251,-3.941431 7.994705,-5.688427 11.766924,-5.749413 3.321556,-0.0537 9.45516,2.907245 12.11515,5.848486 1.047743,1.158526 2.622743,2.113301 3.5,2.121723 1.022461,0.0098 1.196395,0.279038 0.484544,0.75 -0.610757,0.404078 -1.805081,2.084687 -2.654054,3.734687 -0.848973,1.65 -3.616107,5.096779 -6.149186,7.659509 -4.120368,4.168597 -4.501833,4.932435 -3.620697,7.25 0.541697,1.42477 0.602291,2.590491 0.134654,2.590491 -0.467637,0 -1.120249,1.35 -1.450249,3 -0.81076,4.053801 -3.702159,3.894643 -5.664944,-0.311828 z m -5.965,-0.212338 c 0.69572,-0.838291 1.470881,-1.31823 1.72258,-1.066531 0.693498,0.693497 -0.715543,2.590697 -1.924098,2.590697 -0.663093,0 -0.587231,-0.573782 0.201518,-1.524166 z M 80.454546,17.412533 c 0,-0.432428 0.9,-1.556837 2,-2.498687 1.352829,-1.158328 2,-1.308079 2,-0.462787 0,0.687316 -0.9,1.811725 -2,2.498686 -1.1,0.686961 -2,0.895216 -2,0.462788 z m -56,-1.289732 c 0,-0.582459 0.45,-0.780902 1,-0.440983 0.55,0.339919 1,0.816476 1,1.059017 0,0.242541 -0.45,0.440983 -1,0.440983 -0.55,0 -1,-0.476558 -1,-1.059017 z"
         id="path4148"
         inkscape:connector-curvature="0" />
      <path
         style="fill:#cf2116"
         d="m 51.454546,66.288807 c 0,-2.234796 2.311961,-3.395028 3.8,-1.906989 1.488039,1.488039 0.327807,3.8 -1.906989,3.8 -1.190681,0 -1.893011,-0.70233 -1.893011,-1.893011 z M 50.439602,52.86999 c -1.245543,-2.66934 -1.292622,-3.686066 -0.264742,-5.717435 0.687611,-1.358905 1.266444,-3.145737 1.286296,-3.970737 0.01985,-0.825 1.843022,-2.778572 4.051491,-4.341271 7.284216,-5.154265 8.383672,-9.013972 3.33703,-11.714853 -4.108769,-2.198947 -9.500259,-1.522976 -12.117029,1.5192 -1.252956,1.456648 -2.278102,3.298358 -2.278102,4.092688 0,2.41181 -2.193303,1.612938 -4.835499,-1.761247 -1.168365,-1.492047 -0.873218,-2.11778 2.358413,-5 6.817835,-6.080675 11.891094,-7.161551 18.266924,-3.891835 2.040589,1.046475 4.784553,3.053858 6.097698,4.460852 2.128606,2.280733 2.256738,2.873945 1.181474,5.46986 -0.663333,1.60143 -3.428455,5.181256 -6.144713,7.95517 -4.432124,4.526199 -4.837891,5.308502 -3.956226,7.627457 0.540335,1.421189 0.599815,2.583979 0.132178,2.583979 -0.467637,0 -1.120249,1.35 -1.450249,3 -0.81076,4.053801 -3.702159,3.894643 -5.664944,-0.311828 z"
         id="path4146"
         inkscape:connector-curvature="0" />
    </g>
  </g>
</svg>
