<?xml version="1.0" encoding="UTF-8" standalone="no"?>
<!-- Created with Inkscape (http://www.inkscape.org/) -->

<svg
   xmlns:dc="http://purl.org/dc/elements/1.1/"
   xmlns:cc="http://creativecommons.org/ns#"
   xmlns:rdf="http://www.w3.org/1999/02/22-rdf-syntax-ns#"
   xmlns:svg="http://www.w3.org/2000/svg"
   xmlns="http://www.w3.org/2000/svg"
   xmlns:sodipodi="http://sodipodi.sourceforge.net/DTD/sodipodi-0.dtd"
   xmlns:inkscape="http://www.inkscape.org/namespaces/inkscape"
   width="64px"
   height="64px"
   id="svg4181"
   version="1.1"
   inkscape:version="0.48.1 r9760"
   sodipodi:docname="New document 67">
  <defs
     id="defs4183" />
  <sodipodi:namedview
     id="base"
     pagecolor="#ffffff"
     bordercolor="#666666"
     borderopacity="1.0"
     inkscape:pageopacity="0.0"
     inkscape:pageshadow="2"
     inkscape:zoom="5.5"
     inkscape:cx="32"
     inkscape:cy="32"
     inkscape:current-layer="layer1"
     showgrid="true"
     inkscape:document-units="px"
     inkscape:grid-bbox="true"
     inkscape:window-width="1280"
     inkscape:window-height="693"
     inkscape:window-x="0"
     inkscape:window-y="0"
     inkscape:window-maximized="0" />
  <metadata
     id="metadata4186">
    <rdf:RDF>
      <cc:Work
         rdf:about="">
        <dc:format>image/svg+xml</dc:format>
        <dc:type
           rdf:resource="http://purl.org/dc/dcmitype/StillImage" />
        <dc:title></dc:title>
      </cc:Work>
    </rdf:RDF>
  </metadata>
  <g
     id="layer1"
     inkscape:label="Layer 1"
     inkscape:groupmode="layer">
    <g
       id="g4254"
       transform="translate(-22.545455,-14)">
      <path
         style="fill:#fcfcfc"
         d="m 22.545454,46.181818 0,-32 32,0 32,0 0,32 0,32 -32,0 -32,0 0,-32 z"
         id="path4270"
         inkscape:connector-curvature="0" />
      <path
         style="fill:#e7e7e7"
         d="m 51.545454,72.893905 c -3.789093,-1.907322 -3.955018,-6.536621 -0.338032,-9.43106 2.107185,-1.686243 2.401976,-2.272372 1.144736,-2.27606 -2.129365,-0.0062 -4.806704,-3.73578 -4.806704,-6.695738 0,-2.184274 -0.321692,-2.253472 -11.75,-2.527494 l -11.75,-0.281735 -0.500453,-4 c -0.765939,-6.121971 0.09034,-6.5 14.723261,-6.5 12.743329,0 12.916893,-0.0309 18.253096,-3.25 2.963087,-1.7875 5.559301,-3.785861 5.769364,-4.440803 0.21689,-0.676223 -1.374064,-1.716913 -3.681667,-2.408288 -5.394214,-1.616146 -10.868318,-0.0089 -13.890093,4.078279 -2.538249,3.433166 -6.340977,3.992668 -9.951002,1.464108 -8.330589,-5.834972 7.699156,-18.392791 21.890908,-17.149496 6.182378,0.541619 14.142429,3.658473 17.572256,6.880628 3.064094,2.878567 3.880671,7.312281 1.902711,10.331029 -2.465966,3.76354 -1.954326,4.493363 3.161619,4.509856 5.898912,0.01902 6.720416,0.609921 6.866832,4.939283 0.184733,5.462338 -1.121692,6.045404 -13.545403,6.045404 l -11.071429,0 0,2.565741 c 0,3.353461 -1.692687,6.434259 -3.535184,6.434259 -2.135462,0 -1.792221,1.76131 0.484032,2.483765 4.433256,1.407061 3.666485,7.757477 -1.138931,9.432654 -1.7096,0.595969 -3.153713,1.076947 -3.20914,1.068839 -0.05543,-0.0081 -1.225777,-0.581035 -2.600777,-1.273171 z"
         id="path4268"
         inkscape:connector-curvature="0" />
      <path
         style="fill:#d6d6d6"
         d="m 50.545454,71.181818 c -1.1,-1.1 -2,-2.45 -2,-3 0,-1.649823 3.871126,-5 5.777494,-5 2.664457,0 6.222506,2.859016 6.222506,5 0,2.140984 -3.558049,5 -6.222506,5 -0.977622,0 -2.677494,-0.9 -3.777494,-2 z m 0.605969,-11.298855 c -0.97696,-0.714371 -2.092749,-2.851871 -2.479532,-4.75 l -0.703241,-3.451145 -11.961598,-0.5 -11.961598,-0.5 0,-4 0,-4 14,-0.506045 c 13.643534,-0.493161 14.146405,-0.591073 19.75,-3.845459 3.1625,-1.836677 5.75,-3.955624 5.75,-4.708771 0,-2.198029 -3.447206,-3.439725 -9.549388,-3.439725 -5.215115,0 -5.943711,0.286954 -8.886747,3.5 -2.289268,2.499298 -4.057613,3.5 -6.18487,3.5 -6.528749,0 -7.462144,-6.137285 -1.660679,-10.919342 8.204067,-6.762486 20.831286,-7.876276 30.981557,-2.732744 8.533443,4.324223 10.390077,9.014872 5.750628,14.528542 l -2.549498,3.029908 6.799498,0.296818 6.799499,0.296818 0,4.5 0,4.5 -12,0.5 -12,0.5 -0.333664,3 c -0.628964,5.655083 -5.394198,8.247522 -9.560367,5.201145 z"
         id="path4266"
         inkscape:connector-curvature="0" />
      <path
         style="fill:#c6c6c6"
         d="m 50.745454,70.981818 c -2.8424,-2.8424 -0.555971,-6.8 3.928571,-6.8 2.622136,0 5.871429,2.21363 5.871429,4 0,3.254832 -7.268464,5.331536 -9.8,2.8 z m 0,-12 c -0.66,-0.66 -1.206891,-2.1225 -1.215313,-3.25 -0.0305,-4.082863 -1.136809,-4.472804 -13.522958,-4.766433 l -11.961729,-0.283567 0,-3.5 c 0,-1.925 0.45,-3.830609 1,-4.234687 0.55,-0.404078 6.810464,-0.741578 13.912142,-0.75 12.113915,-0.01437 13.195764,-0.178443 17.5,-2.654102 5.335582,-3.068856 8.087858,-5.303665 8.087858,-6.567225 0,-0.492822 -1.673927,-1.59545 -3.719837,-2.450286 -5.725548,-2.392287 -11.451106,-1.325428 -16.274855,3.03254 -2.206088,1.993068 -4.584645,3.62376 -5.285683,3.62376 -2.204238,0 -5.719625,-3.035014 -5.719625,-4.938047 0,-5.647711 14.94706,-12.834891 24,-11.540218 8.554268,1.223357 16.336313,5.642356 18.11138,10.284467 1.019044,2.664976 -1.068144,7.579493 -3.637777,8.565554 -3.386526,1.299532 -0.05726,2.628244 6.585414,2.628244 l 6.940983,0 0,4 0,4 -10.918213,0 c -6.005016,0 -11.630016,0.273145 -12.5,0.606989 -0.925232,0.355045 -1.581787,1.778148 -1.581787,3.428571 0,1.551871 -0.707143,3.528726 -1.571429,4.393011 -1.859658,1.859659 -6.529547,2.070453 -8.228571,0.371429 z"
         id="path4264"
         inkscape:connector-curvature="0" />
      <path
         style="fill:#adadad"
         d="m 51.406238,70.242736 -2.360784,-1.939082 2.228412,-2.261552 c 1.861848,-1.889537 2.682727,-2.101778 4.990284,-1.290253 3.317277,1.166624 4.18655,4.294869 1.698915,6.113872 -2.442351,1.78589 -3.778661,1.658923 -6.556827,-0.622985 z M 51.284105,58.431818 c -0.864228,-0.9625 -1.721473,-3.1 -1.904987,-4.75 l -0.333664,-3 -12.25,-0.280779 -12.25,-0.280779 0,-3.469221 0,-3.469221 13.039838,0 c 11.322205,0 13.594409,-0.280645 17.25,-2.130585 13.383785,-6.772966 13.017931,-11.869415 -0.852057,-11.869415 -4.825278,0 -5.874076,0.399371 -9.389649,3.575481 -4.215902,3.808814 -7.514129,4.248551 -9.391903,1.252178 -2.903455,-4.633056 6.739475,-11.599812 17.392792,-12.565821 7.010905,-0.635726 14.709467,1.709203 19.542238,5.952432 4.305458,3.780242 4.410069,6.938248 0.363869,10.984448 -1.674679,1.674679 -2.900996,3.188748 -2.725147,3.364596 0.175848,0.175849 3.796041,0.411735 8.044872,0.524193 l 7.725147,0.204468 0,3.824135 0,3.824136 -12.75,0.279877 -12.75,0.279877 -0.305969,3.5 c -0.48199,5.513521 -5.194169,7.882045 -8.45538,4.25 z"
         id="path4262"
         inkscape:connector-curvature="0" />
      <path
         style="fill:#979797"
         d="m 51.78843,70.024794 c -1.964158,-1.964158 -1.458289,-3.750832 1.254788,-4.431771 3.624443,-0.909677 5.697277,0.194169 5.322373,2.834324 -0.369399,2.601385 -4.556314,3.618294 -6.577161,1.597447 z M 51.74545,57.981818 c -0.66,-0.66 -1.2,-2.433442 -1.2,-3.940983 0,-1.507541 -0.5625,-3.105041 -1.25,-3.55 -0.6875,-0.444959 -6.425,-0.809017 -12.75,-0.809017 -11.360442,0 -11.504096,-0.02897 -11.837492,-2.38691 -0.185621,-1.3128 0.264379,-2.76841 1,-3.234687 0.73562,-0.466278 7.187492,-0.882272 14.337492,-0.924431 l 13,-0.07665 6,-3.708481 c 7.467313,-4.615399 8.386001,-7.482869 3.104399,-9.689663 -4.198199,-1.754119 -10.864225,-1.926122 -13.92014,-0.35918 -1.201343,0.615997 -3.601718,2.460617 -5.334168,4.099155 -3.345654,3.164295 -6.588939,3.206764 -7.780395,0.101879 -1.784262,-4.649716 9.297322,-11.448116 18.79993,-11.533504 15.237888,-0.136925 26.195747,10.037939 17.630374,16.370593 -5.162105,3.816509 -3.997365,4.841879 5.5,4.841879 l 8.5,0 0,3 0,3 -11.418213,0 c -6.280016,0 -12.130016,0.273145 -13,0.606989 -0.98539,0.378129 -1.581787,1.810882 -1.581787,3.8 0,3.699165 -1.523742,5.593011 -4.5,5.593011 -1.155,0 -2.64,-0.54 -3.3,-1.2 z"
         id="path4260"
         inkscape:connector-curvature="0" />
      <path
         style="fill:#868686"
         d="m 51.545454,68.181818 c 0,-1.796985 0.503889,-2.078133 3.25,-1.813358 2.082952,0.200834 3.25,0.851996 3.25,1.813358 0,0.961362 -1.167048,1.612524 -3.25,1.813358 -2.746111,0.264775 -3.25,-0.01637 -3.25,-1.813358 z M 51.1187,55.992617 C 50.846243,54.721678 50.487824,52.781818 50.322213,51.681818 50.0427,49.825267 49.14335,49.661679 37.783278,49.401039 l -12.237824,-0.280779 0,-2.469221 0,-2.469221 13.087515,0 13.087515,0 6.317284,-3.532826 c 7.996915,-4.47213 9.139646,-5.784757 7.7298,-8.879033 -0.777499,-1.706423 -2.47335,-2.688826 -6.174041,-3.576608 -6.883223,-1.65126 -11.53561,-0.605506 -15.820734,3.556153 -3.728966,3.621526 -4.128281,3.791293 -6.645552,2.825325 -4.169563,-1.600011 0.381213,-7.260832 8.418213,-10.471618 8.062493,-3.220971 21.440599,-0.658334 26.844628,5.14221 2.970683,3.188654 2.722925,4.664971 -1.442107,8.593102 -5.251278,4.952593 -4.164045,6.343295 4.959105,6.343295 5.507896,0 7.565738,0.36833 7.971944,1.426887 1.023215,2.666455 -1.9365,3.503605 -13.394439,3.788593 l -11.439131,0.28452 -0.5,4 c -0.45612,3.648957 -0.782211,4.027276 -3.715688,4.310799 -2.673385,0.258386 -3.29923,-0.0789 -3.711066,-2 z"
         id="path4258"
         inkscape:connector-curvature="0" />
      <path
         style="fill:#7d7d7d"
         d="m 53.045454,69.181818 c -0.825579,-1.335816 0.283877,-3 2,-3 2.0399,0 2.969432,2.088567 1.378115,3.096491 -1.806845,1.144436 -2.625634,1.121049 -3.378115,-0.09649 z m -0.3,-12.2 c -0.66,-0.66 -1.2,-2.198196 -1.2,-3.418213 0,-5.222275 -0.388481,-5.381787 -13.106989,-5.381787 -9.904899,0 -11.893011,-0.25075 -11.893011,-1.5 0,-1.252396 2.039466,-1.5 12.355193,-1.5 12.130645,0 12.471414,-0.0618 18.75,-3.400178 7.879646,-4.18968 10.606745,-7.401036 8.936022,-10.522812 -1.590086,-2.971101 -5.008828,-4.07701 -12.603434,-4.07701 -5.946292,0 -6.724579,0.26431 -10.306101,3.5 -4.516417,4.080311 -7.432608,4.620447 -6.951231,1.287505 0.200731,-1.389813 2.149563,-3.341943 5.241131,-5.25 4.357445,-2.689331 5.790256,-3.035646 12.5,-3.021287 7.893933,0.01689 12.66399,1.585742 16.943376,5.572596 3.053881,2.845123 2.670785,4.652517 -1.864956,8.798592 -6.442404,5.888937 -5.910181,6.324891 7.973504,6.531242 4.33566,0.06444 5.54501,0.43883 5.817474,1.800971 0.308701,1.543305 -0.970223,1.748367 -12.473505,2 l -12.817473,0.280381 -0.324496,3.987024 c -0.404838,4.974174 -2.498999,6.789481 -4.975504,4.312976 z"
         id="path4256"
         inkscape:connector-curvature="0" />
    </g>
  </g>
</svg>
