<?xml version="1.0" encoding="UTF-8" standalone="no"?>
<!-- Created with Inkscape (http://www.inkscape.org/) -->

<svg
   xmlns:dc="http://purl.org/dc/elements/1.1/"
   xmlns:cc="http://creativecommons.org/ns#"
   xmlns:rdf="http://www.w3.org/1999/02/22-rdf-syntax-ns#"
   xmlns:svg="http://www.w3.org/2000/svg"
   xmlns="http://www.w3.org/2000/svg"
   xmlns:sodipodi="http://sodipodi.sourceforge.net/DTD/sodipodi-0.dtd"
   xmlns:inkscape="http://www.inkscape.org/namespaces/inkscape"
   width="16px"
   height="16px"
   id="svg5058"
   version="1.1"
   inkscape:version="0.48.1 r9760"
   sodipodi:docname="New document 116">
  <defs
     id="defs5060" />
  <sodipodi:namedview
     id="base"
     pagecolor="#ffffff"
     bordercolor="#666666"
     borderopacity="1.0"
     inkscape:pageopacity="0.0"
     inkscape:pageshadow="2"
     inkscape:zoom="22.197802"
     inkscape:cx="8"
     inkscape:cy="8"
     inkscape:current-layer="layer1"
     showgrid="true"
     inkscape:grid-bbox="true"
     inkscape:document-units="px"
     inkscape:window-width="1280"
     inkscape:window-height="694"
     inkscape:window-x="0"
     inkscape:window-y="0"
     inkscape:window-maximized="0" />
  <metadata
     id="metadata5063">
    <rdf:RDF>
      <cc:Work
         rdf:about="">
        <dc:format>image/svg+xml</dc:format>
        <dc:type
           rdf:resource="http://purl.org/dc/dcmitype/StillImage" />
        <dc:title></dc:title>
      </cc:Work>
    </rdf:RDF>
  </metadata>
  <g
     id="layer1"
     inkscape:label="Layer 1"
     inkscape:groupmode="layer">
    <g
       id="g5131"
       transform="translate(-4.8653466,-3.6039604)">
      <path
         style="fill:#d0d2eb"
         d="M 11.317347,18.960831 C 10.604264,18.509001 9.9461426,16.266316 9.8548543,13.977087 9.7588971,11.570778 9.1973696,9.8148514 8.5238133,9.8148514 7.883029,9.8148514 6.7798071,9.1172666 6.072209,8.264663 3.8515696,5.5889563 7.0516673,3.5296259 13.214465,3.6684709 c 6.936352,0.1562729 8.966824,3.0789533 4.937989,7.1077881 -1.078774,1.078774 -2.336948,3.410665 -2.795942,5.181981 -0.901033,3.477199 -2.000382,4.294422 -4.039165,3.002591 z"
         id="path5145"
         inkscape:connector-curvature="0" />
      <path
         style="fill:#bec5e6"
         d="M 10.661008,15.214471 C 10.145993,12.469203 10.416443,11.133244 11.799717,9.5895259 13.588448,7.5933225 13.569668,7.5745359 10.459062,8.248452 6.8901631,9.021658 5.2570701,7.5521483 7.1502164,5.2710465 8.3690579,3.8024324 14.59154,3.2934512 17.532075,4.4218402 c 2.190012,0.8403867 1.986637,5.1059748 -0.301838,6.3307298 -1.035995,0.554447 -2.181385,2.595279 -2.545314,4.535183 -0.860889,4.588933 -3.157123,4.547115 -4.023915,-0.07328 z"
         id="path5143"
         inkscape:connector-curvature="0" />
      <path
         style="fill:#aeaee6"
         d="m 11.582477,17.314851 c -0.257739,-0.825 -0.703824,-2.238407 -0.991301,-3.140905 -0.287477,-0.902498 0.198479,-2.741541 1.079903,-4.086763 C 13.622456,7.1090048 13.026672,6.2559624 10.092149,7.8264718 7.2084107,9.3698016 5.1763387,7.6494237 7.1186557,5.3090749 8.885517,3.1801373 16.989322,3.6452994 18.439479,5.9588953 c 0.795032,1.2684028 0.418585,2.3712425 -1.647567,4.8267257 -1.472928,1.750474 -2.67805,4.273154 -2.67805,5.605955 0,2.660208 -1.78532,3.31137 -2.531385,0.923275 z"
         id="path5141"
         inkscape:connector-curvature="0" />
      <path
         style="fill:#8f8dd9"
         d="M 11.861497,15.229153 C 10.62196,13.989616 11.018041,11.139265 12.613862,9.8148514 15.229054,7.6444351 14.326286,6.5524187 10.508858,7.2685724 7.7604383,7.784179 7.0076222,7.6324154 7.3405719,6.6298633 8.4123275,3.4026767 17.235088,3.0824202 18.44174,6.2269032 c 0.301663,0.7861235 -0.436201,2.5278478 -1.639699,3.8704988 -1.203499,1.34265 -2.639243,3.214778 -3.190543,4.160284 -0.551301,0.945507 -1.338801,1.382667 -1.750001,0.971467 z"
         id="path5139"
         inkscape:connector-curvature="0" />
      <path
         style="fill:#807edf"
         d="M 11.492062,13.358042 C 11.01111,12.104701 11.531577,11.007421 13.207771,9.7408844 15.105376,8.3070484 15.355429,7.6635579 14.390988,6.6959688 13.458571,5.7605082 12.576352,5.7387272 10.676698,6.6042673 9.112731,7.3168585 7.963461,7.3805151 7.5893983,6.775269 6.6331169,5.2279731 12.090224,3.6403642 15.01534,4.6148769 c 3.549957,1.182681 3.578446,3.0810675 0.106865,7.1211241 -2.574282,2.995824 -3.02559,3.19748 -3.630143,1.622041 z"
         id="path5137"
         inkscape:connector-curvature="0" />
      <path
         style="fill:#7d80da"
         d="m 12.113862,13.202609 c 0,-0.951652 0.719082,-2.524854 1.597961,-3.4960037 C 15.993828,7.185019 14.566202,5.5625011 10.768661,6.3616585 8.3794781,6.8644402 7.8839649,6.7420207 8.7268491,5.8572168 c 1.24989,-1.3120515 6.4919069,-1.7136056 8.2429019,-0.631431 1.771048,1.0945679 1.354543,3.440701 -0.855889,4.8211382 -1.1,0.686962 -2,1.789217 -2,2.449457 0,0.66024 -0.45,1.478551 -1,1.81847 -0.55,0.339919 -1,-0.16059 -1,-1.112242 z"
         id="path5135"
         inkscape:connector-curvature="0" />
      <path
         style="fill:#6b66d9"
         d="m 12.113862,12.437296 c 0,-0.757655 0.706285,-1.96372 1.569523,-2.6801434 0.863237,-0.7164235 1.346071,-2.1570692 1.072963,-3.2014349 -0.362557,-1.3864218 -0.08939,-1.7425997 1.012265,-1.3198565 0.829853,0.3184446 1.69702,0.5789902 1.927036,0.5789902 1.261992,0 0.128626,2.6997566 -1.581787,3.7679271 -1.1,0.6869615 -2,1.9202075 -2,2.7405465 0,0.820339 -0.45,1.491526 -1,1.491526 -0.55,0 -1,-0.6199 -1,-1.377555 z M 8.6138616,5.8148514 c 0.3399187,-0.55 1.3789763,-0.9931093 2.3090174,-0.9846872 1.457275,0.013196 1.48367,0.1492885 0.190983,0.9846872 -1.9583728,1.2655974 -3.2821826,1.2655974 -2.5000004,0 z"
         id="path5133"
         inkscape:connector-curvature="0" />
    </g>
  </g>
</svg>
