<?xml version="1.0" encoding="UTF-8" standalone="no"?>
<!-- Created with Inkscape (http://www.inkscape.org/) -->

<svg
   xmlns:dc="http://purl.org/dc/elements/1.1/"
   xmlns:cc="http://creativecommons.org/ns#"
   xmlns:rdf="http://www.w3.org/1999/02/22-rdf-syntax-ns#"
   xmlns:svg="http://www.w3.org/2000/svg"
   xmlns="http://www.w3.org/2000/svg"
   xmlns:sodipodi="http://sodipodi.sourceforge.net/DTD/sodipodi-0.dtd"
   xmlns:inkscape="http://www.inkscape.org/namespaces/inkscape"
   width="64px"
   height="64px"
   id="svg4528"
   version="1.1"
   inkscape:version="0.48.1 r9760"
   sodipodi:docname="New document 86">
  <defs
     id="defs4530" />
  <sodipodi:namedview
     id="base"
     pagecolor="#ffffff"
     bordercolor="#666666"
     borderopacity="1.0"
     inkscape:pageopacity="0.0"
     inkscape:pageshadow="2"
     inkscape:zoom="5.5"
     inkscape:cx="32"
     inkscape:cy="32"
     inkscape:current-layer="layer1"
     showgrid="true"
     inkscape:document-units="px"
     inkscape:grid-bbox="true"
     inkscape:window-width="1280"
     inkscape:window-height="693"
     inkscape:window-x="0"
     inkscape:window-y="0"
     inkscape:window-maximized="0" />
  <metadata
     id="metadata4533">
    <rdf:RDF>
      <cc:Work
         rdf:about="">
        <dc:format>image/svg+xml</dc:format>
        <dc:type
           rdf:resource="http://purl.org/dc/dcmitype/StillImage" />
        <dc:title></dc:title>
      </cc:Work>
    </rdf:RDF>
  </metadata>
  <g
     id="layer1"
     inkscape:label="Layer 1"
     inkscape:groupmode="layer">
    <g
       id="g4601"
       transform="translate(-25.818181,-12.909091)">
      <path
         style="fill:#f5f7ef"
         d="m 26,45.090909 0,-32 32,0 32,0 0,32 0,32 -32,0 -32,0 0,-32 z"
         id="path4617"
         inkscape:connector-curvature="0" />
      <path
         style="fill:#cde0b0"
         d="M 46.5,75.850965 C 37.216913,72.672491 31.261,67.0717 28.046502,58.497759 26.221728,53.630588 25.89073,50.993521 26.165968,43.515486 26.587292,32.068396 29.978079,24.580895 37.219066,19.10815 47.969442,10.983005 69.558585,11.088011 78.927691,19.311015 86.909423,26.316358 89.87598,33.269523 89.955867,45.159408 90.063188,61.132506 82.505716,72.185226 69.007084,75.796776 63.587711,77.246725 50.667326,77.277833 46.5,75.850965 z M 62.795712,60.638293 c 0.162641,-4.373939 0.76454,-8.51752 1.337552,-9.207958 0.609441,-0.734331 4.014505,-1.376549 8.204289,-1.547384 L 79.5,49.590909 79.805882,45.373986 C 80.157803,40.522357 79.71823,40.286673 69.5,39.84831 l -6,-0.257401 -0.720574,-7.952125 C 61.836742,21.235484 61.673905,20.899546 57.756875,21.277038 L 54.5,21.590909 54,29.795066 c -0.275,4.512286 -0.953013,8.6553 -1.506696,9.206696 -0.553682,0.551396 -4.063579,1.115403 -7.799769,1.253348 -7.647333,0.282351 -8.97258,1.219714 -8.511766,6.020475 L 36.5,49.590909 l 7.788774,0.5 c 5.412773,0.347473 8.077329,0.957582 8.734687,2 0.520252,0.825 0.952804,5.013374 0.961226,9.307498 L 54,69.205905 l 4.25,-0.307498 4.25,-0.307498 0.295712,-7.952616 z"
         id="path4615"
         inkscape:connector-curvature="0" />
      <path
         style="fill:#b1c995"
         d="M 47.827722,75.684171 C 42.087474,74.030031 38.354937,71.437098 33.068026,65.43085 28.112567,59.801152 26.543768,54.910283 26.543768,45.090909 c 0,-11.256153 1.59407,-15.323023 8.850257,-22.57921 7.25945,-7.259451 10.326643,-8.407122 22.489955,-8.415213 11.975857,-0.008 15.523983,1.315308 22.659559,8.450884 7.195093,7.195093 8.460432,10.664462 8.446692,23.159559 -0.0079,7.19982 -0.452951,9.835687 -2.347563,13.904257 -2.782101,5.974399 -11.253193,13.963187 -16.473306,15.535392 -5.829909,1.755865 -17.167265,2.028669 -22.34164,0.537593 z m 15.3552,-14.330218 c 0.375607,-4.530327 0.964664,-8.692827 1.309017,-9.25 0.344352,-0.557174 3.965964,-1.013044 8.048026,-1.013044 6.982222,0 7.457308,-0.140953 8.019065,-2.379171 0.328423,-1.308544 0.449497,-3.671044 0.269052,-5.25 -0.323329,-2.829241 -0.439832,-2.878759 -8.042188,-3.418269 -4.242759,-0.301092 -8.067759,-0.900836 -8.5,-1.332764 C 63.853652,38.278776 63.341198,34.134576 63.147106,29.501372 62.812147,21.505497 62.668635,21.045846 60.323364,20.45722 58.964398,20.116141 56.7607,20.334542 55.426258,20.942554 53.152732,21.978442 53,22.550762 53,30.034286 c 0,9.52926 -0.546167,10.056623 -10.415207,10.056623 -6.241996,0 -6.577532,0.12289 -7.209395,2.640432 -0.364489,1.452238 -0.251365,3.814738 0.251386,5.25 0.850972,2.429368 1.393179,2.630314 7.851966,2.910006 3.81583,0.165242 7.519133,0.782842 8.229561,1.372445 C 52.559536,52.970246 53,55.965199 53,61.046687 c 0,4.240989 0.321175,8.032063 0.713721,8.42461 0.392547,0.392547 2.530047,0.580047 4.75,0.416667 L 62.5,69.590909 63.182922,61.353953 z"
         id="path4613"
         inkscape:connector-curvature="0" />
      <path
         style="fill:#8fad68"
         d="M 48.404583,75.485314 C 40.317797,73.002272 34.062624,67.619612 30,59.647923 26.902177,53.569368 26.501843,51.907531 26.516043,45.185562 c 0.02715,-12.85305 5.837071,-22.616477 16.683745,-28.036625 5.407858,-2.702338 7.118822,-3.056892 14.709934,-3.048259 10.08079,0.01146 16.123357,2.329675 22.494001,8.62975 6.227379,6.158397 8.578981,12.298004 8.564546,22.360481 -0.0135,9.410186 -1.629743,14.259561 -7.021453,21.06715 -6.741649,8.512026 -22.198758,12.810261 -33.542233,9.327255 z m 13.874499,-5.644405 c 1.257323,-0.946015 1.729382,-3.195501 1.941129,-9.25 l 0.279789,-8 6,-0.257401 c 9.432041,-0.404635 10.325154,-0.79367 11.081846,-4.827184 0.376982,-2.009486 0.187045,-4.627228 -0.43476,-5.991941 -1.011439,-2.219868 -1.677306,-2.423474 -7.925647,-2.423474 -3.97223,0 -7.32266,-0.501221 -8.021439,-1.2 -0.707981,-0.707981 -1.2,-4.111111 -1.2,-8.3 0,-4.188889 -0.492019,-7.592019 -1.2,-8.3 -1.580841,-1.580841 -8.458932,-1.544606 -9.490983,0.05 -0.444959,0.6875 -1.034017,4.85 -1.309017,9.25 l -0.5,8 -6.958311,0.300438 c -3.827072,0.165242 -7.539572,0.782842 -8.25,1.372445 C 35.58126,40.853396 35,43.289866 35,45.67817 c 0,5.449365 1.567519,6.412739 10.434259,6.412739 l 6.565741,0 0,7.928571 c 0,5.874459 0.407121,8.335693 1.571429,9.5 1.885611,1.885611 6.406923,2.052508 8.707653,0.321429 z"
         id="path4611"
         inkscape:connector-curvature="0" />
      <path
         style="fill:#779a4d"
         d="M 51.438044,76.211777 C 46.415555,74.913733 38.065483,69.92952 34.929288,66.357591 33.316133,64.520309 30.768154,60.67119 29.267111,57.803994 25.406498,50.429694 25.42389,39.915397 29.309171,32.377824 33.293296,24.648486 37.467133,20.447388 44.49408,17.093735 60.512435,9.4488792 79.409063,16.461121 86.598664,32.718084 90.022431,40.459828 89.98137,51.22076 86.501864,58.087238 82.902642,65.189961 78.890235,69.33777 72.1363,72.93758 65.798454,76.315617 57.139633,77.685331 51.438048,76.211777 z m 12.252939,-6.370868 c 0.444959,-0.6875 1.034017,-4.85 1.309017,-9.25 l 0.5,-8 6.958311,-0.300438 c 3.827072,-0.165242 7.539572,-0.782842 8.25,-1.372445 1.833823,-1.521938 1.63961,-9.336339 -0.27974,-11.255688 -1.126166,-1.126166 -3.534632,-1.571429 -8.5,-1.571429 l -6.928571,0 0,-7.5 c 0,-8.504409 -1.773617,-11.5 -6.80887,-11.5 -5.065263,0 -6.103591,1.700493 -6.411341,10.5 l -0.279789,8 -6.977476,0.300875 C 36.321705,38.245411 34,39.772218 34,44.811638 c 0,6.258971 1.238385,7.279271 8.835184,7.279271 3.92819,0 7.268001,0.503185 7.964816,1.2 0.707981,0.707981 1.2,4.111111 1.2,8.3 0,4.188889 0.492019,7.592019 1.2,8.3 1.583035,1.583035 9.458353,1.545501 10.490983,-0.05 z"
         id="path4609"
         inkscape:connector-curvature="0" />
      <path
         style="fill:#658d31"
         d="M 53.5,76.437435 C 52.4,76.173854 49.15377,74.876585 46.286155,73.554614 34.72946,68.226978 26.771755,56.921733 26.602643,45.590909 26.435773,34.41033 33.925468,22.918115 45.10942,17.194044 59.995146,9.5753658 77.639668,16.067038 85.896865,32.200329 93.651955,47.352582 86.690518,65.446487 70.009736,73.493561 64.965452,75.927004 57.170445,77.316942 53.5,76.437435 z m 9.368518,-6.096526 c 1.722551,-1.442268 2.137688,-3.068853 2.360784,-9.25 l 0.270698,-7.5 7.332392,-0.5 C 81.071088,52.529108 83,51.091029 83,45.510563 83,39.993745 80.502702,38.174964 72.5,37.863419 l -7,-0.27251 -0.295712,-7.952616 c -0.162641,-4.373939 -0.780241,-8.536439 -1.372444,-9.25 C 62.306137,18.549929 54.493706,18.74006 52.571429,20.662338 51.407121,21.826645 51,24.287879 51,30.162338 l 0,7.928571 -7.3,0 c -4.344444,0 -7.785845,0.485845 -8.5,1.2 -1.774407,1.774407 -1.514146,10.342997 0.371429,12.228571 1.126166,1.126166 3.534632,1.571429 8.5,1.571429 l 6.928571,0 0,7.943296 c 0,7.074759 0.243014,8.113509 2.222506,9.5 2.936242,2.056624 7.057489,1.974039 9.646012,-0.193296 z"
         id="path4607"
         inkscape:connector-curvature="0" />
      <path
         style="fill:#4b8108"
         d="M 51,75.249197 C 51,74.786255 49.264937,73.887647 47.144304,73.25229 39.728454,71.030447 29.039361,58.741182 28.984687,52.374153 28.973067,51.020981 28.7662,50.911395 28.126933,51.919767 27.563819,52.808017 27.09825,51.860087 26.722793,49.060842 26.056486,44.093156 26.892873,37.906667 28.12762,38.669783 28.607429,38.966321 29,38.492426 29,37.616682 c 0,-2.741207 4.673523,-10.884341 8.160708,-14.219195 5.59285,-5.348539 11.12837,-7.259618 21.10019,-7.284616 10.440632,-0.02617 15.722099,2.003056 21.309262,8.187377 5.766732,6.383082 7.382639,10.980009 7.407878,21.073905 0.02502,10.006913 -2.150347,15.717908 -8.138746,21.366643 -3.86028,3.641325 -10.487303,7.350113 -13.1335,7.350113 -1.003104,0 -1.545711,0.45 -1.205792,1 0.389728,0.630593 -1.989616,1 -6.440983,1 C 54.176558,76.090909 51,75.712138 51,75.249197 z m 14.130976,-5.33597 c 0.461119,-0.727275 0.845289,-4.584818 0.853711,-8.572318 l 0.01531,-7.25 6.389216,0 c 9.139848,0 11.156164,-2.071656 10.706162,-11 -0.232203,-4.607078 -1.569469,-5.469171 -9.307115,-6 l -7.288263,-0.5 -0.270698,-7.5 c -0.314909,-8.724939 -2.000307,-11 -8.148956,-11 -6.301803,0 -7.428704,1.593296 -7.509647,10.617692 L 50.5,36.590909 43.522524,36.891784 C 34.775219,37.268976 33,38.646125 33,45.054767 c 0,7.09089 1.565654,8.523371 9.401698,8.602001 3.609844,0.03622 6.796569,0.299075 7.081611,0.584117 0.285042,0.285042 0.566957,3.717552 0.626478,7.6278 0.11355,7.459673 1.207777,9.574906 5.390213,10.41974 2.897461,0.585275 8.654066,-0.834424 9.630976,-2.375198 z M 88.078947,46.507576 c 0.04798,-1.164943 0.284941,-1.4019 0.604167,-0.604167 0.288871,0.721875 0.253344,1.584375 -0.07895,1.916667 -0.332292,0.332291 -0.568641,-0.258334 -0.52522,-1.3125 z m 0,-6 c 0.04798,-1.164943 0.284941,-1.4019 0.604167,-0.604167 0.288871,0.721875 0.253344,1.584375 -0.07895,1.916667 -0.332292,0.332291 -0.568641,-0.258334 -0.52522,-1.3125 z M 53.25,14.401583 c 0.9625,-0.251527 2.5375,-0.251527 3.5,0 0.9625,0.251528 0.175,0.457323 -1.75,0.457323 -1.925,0 -2.7125,-0.205795 -1.75,-0.457323 z m 7.019032,-0.0037 c 0.972967,-0.253544 2.322967,-0.23687 3,0.03705 C 63.946064,14.708895 63.15,14.91634 61.5,14.89596 59.85,14.875581 59.296064,14.651462 60.269032,14.397918 z"
         id="path4605"
         inkscape:connector-curvature="0" />
      <path
         style="fill:#4b7d0a"
         d="m 51,75.249197 c 0,-0.462942 -1.735063,-1.36155 -3.855696,-1.996907 -4.59175,-1.375722 -12.575579,-8.133788 -14.797801,-12.525883 -1.310627,-2.590382 -0.725035,-2.22277 3.368324,2.114502 5.017376,5.316349 7.525751,6.261982 11.280351,4.252581 1.495978,-0.800623 1.828291,-2.033783 1.684259,-6.25 L 48.5,55.590909 42.503502,55.28365 C 34.47802,54.872427 32,52.647011 32,45.850854 c 0,-2.690286 0.460313,-5.751531 1.022918,-6.802768 1.518644,-2.837613 4.652457,-4.2463 6.740332,-3.029861 1.494159,0.870528 1.374276,1.016114 -0.858262,1.042275 C 35.095262,37.105143 33,40.003395 33,45.22852 c 0,6.910584 1.605689,8.35002 9.401698,8.428248 3.609844,0.03622 6.789017,0.291523 7.064828,0.567334 0.275811,0.275811 0.56087,3.621174 0.633465,7.434141 0.07259,3.812966 0.642294,7.57942 1.266,8.369897 0.935151,1.1852 0.783292,1.294168 -0.865991,0.621404 -1.1,-0.448705 -3.071229,-1.046645 -4.380508,-1.328757 -4.458178,-0.960605 -1.702993,2.145085 3.274234,3.690771 4.136855,1.284707 4.866339,1.28809 5.694473,0.02641 0.806656,-1.228961 1.160851,-1.171136 2.350076,0.383672 1.357112,1.774304 1.46219,1.774304 3.409322,0 1.104978,-1.0069 2.716306,-2.41097 3.580727,-3.120155 C 65.601561,69.338941 66,67.120709 66,61.551482 l 0,-7.460573 6.277494,0 c 7.224198,0 10.38424,-1.653878 11.007305,-5.760918 0.402674,-2.654296 0.420175,-2.66138 0.565369,-0.228864 0.0883,1.479341 -0.92328,3.667522 -2.46323,5.328288 -2.416842,2.606456 -2.989234,2.766333 -7.622569,2.129086 -5.98029,-0.8225 -6.630628,-0.144761 -6.106051,6.363307 0.511272,6.342995 -0.246816,8.894783 -2.910642,9.797459 -2.135555,0.723664 -2.098027,0.795911 0.752324,1.448335 2.45815,0.562652 2.582953,0.708047 0.690983,0.804992 -1.269959,0.06507 -2.030902,0.568315 -1.690983,1.118315 0.389728,0.630593 -1.989616,1 -6.440983,1 C 54.176558,76.090909 51,75.712138 51,75.249197 z m 21,-6.126903 c 0,-1.372097 0.47237,-1.78735 1.558902,-1.370409 1.79312,0.688085 5.882671,-3.217253 9.333634,-8.913201 1.655733,-2.732852 2.412954,-5.870652 2.787268,-11.54998 C 86.133295,40.408042 85.879322,38.743927 83.520351,33.13926 80.822031,26.728338 78.369696,23.803022 74.25,22.080938 73.0125,21.563648 72,20.679273 72,20.11566 72,16.324516 81.007847,24.458913 84.442776,31.351917 86.605681,35.692302 87,37.846231 87,45.320497 87,55.762729 84.722145,61.39889 78.074803,67.404364 73.47135,71.563307 72,71.979399 72,69.122294 z m 0.25,-5.698052 C 71.5625,63.149242 71,62.030444 71,60.938025 c 0,-1.487797 0.564615,-1.90603 2.25,-1.666667 1.439576,0.204453 2.25,1.009912 2.25,2.236218 0,2.033995 -1.194927,2.738695 -3.25,1.916666 z M 41,61.790909 c 0,-2.273038 2.185298,-3.791106 3.676206,-2.553762 2.170408,1.801279 1.54397,3.853762 -1.176206,3.853762 -1.384615,0 -2.5,-0.58 -2.5,-1.3 z m -11.666132,-7.78066 c -0.435853,-2.179264 -0.862955,-2.691312 -1.459687,-1.75 -0.523949,0.826499 -0.805407,-0.374301 -0.742867,-3.16934 0.05538,-2.475 0.325545,-3.6 0.60037,-2.5 0.274824,1.1 0.828038,2.225 1.229364,2.5 0.820943,0.562534 2.16999,8 1.451081,8 -0.254171,0 -0.739388,-1.386297 -1.078261,-3.08066 z m 58.745079,-7.502673 c 0.04798,-1.164943 0.284941,-1.4019 0.604167,-0.604167 0.288871,0.721875 0.253344,1.584375 -0.07895,1.916667 -0.332292,0.332291 -0.568641,-0.258334 -0.52522,-1.3125 z m -5,-3 c 0.04798,-1.164943 0.284941,-1.4019 0.604167,-0.604167 0.288871,0.721875 0.253344,1.584375 -0.07895,1.916667 -0.332292,0.332291 -0.568641,-0.258334 -0.52522,-1.3125 z M 27,40.723022 c 0,-1.578787 0.425926,-2.48691 1,-2.132113 0.55,0.339919 1,-0.09848 1,-0.974227 0,-3.068811 4.882937,-11.187289 8.925197,-14.839228 4.386063,-3.962544 5.112185,-4.249163 6.711964,-2.649384 1.154697,1.154697 5.704016,-0.162146 6.824717,-1.975478 0.834218,-1.349793 -0.569725,-1.349377 -4.146778,0.0012 -2.321671,0.876604 -2.587645,0.832784 -1.517429,-0.25 2.051607,-2.0757 21.129918,-2.393147 23.702329,-0.394386 1.872439,1.454883 1.794068,1.485326 -1.228749,0.477319 -4.6814,-1.561088 -6.358411,-0.522972 -2.4402,1.510551 2.455494,1.274384 3.152386,2.171007 2.651322,3.411198 -0.373851,0.925324 -0.835442,4.068578 -1.025759,6.985009 -0.394366,6.04331 0.881418,7.286472 5.357156,5.220175 L 75.5,33.873544 73.25,32.360254 C 70.624524,30.59443 70.333065,28.560814 72.581787,27.697898 75.398592,26.616988 76,27.03802 76,30.090909 c 0,1.65 0.388636,3 0.863636,3 1.265672,0 6.138952,5.084509 6.121051,6.386364 -0.0084,0.6125 -0.441203,0.438636 -0.961736,-0.386364 -0.644492,-1.021464 -3.271555,-1.659512 -8.234688,-2 l -7.288263,-0.5 -0.270698,-7.5 c -0.317867,-8.806878 -1.980669,-11 -8.340086,-11 -6.051076,0 -7.503193,2.142581 -7.341916,10.832906 0.07396,3.985156 -0.24393,7.479601 -0.706416,7.765433 C 49.378398,36.97508 49,36.507385 49,35.649926 c 0,-0.857459 -0.498145,-1.559017 -1.106989,-1.559017 -0.608844,0 -0.847967,0.675 -0.531385,1.5 0.877812,2.287541 -1.699148,1.790442 -3.203181,-0.617898 -1.810033,-2.898322 0.01985,-4.876356 2.866514,-3.098588 1.573445,0.982633 1.997548,0.977541 2.085732,-0.02504 0.801006,-9.10684 -5.296506,-12.726505 -11.309409,-6.713602 -3.58573,3.58573 -3.144351,4.618975 1.309829,3.066239 4.120836,-1.436531 4.813231,-0.707074 1.780552,1.875863 -1.598203,1.361191 -3.292601,1.877703 -5.107286,1.55688 -3.009559,-0.532069 -5.758796,2.270332 -5.81618,5.928652 -0.01749,1.115122 -0.692492,2.901002 -1.5,3.968624 C 27.062623,43.390373 27,43.355865 27,40.723022 z m 61.078947,-0.215446 c 0.04798,-1.164943 0.284941,-1.4019 0.604167,-0.604167 0.288871,0.721875 0.253344,1.584375 -0.07895,1.916667 -0.332292,0.332291 -0.568641,-0.258334 -0.52522,-1.3125 z M 53.25,14.401583 c 0.9625,-0.251527 2.5375,-0.251527 3.5,0 0.9625,0.251528 0.175,0.457323 -1.75,0.457323 -1.925,0 -2.7125,-0.205795 -1.75,-0.457323 z m 7.019032,-0.0037 c 0.972967,-0.253544 2.322967,-0.23687 3,0.03705 C 63.946064,14.708895 63.15,14.91634 61.5,14.89596 59.85,14.875581 59.296064,14.651462 60.269032,14.397918 z"
         id="path4603"
         inkscape:connector-curvature="0" />
    </g>
  </g>
</svg>
