<?xml version="1.0" encoding="UTF-8" standalone="no"?>
<!-- Created with Inkscape (http://www.inkscape.org/) -->

<svg
   xmlns:dc="http://purl.org/dc/elements/1.1/"
   xmlns:cc="http://creativecommons.org/ns#"
   xmlns:rdf="http://www.w3.org/1999/02/22-rdf-syntax-ns#"
   xmlns:svg="http://www.w3.org/2000/svg"
   xmlns="http://www.w3.org/2000/svg"
   xmlns:sodipodi="http://sodipodi.sourceforge.net/DTD/sodipodi-0.dtd"
   xmlns:inkscape="http://www.inkscape.org/namespaces/inkscape"
   width="16px"
   height="16px"
   id="svg5166"
   version="1.1"
   inkscape:version="0.48.1 r9760"
   sodipodi:docname="New document 122">
  <defs
     id="defs5168" />
  <sodipodi:namedview
     id="base"
     pagecolor="#ffffff"
     bordercolor="#666666"
     borderopacity="1.0"
     inkscape:pageopacity="0.0"
     inkscape:pageshadow="2"
     inkscape:zoom="22.197802"
     inkscape:cx="8"
     inkscape:cy="8"
     inkscape:current-layer="layer1"
     showgrid="true"
     inkscape:grid-bbox="true"
     inkscape:document-units="px"
     inkscape:window-width="1280"
     inkscape:window-height="694"
     inkscape:window-x="0"
     inkscape:window-y="0"
     inkscape:window-maximized="0" />
  <metadata
     id="metadata5171">
    <rdf:RDF>
      <cc:Work
         rdf:about="">
        <dc:format>image/svg+xml</dc:format>
        <dc:type
           rdf:resource="http://purl.org/dc/dcmitype/StillImage" />
        <dc:title></dc:title>
      </cc:Work>
    </rdf:RDF>
  </metadata>
  <g
     id="layer1"
     inkscape:label="Layer 1"
     inkscape:groupmode="layer">
    <g
       id="g5239"
       transform="translate(11.757921,-1.0811881)">
      <path
         style="fill:#d6e6cd"
         d="m -5.308911,16.482277 c -0.9625,-0.560605 -1.75,-1.671921 -1.75,-2.469591 0,-0.797671 -0.9,-1.45031 -2,-1.45031 -2.878031,0 -2.878031,-5.9576287 0,-6.7102508 1.1,-0.2876564 2,-1.0904275 2,-1.7839356 0,-2.0471417 2.7447363,-3.72160633 4.952012,-3.0210441 1.126394,0.3575033 2.047988,1.4671975 2.047988,2.465987 0,0.9987895 0.9,2.0513363 2,2.3389927 2.776287,0.7260155 2.776287,5.6944868 0,6.4205018 -1.1,0.287656 -2,1.322383 -2,2.299392 0,0.977008 -0.711804,2.049524 -1.581787,2.383368 -1.8909015,0.725607 -1.5302877,0.772117 -3.668213,-0.47311 z"
         id="path5253"
         inkscape:connector-curvature="0" />
      <path
         style="fill:#c5d4b4"
         d="m -6.0069398,14.199071 c -0.4941899,-1.299818 -1.833052,-2.607689 -2.9752491,-2.906381 -2.8053371,-0.733612 -2.6316591,-3.5688287 0.2865833,-4.6783426 1.2998179,-0.4941899 2.6076891,-1.833052 2.9063804,-2.9752491 0.7342741,-2.80786883 4.7303142,-2.85177273 4.7303142,-0.051971 0,1.2396014 0.96944,2.3933312 2.5,2.9752492 1.375,0.5227741 2.5,1.6462836 2.5,2.4966879 0,0.8504041 -1.125,2.0587736 -2.5,2.6852656 -1.375,0.626492 -2.5,1.966844 -2.5,2.978561 0,2.760613 -3.8544285,2.352566 -4.9480288,-0.52382 z"
         id="path5251"
         inkscape:connector-curvature="0" />
      <path
         style="fill:#b2c79d"
         d="m -5.633904,14.119603 c -0.3732438,-1.487122 -1.4565405,-2.562965 -2.769052,-2.75 -2.800028,-0.399008 -2.775814,-3.0351539 0.039229,-4.2707526 1.207351,-0.5299392 2.4609287,-2.0223388 2.7857283,-3.3164435 0.7222604,-2.87771473 3.8833642,-2.6425576 4.3098662,0.3206144 0.159927,1.1111175 1.255816,2.4565205 2.435307,2.9897843 3.097083,1.4002328 3.311745,3.3145894 0.491892,4.3866954 -1.344523,0.511187 -2.688971,1.863956 -2.987663,3.006153 -0.746484,2.854559 -3.5569594,2.615603 -4.305307,-0.366051 z"
         id="path5249"
         inkscape:connector-curvature="0" />
      <path
         style="fill:#9fb789"
         d="M -5.0069398,14.199071 C -5.5011297,12.899253 -6.8399918,11.591382 -7.9821889,11.29269 -10.624488,10.601714 -10.682888,7.9588127 -8.0709514,7.2757758 -6.9775736,6.9898511 -5.6387115,5.587367 -5.0957022,4.1591444 -3.8052978,0.76512367 -2.755486,0.87859267 -1.365013,4.5623762 c 0.622806,1.65 1.846463,3 2.719238,3 2.250428,0 1.975644,3.0855708 -0.328442,3.6881028 -1.053418,0.275475 -2.186991,1.583346 -2.519052,2.90638 -0.768894,3.063519 -2.3577147,3.082607 -3.5136708,0.04221 z"
         id="path5247"
         inkscape:connector-curvature="0" />
      <path
         style="fill:#8ca86a"
         d="m -5.058911,13.581428 c 0,-1.279022 -0.8858463,-2.203281 -2.5,-2.608408 -1.375,-0.345103 -2.5,-1.0398138 -2.5,-1.5438027 0,-0.5039885 1.125,-1.344067 2.5,-1.8668411 1.5305604,-0.581918 2.5,-1.7356478 2.5,-2.9752492 0,-1.1331118 0.6605546,-2.0247508 1.5,-2.0247508 0.839445,0 1.5,0.891639 1.5,2.0247508 0,1.2396014 0.96944,2.3933312 2.5,2.9752492 1.375,0.5227741 2.5,1.3628526 2.5,1.8668411 0,0.5039889 -1.125,1.1986997 -2.5,1.5438027 -1.614154,0.405127 -2.5,1.329386 -2.5,2.608408 0,1.094176 -0.671475,1.980948 -1.5,1.980948 -0.8285245,0 -1.5,-0.886772 -1.5,-1.980948 z"
         id="path5245"
         inkscape:connector-curvature="0" />
      <path
         style="fill:#739751"
         d="m -4.8769572,13.062376 c -0.6264919,-1.375 -1.8237237,-2.5 -2.660515,-2.5 -2.1854564,0 -1.8786647,-2.0938224 0.393867,-2.6881027 1.0534182,-0.2754751 2.1916107,-1.6017504 2.5293168,-2.9472786 0.6807322,-2.712253 2.5553774,-2.2883985 2.5553774,0.5777671 0,1.0033934 0.9,2.059707 2,2.3473634 2.338175,0.6114464 2.706205,2.7102508 0.475249,2.7102508 -0.838613,0 -1.952475,1.125 -2.475249,2.5 -0.522774,1.375 -1.1144044,2.5 -1.3147341,2.5 -0.2003297,0 -0.8768202,-1.125 -1.5033121,-2.5 z"
         id="path5243"
         inkscape:connector-curvature="0" />
      <path
         style="fill:#5c882c"
         d="M -3.9955247,13.36908 C -4.0303872,12.437767 -4.9791914,11.031194 -6.1039786,10.243363 -7.846887,9.0225825 -7.9172125,8.721979 -6.579954,8.2088248 -5.7169533,7.8776603 -4.6001967,6.584233 -4.0982727,5.3345419 c 0.6568185,-1.6353478 0.9303543,-1.7975871 0.9759754,-0.5788697 0.034862,0.9313128 0.9836663,2.3378856 2.1084543,3.1257172 1.742908,1.2207805 1.813233,1.521384 0.475975,2.0345378 -0.863001,0.3311648 -1.979757,1.6245918 -2.481681,2.8742828 -0.6568188,1.635348 -0.9303546,1.797587 -0.9759757,0.57887 z"
         id="path5241"
         inkscape:connector-curvature="0" />
    </g>
  </g>
</svg>
