<?xml version="1.0" encoding="UTF-8" standalone="no"?>
<!-- Created with Inkscape (http://www.inkscape.org/) -->

<svg
   xmlns:dc="http://purl.org/dc/elements/1.1/"
   xmlns:cc="http://creativecommons.org/ns#"
   xmlns:rdf="http://www.w3.org/1999/02/22-rdf-syntax-ns#"
   xmlns:svg="http://www.w3.org/2000/svg"
   xmlns="http://www.w3.org/2000/svg"
   xmlns:sodipodi="http://sodipodi.sourceforge.net/DTD/sodipodi-0.dtd"
   xmlns:inkscape="http://www.inkscape.org/namespaces/inkscape"
   width="64px"
   height="64px"
   id="svg4638"
   version="1.1"
   inkscape:version="0.48.1 r9760"
   sodipodi:docname="New document 92">
  <defs
     id="defs4640" />
  <sodipodi:namedview
     id="base"
     pagecolor="#ffffff"
     bordercolor="#666666"
     borderopacity="1.0"
     inkscape:pageopacity="0.0"
     inkscape:pageshadow="2"
     inkscape:zoom="5.5"
     inkscape:cx="32"
     inkscape:cy="32"
     inkscape:current-layer="layer1"
     showgrid="true"
     inkscape:document-units="px"
     inkscape:grid-bbox="true"
     inkscape:window-width="1280"
     inkscape:window-height="693"
     inkscape:window-x="0"
     inkscape:window-y="0"
     inkscape:window-maximized="0" />
  <metadata
     id="metadata4643">
    <rdf:RDF>
      <cc:Work
         rdf:about="">
        <dc:format>image/svg+xml</dc:format>
        <dc:type
           rdf:resource="http://purl.org/dc/dcmitype/StillImage" />
        <dc:title></dc:title>
      </cc:Work>
    </rdf:RDF>
  </metadata>
  <g
     id="layer1"
     inkscape:label="Layer 1"
     inkscape:groupmode="layer">
    <g
       id="g4711"
       transform="translate(-24,-13.636364)">
      <path
         style="fill:#f6f7f6"
         d="m 24.181818,45.818182 0,-32 32,0 32,0 0,32 0,32 -32,0 -32,0 0,-32 z"
         id="path4727"
         inkscape:connector-curvature="0" />
      <path
         style="fill:#9e9c9d"
         d="m 25.21107,76.353429 c -1.580142,-1.903955 0.341104,-4.585252 10.397095,-14.510219 4.165509,-4.111235 7.573653,-7.823735 7.573653,-8.25 0,-0.426266 -1.538196,-0.775028 -3.418213,-0.775028 -1.880016,0 -4.117776,-0.268448 -4.9728,-0.596551 -2.052401,-0.78758 -3.008508,-6.222429 -1.700081,-9.663855 0.986571,-2.594878 1.381934,-2.739594 7.484556,-2.739594 9.655341,0 9.606538,0.04615 9.606538,-9.083936 0,-7.317232 0.177791,-7.986452 2.531475,-9.528644 3.870864,-2.536288 8.878949,-0.830648 9.232584,3.144407 0.145232,1.632495 0.513292,4.484881 0.817911,6.338635 l 0.553854,3.370463 9.792011,-9.620463 c 10.369784,-10.188112 14.072165,-12.026063 14.072165,-6.98576 0,1.973101 -2.281106,4.960783 -9.084089,11.897895 l -9.08409,9.263194 4.33409,0.715169 c 2.383749,0.393343 4.896589,1.169391 5.584089,1.724549 1.594738,1.287758 1.63116,8.983331 0.05,10.564491 -0.710895,0.710895 -4.13178,1.2 -8.393011,1.2 -8.396169,0 -8.406989,0.01272 -8.406989,9.881787 0,7.720109 -0.919985,9.118213 -6,9.118213 -4.864865,0 -6,-1.456757 -6,-7.7 0,-2.915 -0.295047,-5.3 -0.655659,-5.3 -0.360613,0 -5.061253,4.275 -10.445868,9.5 -5.384615,5.225 -10.434469,9.5 -11.221897,9.5 -0.787427,0 -1.978723,-0.659139 -2.647324,-1.464753 z"
         id="path4725"
         inkscape:connector-curvature="0" />
      <path
         style="fill:#cb8379"
         d="m 25.21107,76.353429 c -1.60078,-1.928823 0.313536,-4.51717 11.439414,-15.467229 4.712053,-4.63759 8.221762,-8.771681 7.799352,-9.186868 -0.42241,-0.415188 -2.793018,-0.895796 -5.268018,-1.068018 -4.290065,-0.298524 -4.514846,-0.467799 -4.818231,-3.628456 -0.496997,-5.177716 1.036988,-6.184676 9.421624,-6.184676 8.494804,0 8.210707,0.378039 8.642275,-11.5 l 0.254332,-7 3.085175,-0.301065 c 4.119658,-0.402015 5.243501,1.247629 5.608494,8.232492 l 0.306331,5.862251 10.742721,-10.646839 c 10.937923,-10.840299 14.757279,-12.996388 14.757279,-8.330723 0,1.564642 -3.082318,5.526249 -9.5,12.210057 -5.225,5.441667 -9.5,10.224759 -9.5,10.629093 0,0.404333 2.1375,0.872308 4.75,1.039943 l 4.75,0.304791 0.304791,4.75 0.304791,4.75 -7.354791,0 c -4.38706,0 -7.839003,0.484212 -8.554791,1.2 -0.728854,0.728854 -1.2,4.272167 -1.2,9.024751 0,7.332675 -0.150468,7.881959 -2.392678,8.734445 -1.315974,0.500333 -3.340974,0.661711 -4.5,0.358618 -1.83881,-0.480859 -2.107322,-1.293207 -2.107322,-6.375428 0,-3.203394 -0.3618,-6.047957 -0.804001,-6.321252 -0.4422,-0.273295 -5.575574,4.200148 -11.407497,9.940983 -5.831923,5.740836 -11.265023,10.437883 -12.073555,10.437883 -0.808532,0 -2.017094,-0.659139 -2.685695,-1.464753 z"
         id="path4723"
         inkscape:connector-curvature="0" />
      <path
         style="fill:#8f7b82"
         d="m 25.823599,76.546393 c -1.725697,-1.262678 -1.214466,-1.961146 7.168501,-9.793927 9.982148,-9.327005 13.763546,-13.693789 12.742365,-14.71497 -0.371449,-0.371449 -3.010251,-0.910251 -5.864004,-1.197338 -5.020883,-0.505099 -5.198932,-0.629167 -5.506874,-3.8373 -0.496997,-5.177716 1.036988,-6.184676 9.421624,-6.184676 8.494804,0 8.210707,0.378039 8.642275,-11.5 0.249214,-6.85913 0.310891,-7.006485 3.064804,-7.322258 4.384671,-0.50276 5.689528,1.305772 5.689528,7.885686 0,3.200196 0.41572,6.075467 0.923822,6.389491 0.508102,0.314025 5.88064,-4.427947 11.938974,-10.537716 9.648106,-9.730018 13.137204,-12.102232 13.137204,-8.931897 0,0.4759 -4.758028,5.681314 -10.573396,11.567587 -5.815368,5.886273 -10.202868,11.068345 -9.75,11.515716 0.452868,0.44737 3.073396,0.952898 5.823396,1.123396 l 5,0.309995 0.304791,4.75 0.304791,4.75 -7.354791,0 c -4.38706,0 -7.839003,0.484212 -8.554791,1.2 -0.728854,0.728854 -1.2,4.272167 -1.2,9.024751 0,7.332675 -0.150468,7.881959 -2.392678,8.734445 -1.315974,0.500333 -3.340974,0.661711 -4.5,0.358618 -1.825983,-0.477505 -2.109366,-1.303162 -2.122635,-6.184445 -0.0084,-3.098353 -0.430949,-6.290476 -0.93895,-7.093606 -1.171032,-1.851357 -2.383742,-0.873825 -14.545737,11.724903 -8.179784,8.473518 -9.169349,9.199276 -10.858219,7.963545 z"
         id="path4721"
         inkscape:connector-curvature="0" />
      <path
         style="fill:#79817b"
         d="m 25.832182,76.551789 c -1.555318,-1.137276 -0.599664,-2.361656 9.308183,-11.925599 6.072799,-5.86201 11.041453,-11.366908 11.041453,-12.233105 0,-1.165241 -1.0192,-1.574903 -3.918213,-1.574903 -6.127661,0 -7.081787,-0.705204 -7.081787,-5.234218 l 0,-4.020241 5.126553,0.492597 c 6.500093,0.624577 10.750881,-0.922542 11.601192,-4.222375 0.356548,-1.38367 0.676166,-5.215763 0.710262,-8.515763 l 0.06199,-6 3.5,0 3.5,0 -0.255028,6.535714 c -0.238143,6.102985 -0.112468,6.535715 1.898139,6.535715 1.411266,0 5.871295,-3.749693 12.944003,-10.882448 9.451403,-9.531642 12.912889,-11.865324 12.912889,-8.705675 0,0.4759 -4.687324,5.609748 -10.416276,11.408552 -12.052946,12.199905 -12.780627,14.300876 -4.76928,13.769938 4.738559,-0.31404 5.148171,-0.158931 5.732923,2.170905 1.349784,5.377969 0.494755,6.163818 -6.754056,6.20759 -9.332664,0.05635 -10.625707,1.387609 -11.003386,11.328565 l -0.289925,7.631144 -3.119348,0.303614 c -3.604189,0.350805 -4.344374,-1.183738 -4.366997,-9.053614 -0.01044,-3.631577 -0.381088,-4.75 -1.574161,-4.75 -0.858278,0 -6.396961,4.950226 -12.308184,11.000502 -9.46104,9.683599 -10.955172,10.848779 -12.480946,9.733105 z"
         id="path4719"
         inkscape:connector-curvature="0" />
      <path
         style="fill:#7c7c7b"
         d="m 25.832182,76.551789 c -1.555166,-1.137165 -0.588171,-2.372749 9.410582,-12.024444 12.223528,-11.799246 12.60483,-12.729699 7.481929,-18.257401 -2.627448,-2.835064 -4.542875,-2.552521 -4.542875,0.670113 0,1.482499 0.561202,1.922445 2.157047,1.690983 1.186375,-0.172072 2.348875,0.249642 2.583333,0.937142 0.266166,0.780479 -0.513336,1.25 -2.075259,1.25 -4.609795,0 -5.665121,-0.965449 -5.665121,-5.182651 l 0,-3.968673 6.198793,0.42204 c 3.409336,0.232122 6.370254,0.936424 6.579818,1.565116 0.223471,0.670415 1.994562,-0.196435 4.283181,-2.096378 4.294427,-3.565106 4.836376,-4.739092 2.188208,-4.74016 -1.152343,-4.65e-4 -1.798258,-0.838299 -1.891303,-2.453261 -0.12463,-2.163149 0.182893,-2.387715 2.606089,-1.903076 2.034755,0.406951 2.922917,0.09207 3.424086,-1.213957 1.007836,-2.626381 -0.992222,-4.157806 -3.436526,-2.631313 -1.643981,1.026684 -2.097231,0.988324 -2.559614,-0.216627 -1.255526,-3.271849 0.03379,-5.08106 3.620963,-5.08106 l 3.486305,0 -0.255028,6.535714 c -0.238143,6.102985 -0.112468,6.535715 1.898139,6.535715 1.411266,0 5.871295,-3.749693 12.944003,-10.882448 9.4514,-9.531642 12.912886,-11.865324 12.912886,-8.705675 0,0.4759 -4.687324,5.609748 -10.416276,11.408552 -10.755152,10.886287 -12.524405,14.299805 -7.214783,13.919878 2.991192,-0.214032 3.333163,0.454388 1.076633,2.104403 -0.938957,0.686582 -1.292541,1.819083 -0.893011,2.860242 0.832311,2.168967 1.897778,2.174677 4.410011,0.02364 1.842516,-1.577611 1.868174,-1.829557 0.356444,-3.5 -1.518283,-1.677688 -1.489807,-1.800021 0.419006,-1.800021 2.325333,0 2.947914,1.20636 2.838456,5.5 l -0.07648,3 -6.25,1.17e-4 c -4.333709,8.2e-5 -6.25,-0.383177 -6.25,-1.25 0,-1.994044 -2.462781,-1.450863 -4.825686,1.064334 -2.315414,2.464646 -2.851262,4.685549 -1.130504,4.685549 0.656113,0 0.934681,2.692822 0.75,7.25 l -0.29381,7.25 -3.119348,0.303614 c -2.541209,0.247342 -3.233703,-0.123337 -3.736346,-2 -1.200956,-4.483879 -0.669189,-7.54118 1.605694,-9.231643 l 2.25,-1.671973 -2.25,0.456381 c -1.2375,0.25101 -2.25,0.04851 -2.25,-0.449999 0,-2.823303 -4.320451,0.321274 -13.86869,10.094122 -9.46104,9.683599 -10.955172,10.848779 -12.480946,9.733105 z m 33.3274,-15.983607 c 0.03892,-1.312859 -2.686022,-0.806454 -3.967195,0.737265 -0.678876,0.817996 -0.931056,2.277559 -0.560399,3.243475 0.602273,1.5695 0.877588,1.491118 2.589639,-0.737265 1.053646,-1.371411 1.925725,-2.830975 1.937955,-3.243475 z"
         id="path4717"
         inkscape:connector-curvature="0" />
      <path
         style="fill:#8f706b"
         d="m 25.832182,76.551789 c -1.555318,-1.137276 -0.599664,-2.361656 9.308183,-11.925599 6.588333,-6.35965 11.041453,-11.439572 11.041453,-12.5956 0,-4.007823 12.782247,-16.893681 15.661757,-15.788709 0.72366,0.277694 6.103683,-4.359373 12.253152,-10.561051 9.602402,-9.683926 13.085091,-12.047225 13.085091,-8.879342 0,0.4759 -4.719133,5.641944 -10.486961,11.480099 -5.767829,5.838154 -10.403673,10.934724 -10.301875,11.325711 0.940186,3.611088 -10.706192,16.16783 -15.02167,16.195871 -1.612408,0.01048 -5.557817,3.338712 -13.058184,11.015515 -9.46104,9.683599 -10.955172,10.848779 -12.480946,9.733105 z"
         id="path4715"
         inkscape:connector-curvature="0" />
      <path
         style="fill:#cb271e"
         d="M 25.936265,76.459359 C 24.099371,75.275135 24.029338,75.352609 55.332562,43.939661 82.463557,16.713566 87.181818,12.687054 87.181818,16.75985 c 0,0.863351 -18.513316,20.473375 -30.5,32.306786 C 27.797801,77.581313 27.746906,77.626658 25.936265,76.459359 z"
         id="path4713"
         inkscape:connector-curvature="0" />
    </g>
  </g>
</svg>
