<?xml version="1.0" encoding="UTF-8" standalone="no"?>
<!-- Created with Inkscape (http://www.inkscape.org/) -->

<svg
   xmlns:dc="http://purl.org/dc/elements/1.1/"
   xmlns:cc="http://creativecommons.org/ns#"
   xmlns:rdf="http://www.w3.org/1999/02/22-rdf-syntax-ns#"
   xmlns:svg="http://www.w3.org/2000/svg"
   xmlns="http://www.w3.org/2000/svg"
   xmlns:sodipodi="http://sodipodi.sourceforge.net/DTD/sodipodi-0.dtd"
   xmlns:inkscape="http://www.inkscape.org/namespaces/inkscape"
   width="64px"
   height="64px"
   id="svg4399"
   version="1.1"
   inkscape:version="0.48.1 r9760"
   sodipodi:docname="New document 79">
  <defs
     id="defs4401" />
  <sodipodi:namedview
     id="base"
     pagecolor="#ffffff"
     bordercolor="#666666"
     borderopacity="1.0"
     inkscape:pageopacity="0.0"
     inkscape:pageshadow="2"
     inkscape:zoom="5.5"
     inkscape:cx="32"
     inkscape:cy="32"
     inkscape:current-layer="layer1"
     showgrid="true"
     inkscape:document-units="px"
     inkscape:grid-bbox="true"
     inkscape:window-width="1280"
     inkscape:window-height="693"
     inkscape:window-x="0"
     inkscape:window-y="0"
     inkscape:window-maximized="0" />
  <metadata
     id="metadata4404">
    <rdf:RDF>
      <cc:Work
         rdf:about="">
        <dc:format>image/svg+xml</dc:format>
        <dc:type
           rdf:resource="http://purl.org/dc/dcmitype/StillImage" />
        <dc:title></dc:title>
      </cc:Work>
    </rdf:RDF>
  </metadata>
  <g
     id="layer1"
     inkscape:label="Layer 1"
     inkscape:groupmode="layer">
    <g
       id="g4491"
       transform="translate(-21.818182,-12.363636)">
      <path
         style="fill:#fafbf8"
         d="m 22,44.545455 0,-32 32,0 32,0 0,32 0,32 -32,0 -32,0 0,-32 z"
         id="path4507"
         inkscape:connector-curvature="0" />
      <path
         style="fill:#cad9b5"
         d="m 48.720918,70.295455 c -1.257323,-0.946015 -1.729382,-3.195501 -1.941129,-9.25 l -0.279789,-8 -7.255728,-0.293925 c -6.453545,-0.261429 -7.435177,-0.567799 -8.878838,-2.771105 -2.030752,-3.099319 -1.285522,-10.289017 1.259365,-12.149884 1.021722,-0.747101 4.590976,-1.285086 8.525888,-1.285086 l 6.768428,0 0.290443,-8.23965 c 0.281206,-7.977627 0.382128,-8.283495 3.173607,-9.618391 2.270237,-1.085635 3.68073,-1.139784 6.634844,-0.25471 4.343845,1.301448 4.948416,2.744964 4.968336,11.862751 l 0.01365,6.25 6.5,0 c 8.044864,0 10.5,1.885952 10.5,8.065741 0,7.090805 -1.01364,7.934259 -9.535184,7.934259 l -7.464816,0 0,7.277494 c 0,9.404186 -1.456664,11.722506 -7.365574,11.722506 -2.338692,0 -4.99977,-0.5625 -5.913508,-1.25 z"
         id="path4505"
         inkscape:connector-curvature="0" />
      <path
         style="fill:#b6c999"
         d="m 49.168156,69.248071 c -0.592203,-0.713561 -1.209803,-4.876061 -1.372444,-9.25 L 47.5,52.045455 40,51.763968 C 31.457897,51.44337 30,50.385716 30,44.509313 30,39.202935 32.2002,37.705197 40.522524,37.34633 L 47.5,37.045455 l 0.279789,-8 c 0.30775,-8.799507 1.346078,-10.5 6.411341,-10.5 5.035253,0 6.80887,2.995591 6.80887,11.5 l 0,7.5 6.928571,0 c 4.965368,0 7.373834,0.445263 8.5,1.571429 1.91935,1.919349 2.113563,9.73375 0.27974,11.255688 -0.710428,0.589603 -4.422928,1.207203 -8.25,1.372445 L 61.5,52.045455 l -0.5,8 c -0.275,4.4 -0.864058,8.5625 -1.309017,9.25 -1.066595,1.64798 -9.145993,1.611599 -10.522827,-0.04738 z"
         id="path4503"
         inkscape:connector-curvature="0" />
      <path
         style="fill:#a0b685"
         d="M 50,69.569258 C 48.939285,68.900604 48.353572,66.196162 48,60.334571 L 47.5,52.045455 40.541689,51.745017 C 36.714617,51.579775 32.981116,50.944746 32.245019,50.333839 31.365408,49.603827 31.00835,47.47881 31.20333,44.134278 L 31.5,39.045455 l 8,-0.5 8,-0.5 0.295712,-7.952616 c 0.162641,-4.373939 0.780241,-8.536439 1.372444,-9.25 0.592204,-0.713561 2.559829,-1.297384 4.372501,-1.297384 6.123273,0 6.459343,0.463417 6.459343,8.906989 0,4.65012 0.474648,8.167659 1.2,8.893011 0.696815,0.696815 4.036626,1.2 7.964816,1.2 7.441232,0 8.850414,1.067968 8.819871,6.684259 -0.02699,4.962499 -1.274538,5.775131 -9.695913,6.315741 l -7.788774,0.5 -0.295712,7.952616 c -0.162641,4.373939 -0.780241,8.536439 -1.372444,9.25 -1.248923,1.50486 -6.64295,1.701024 -8.831844,0.321187 z"
         id="path4501"
         inkscape:connector-curvature="0" />
      <path
         style="fill:#8faa69"
         d="M 50.75,69.47819 C 49.334692,68.643469 49,67.034846 49,61.067193 49,51.486307 48.108981,50.545455 39.03556,50.545455 31.565232,50.545455 31,50.096552 31,44.163668 c 0,-4.662036 1.531732,-5.618213 9,-5.618213 3.8,0 7.109091,-0.509091 7.8,-1.2 0.725352,-0.725352 1.2,-4.242891 1.2,-8.893011 0,-8.322792 0.390865,-8.906989 5.959343,-8.906989 4.0766,0 4.915477,1.68695 5.244945,10.547384 L 60.5,38.045455 l 7.491588,0.5 c 6.995691,0.466903 7.579622,0.684376 8.821533,3.285401 0.91442,1.915137 1.048367,3.633543 0.428715,5.5 -0.849189,2.557845 -1.298435,2.731948 -7.779845,3.015037 -3.783237,0.165242 -7.459874,0.782842 -8.170302,1.372445 -0.83148,0.690066 -1.297145,3.611449 -1.307002,8.199562 -0.0084,3.920155 -0.345922,7.633521 -0.75,8.251923 -1.087533,1.664365 -6.472999,2.494822 -8.484687,1.308367 z"
         id="path4499"
         inkscape:connector-curvature="0" />
      <path
         style="fill:#709147"
         d="M 50.210121,68.298635 C 49.594837,67.557263 48.958353,63.37201 48.795712,58.998071 L 48.5,51.045455 l -7.980309,-0.5 c -7.587002,-0.475358 -8.027059,-0.633547 -8.928873,-3.20971 -0.642303,-1.834833 -0.574865,-3.529887 0.208871,-5.25 1.062059,-2.330967 1.679059,-2.54029 7.487743,-2.54029 8.827036,0 9.593909,-0.810666 9.932779,-10.5 l 0.279789,-8 4.5,0 4.5,0 0.533871,8.200537 c 0.293629,4.510296 0.891872,8.560296 1.329431,9 0.437558,0.439705 4.247316,1.024463 8.466129,1.299463 l 7.670569,0.5 0.314526,3.819788 c 0.463727,5.631774 -0.92964,6.680212 -8.877954,6.680212 -4.356688,0 -7.110636,0.451316 -7.627555,1.25 -0.444959,0.6875 -1.034017,4.85 -1.309017,9.25 l -0.5,8 -3.585591,0.300564 c -2.121159,0.177807 -4.042491,-0.249967 -4.704288,-1.047384 z"
         id="path4497"
         inkscape:connector-curvature="0" />
      <path
         style="fill:#508310"
         d="M 50.666667,67.878788 C 50.3,67.512122 50,63.777122 50,59.578788 c 0,-4.603703 -0.476274,-8.109607 -1.2,-8.833333 -0.713582,-0.713582 -4.151322,-1.2 -8.480948,-1.2 -6.86892,0 -7.315332,-0.136999 -7.888556,-2.420905 -1.463045,-5.829232 0.622825,-7.217165 11.212515,-7.46078 C 49.773646,39.522735 50,39.145544 50,29.070656 c 0,-5.744389 0.338986,-7.441304 1.581787,-7.918212 5.021997,-1.927121 6.513159,-0.02888 7.072474,9.003227 0.30954,4.998606 0.991634,8.281682 1.861379,8.95924 0.755042,0.588201 4.18414,1.146938 7.620219,1.241638 3.436079,0.0947 6.643958,0.568723 7.128621,1.053386 0.484662,0.484662 0.735926,2.400926 0.558362,4.258362 L 75.5,49.045455 68.337553,49.337497 c -4.236063,0.172722 -7.592979,0.810801 -8.21619,1.561725 -0.579559,0.698325 -1.123463,4.166906 -1.208676,7.707958 -0.223225,9.276199 -0.510579,9.938275 -4.313408,9.938275 -1.79627,0 -3.565946,-0.3 -3.932612,-0.666667 z"
         id="path4495"
         inkscape:connector-curvature="0" />
      <path
         style="fill:#4c7d0e"
         d="M 50.852616,59.008865 C 50.596176,52.800628 50.090875,50.213682 49,49.524178 48.175,49.002724 44.210336,48.56919 40.189635,48.560768 l -7.310366,-0.01531 0.310366,-3.75 0.310365,-3.75 7.5,-0.281487 c 9.397262,-0.352693 10,-1.040395 10,-11.409643 0,-8.170174 0.157036,-8.409707 4.712626,-7.188358 2.036772,0.546057 2.235465,1.280135 2.5,9.236346 L 58.5,40.045455 l 6,0.257401 c 9.721562,0.417056 10.5,0.77007 10.5,4.761651 l 0,3.480948 -6.565741,0 C 58.459204,48.545455 58,49.0091 58,59.080639 l 0,8.464816 -3.397384,0 -3.397384,0 -0.352616,-8.53659 z"
         id="path4493"
         inkscape:connector-curvature="0" />
    </g>
  </g>
</svg>
